<?xml version="1.0" standalone="no"?>
<!DOCTYPE svg PUBLIC "-//W3C//DTD SVG 1.1//EN" "http://www.w3.org/Graphics/SVG/1.1/DTD/svg11.dtd" >
<svg xmlns="http://www.w3.org/2000/svg">
<metadata></metadata>
<defs>
<font id="RomainBPHeadlineBlackItalic" horiz-adv-x="1277" >
<font-face units-per-em="2048" ascent="1536" descent="-512" />
<missing-glyph horiz-adv-x="368" />
<glyph unicode="&#xfb01;" horiz-adv-x="1601" d="M936 346l129 586h-336l-149 -940q-19 -117 -59 -213.5t-93.5 -162.5t-115 -114t-129.5 -75t-130 -39.5t-123 -12.5q-49 0 -97.5 7t-99.5 23.5t-89.5 41.5t-63 65.5t-24.5 90.5q0 59 35 98t112 39q54 0 91.5 -24t55 -60.5t30 -78.5t19 -78.5t19.5 -60.5t33 -24 q52 0 90.5 114t77.5 357l166 1047h-281l12 53h277l16 92q21 132 76.5 238.5t128.5 174.5t163.5 114t179.5 65t179 19q79 0 155 -12.5t143.5 -37.5t109 -69t41.5 -101q0 -64 -38.5 -113.5t-121.5 -49.5q-53 0 -94 19t-66 49.5t-43.5 67t-30 73t-22.5 67t-25 49.5t-32 19 q-73 0 -140 -128t-114 -419l-21 -117h776l-155 -754q-17 -86 55 -86q29 0 77.5 27t72.5 55l24 -20q-28 -40 -53 -70t-62 -63t-76 -54t-92.5 -35t-113.5 -14q-174 0 -233.5 98.5t-20.5 276.5z" />
<glyph unicode="&#xfb02;" horiz-adv-x="1638" d="M770 1178l-33 -193h217l-12 -53h-213l-149 -940q-19 -117 -59 -213.5t-93.5 -162.5t-115 -114t-129.5 -75t-130 -39.5t-123 -12.5q-49 0 -97.5 7t-99.5 23.5t-89.5 41.5t-63 65.5t-24.5 90.5q0 59 35 98t112 39q54 0 91.5 -24t55 -60.5t30 -78.5t19 -78.5t19.5 -60.5 t33 -24q52 0 90.5 114t77.5 357l166 1047h-281l12 53h277l24 145q19 116 70 212t118 159t147 106t155.5 62t146.5 19q103 0 191 -15h469l-228 -1442q-7 -42 5 -64t51 -22q29 0 77 27t72 55l25 -20q-35 -50 -69 -87t-83 -73.5t-112 -56t-138 -19.5q-117 0 -181 47t-76 130 t4 198l155 1012q-35 26 -63 78t-42.5 97.5t-35 80.5t-45.5 35q-17 0 -35.5 -26.5t-39.5 -80t-43 -147t-42 -217.5z" />
<glyph unicode="&#xfb03;" horiz-adv-x="2398" d="M1733 346l129 586h-336l-150 -940q-23 -143 -56.5 -250t-74.5 -177t-94 -112.5t-110.5 -60t-129.5 -17.5q-49 0 -97.5 7t-99.5 23.5t-89.5 41.5t-63 65.5t-24.5 90.5q0 59 35 98t112 39q54 0 91.5 -24t55 -60.5t30 -78.5t19 -78.5t19.5 -60.5t33 -24q15 0 19 9.5t0.5 30 t-11.5 48t-16.5 68.5t-14 86t-5 106t10.5 123l166 1047h-352l-149 -940q-19 -117 -59 -213.5t-93.5 -162.5t-115 -114t-129.5 -75t-130 -39.5t-123 -12.5q-49 0 -97.5 7t-99.5 23.5t-89.5 41.5t-63 65.5t-24.5 90.5q0 59 35 98t112 39q54 0 91.5 -24t55 -60.5t30 -78.5 t19 -78.5t19.5 -60.5t33 -24q52 0 90.5 114t77.5 357l166 1047h-281l12 53h277l24 145q19 116 70 212t118 159t147 106t155.5 62t146.5 19q94 0 178.5 -21t141 -62t63.5 -92q103 89 234 132t262 43q79 0 155 -12.5t143 -37.5t108.5 -69t41.5 -101q0 -29 -8 -56t-25.5 -52 t-50 -40t-75.5 -15q-53 0 -94 19t-66 49.5t-43.5 67t-30.5 73t-22.5 67t-25 49.5t-32.5 19q-73 0 -140 -128t-114 -419l-20 -117h776l-156 -754q-17 -86 56 -86q29 0 77 27t72 55l25 -20q-28 -40 -53 -70t-62 -63t-76 -54t-92.5 -35t-113.5 -14q-174 0 -233.5 98.5 t-20.5 276.5zM770 1178l-33 -193h353l16 92q19 133 84 252h-14q-64 0 -104 33t-55.5 80t-25 94t-23 80t-38.5 33q-17 0 -35.5 -26.5t-39.5 -80t-43 -147t-42 -217.5z" />
<glyph unicode="&#xfb04;" horiz-adv-x="2435" d="M1739 932h-213l-150 -940q-23 -143 -56.5 -250t-74.5 -177t-94 -112.5t-110.5 -60t-129.5 -17.5q-49 0 -97.5 7t-99.5 23.5t-89.5 41.5t-63 65.5t-24.5 90.5q0 59 35 98t112 39q54 0 91.5 -24t55 -60.5t30 -78.5t19 -78.5t19.5 -60.5t33 -24q15 0 19 9.5t0.5 30t-11.5 48 t-16.5 68.5t-14 86t-5 106t10.5 123l166 1047h-352l-149 -940q-19 -117 -59 -213.5t-93.5 -162.5t-115 -114t-129.5 -75t-130 -39.5t-123 -12.5q-49 0 -97.5 7t-99.5 23.5t-89.5 41.5t-63 65.5t-24.5 90.5q0 59 35 98t112 39q54 0 91.5 -24t55 -60.5t30 -78.5t19 -78.5 t19.5 -60.5t33 -24q52 0 90.5 114t77.5 357l166 1047h-281l12 53h277l24 145q19 116 70 212t118 159t147 106t155.5 62t146.5 19q137 0 246.5 -43.5t132.5 -114.5q93 79 205 118.5t213 39.5q103 0 191 -15h468l-227 -1442q-7 -42 4.5 -64t50.5 -22q29 0 77.5 27t72.5 55 l25 -20q-35 -50 -69 -87t-83 -73.5t-112 -56t-138 -19.5q-117 0 -181 47t-76.5 130t3.5 198l156 1012q-35 26 -63 78t-42.5 97.5t-35.5 80.5t-46 35q-23 0 -48 -44.5t-55 -154t-56 -272.5l-33 -193h217zM770 1178l-33 -193h353l24 145q18 109 62 199q-64 0 -104 33t-55.5 80 t-25 94t-23 80t-38.5 33q-17 0 -35.5 -26.5t-39.5 -80t-43 -147t-42 -217.5z" />
<glyph horiz-adv-x="0" />
<glyph horiz-adv-x="2048" />
<glyph unicode="&#xd;" horiz-adv-x="1003" />
<glyph unicode=" "  horiz-adv-x="368" />
<glyph unicode="&#x09;" horiz-adv-x="368" />
<glyph unicode="&#xa0;" horiz-adv-x="368" />
<glyph unicode="!" horiz-adv-x="634" d="M180 1663q87 47 256 47q185 0 277 -47q-33 -159 -78 -290t-91 -224.5t-92 -178.5t-91.5 -192t-77.5 -225h-25q7 119 -2 235t-25 201t-31.5 194.5t-22.5 215.5t3 264zM-31 225q0 106 75 181t181 75t181 -75t75 -181t-75 -181t-181 -75t-181 75t-75 181z" />
<glyph unicode="&#x22;" horiz-adv-x="745" d="M106 1147l-20 450h293l-164 -450h-109zM457 1147l-21 450h293l-164 -450h-108z" />
<glyph unicode="#" horiz-adv-x="1712" d="M240 1010l41 96h368l201 500h104l-200 -500h448l201 500h104l-200 -500h354l-41 -96h-352l-193 -478h398l-41 -96h-396l-174 -436h-104l174 436h-449l-174 -436h-104l174 436h-328l41 96h326l192 478h-370zM715 1010l-193 -478h449l192 478h-448z" />
<glyph unicode="$" horiz-adv-x="1411" d="M1341 1595l-79 -497h-31q-5 144 -36.5 253t-82 173t-111.5 95.5t-131 33.5l-82 -529l130 -94q145 -106 203 -161q157 -151 161 -331v-10q0 -115 -38 -208t-102 -155t-152.5 -105t-183.5 -63t-200 -24l-28 -184h-84l28 182q-275 6 -489 123l82 524h28q8 -143 32 -248 t57.5 -169.5t82 -103.5t99 -53t116.5 -15l101 637l-135 96q-158 111 -224.5 229t-66.5 260q0 200 159.5 321.5t432.5 135.5l30 197h84l-30 -195q115 -3 237.5 -32.5t222.5 -82.5zM834 319q0 163 -127 287l-91 -569q94 24 156 100.5t62 181.5zM608 1411q0 -138 105 -229 l73 463q-86 -19 -132 -79t-46 -155z" />
<glyph unicode="%" horiz-adv-x="1818" d="M1655 1618l-1331 -1618h-111l1327 1618h115zM461 879q130 0 207 96t77 227q0 107 -59 175.5t-170 68.5q-121 0 -204 -92.5t-83 -229.5q0 -105 57.5 -175t174.5 -70zM457 788q-158 0 -243 91t-85 229q0 186 111 306t284 120q160 0 243 -88t83 -223q0 -113 -49.5 -212 t-141 -161t-202.5 -62zM1296 61q130 0 207.5 96.5t77.5 227.5q0 107 -59 175.5t-170 68.5q-121 0 -204 -92.5t-83 -229.5q0 -105 57 -175.5t174 -70.5zM1292 -29q-158 0 -242.5 91t-84.5 229q0 186 111 306t284 120q160 0 243 -88t83 -223q0 -112 -50 -211.5t-141.5 -161.5 t-202.5 -62z" />
<glyph unicode="&#x26;" horiz-adv-x="1781" d="M942 1075q51 -70 145 -199.5t117 -160.5q62 150 164.5 232.5t210.5 82.5q96 0 154.5 -53t58.5 -139q0 -71 -49 -126t-119 -55q-43 0 -78.5 19t-55.5 41.5t-47.5 41.5t-56.5 19q-39 0 -77.5 -17.5t-85.5 -72.5l114 -153q181 -248 181 -414q0 -202 -188.5 -331.5 t-506.5 -154.5l-6 15q258 114 258 315q0 143 -123 309l-20 27q-110 -162 -241.5 -246t-303.5 -84q-104 0 -189 33t-139 87.5t-83 123.5t-29 143q0 87 34 167.5t101.5 150.5t181 118t260.5 62q-164 248 -164 453q0 173 161 287t435 114q207 0 314.5 -63t107.5 -183 q0 -59 -29 -119t-83 -114t-138 -96t-186 -60zM907 336q-30 41 -161 218t-201 273q-58 -66 -96.5 -167t-38.5 -197q0 -121 58.5 -204t158.5 -83q71 0 135.5 34t144.5 126zM825 1417q0 -154 105 -325q36 14 71.5 55.5t61 95.5t41.5 117.5t16 120.5q0 85 -36.5 137.5 t-110.5 52.5q-66 0 -107 -68t-41 -186z" />
<glyph unicode="'" horiz-adv-x="395" d="M143 1147l-92 450h293l-92 -450h-109z" />
<glyph unicode="(" horiz-adv-x="749" d="M729 1604h113q-297 -251 -455 -601t-158 -720q0 -259 73 -494.5t216 -388.5h-115q-136 149 -209 382.5t-73 493.5q0 382 162 737.5t446 590.5z" />
<glyph unicode=")" horiz-adv-x="651" d="M-84 -600h-117q297 262 457 609t160 714q0 258 -73.5 492.5t-217.5 388.5h115q138 -149 211 -381.5t73 -493.5q0 -379 -163 -736t-445 -593z" />
<glyph unicode="*" horiz-adv-x="733" d="M461 1606l-39 -252l237 133l41 -80l-243 -129l205 -123l-56 -86l-198 129l-41 -256h-97l39 250l-237 -131l-41 80l243 127l-204 125l57 86l197 -131l41 258h96z" />
<glyph unicode="+" horiz-adv-x="1114" d="M580 999h104l-70 -432h435l-15 -96h-434l-70 -436h-104l70 436h-433l15 96h432z" />
<glyph unicode="," horiz-adv-x="573" d="M213 -4q-75 24 -119.5 87.5t-44.5 139.5q0 110 73.5 186t182.5 76q64 0 115.5 -23.5t82 -62t46.5 -84.5t16 -94q0 -111 -72 -215t-189.5 -175t-250.5 -91l-8 14q42 15 96 94.5t72 147.5z" />
<glyph unicode="-" horiz-adv-x="786" d="M84 471l14 96h602l-14 -96h-602z" />
<glyph unicode="." horiz-adv-x="573" d="M31 225q0 106 75 181t181 75t181 -75t75 -181t-75 -181t-181 -75t-181 75t-75 181z" />
<glyph unicode="/" horiz-adv-x="770" d="M918 1669l-963 -1737h-107l963 1737h107z" />
<glyph unicode="0" horiz-adv-x="1617" d="M547 420q0 -202 49 -301t129 -99q69 0 130 79t101.5 199t70 263t43 270.5t13.5 221.5q0 206 -48.5 308.5t-127.5 102.5q-68 0 -129 -80t-102 -202t-71 -266.5t-44 -273t-14 -222.5zM102 645q0 189 61 352t166.5 275.5t249 176.5t304.5 64q312 0 479.5 -175.5 t167.5 -489.5q0 -191 -59.5 -355.5t-163 -278.5t-246 -178.5t-305.5 -64.5q-304 0 -479 179t-175 495z" />
<glyph unicode="1" horiz-adv-x="1024" d="M262 229l156 990q-137 15 -258 55l6 29q120 11 343 78t347 132h43l-203 -1280q-14 -71 -3 -113.5t58.5 -59.5t155.5 -17l-6 -43h-921l6 43q85 0 134 7.5t79 31t42 55.5t21 92z" />
<glyph unicode="2" horiz-adv-x="1390" d="M268 313h563q41 0 72.5 2t69 8.5t67 18t61.5 32t57.5 49t49.5 70t43 93.5h27l-92 -586h-1350q64 53 162 129.5t173.5 134t168.5 135t162 141.5t138.5 143t114 150t72 151.5t27.5 158.5q0 99 -53.5 149.5t-143.5 50.5q-67 0 -136.5 -34.5t-129 -107.5t-80.5 -169h-39 q21 132 102 240.5t218 174.5t305 66q201 0 316.5 -85.5t115.5 -227.5q0 -73 -24.5 -140.5t-57.5 -121t-106 -115.5t-128.5 -103t-170 -106t-185.5 -102t-217 -111q-113 -58 -172 -88z" />
<glyph unicode="3" horiz-adv-x="1378" d="M731 969q131 -4 234 -44.5t163.5 -104.5t91.5 -138t31 -152q0 -110 -48 -209.5t-137.5 -178t-232 -125t-317.5 -46.5q-82 0 -167.5 20t-160 56.5t-121.5 96.5t-47 132q0 73 41.5 119.5t110.5 46.5q26 0 48 -7.5t36.5 -17t26.5 -28t18.5 -32t12.5 -37.5t7.5 -36l4.5 -36 t4 -29q12 -102 56.5 -152.5t131.5 -50.5q80 0 147 63.5t103.5 160t36.5 198.5q0 60 -16.5 115.5t-48.5 102t-86 74.5t-122 28q-93 0 -221 -51l-6 49q127 47 242.5 119t196.5 166t81 180q0 72 -53.5 110.5t-153.5 38.5q-34 0 -71.5 -9t-83.5 -31t-91 -68.5t-79 -112.5l-37 16 q38 92 104 161t148 109t170.5 59t185.5 19q191 0 304.5 -57.5t113.5 -148.5q0 -51 -34.5 -103t-100 -99.5t-174 -83.5t-242.5 -52z" />
<glyph unicode="4" horiz-adv-x="1523" d="M1047 352l-21 -119q-15 -71 -5.5 -113.5t56.5 -59.5t154 -17l-8 -43h-924l8 43q86 0 136 7.5t81.5 31t44.5 55.5t23 92l20 123h-692l1325 1254l-155 -977h215q57 0 90.5 44.5t74.5 166.5h27l-76 -488h-374zM307 629h348l62 385z" />
<glyph unicode="5" horiz-adv-x="1458" d="M1442 1575l-113 -416h-903l-113 -330q101 97 238 150t293 53q118 0 210 -34.5t148 -94.5t84.5 -135.5t28.5 -161.5q0 -142 -52 -259t-149 -200.5t-242.5 -129.5t-326.5 -46q-83 0 -170.5 19t-166 53.5t-129 93.5t-50.5 131q0 75 43 124.5t123 49.5q44 0 75.5 -18t49 -50 t26.5 -61t14 -67q16 -102 67 -165t132 -63q87 0 159.5 62.5t112 163t39.5 213.5q0 126 -75.5 206t-225.5 80q-78 0 -195.5 -36.5t-185.5 -106.5l-18 4l291 871h729q91 0 143 22.5t82 77.5h27z" />
<glyph unicode="6" horiz-adv-x="1439" d="M1339 1608l9 -31q-300 -121 -476.5 -290t-289.5 -449q78 81 161 118t201 37q54 0 105 -13t100 -43.5t85.5 -75t58.5 -112.5t22 -151q0 -189 -95 -333t-256.5 -219t-363.5 -75q-257 0 -404 158t-147 422q0 381 337 655t953 402zM739 854q-90 0 -170 -68q-44 -96 -73 -232 t-29 -253q0 -132 36 -211.5t103 -79.5q57 0 106.5 59t80 151t48 198t17.5 207t-31 165t-88 64z" />
<glyph unicode="7" horiz-adv-x="1253" d="M-41 57l1171 1102h-608q-124 0 -212 -69.5t-126 -186.5h-20l90 572h1184l-1227 -1635z" />
<glyph unicode="8" horiz-adv-x="1437" d="M502 692l-31 23q-227 158 -227 387q0 216 174 331t479 115q204 0 331.5 -74t127.5 -190q0 -124 -114 -205t-339 -110l74 -45q88 -52 150 -107.5t96 -111t48.5 -107.5t14.5 -109q0 -108 -42.5 -200.5t-126 -164.5t-221.5 -113.5t-316 -41.5q-237 0 -388 93t-151 247 q0 291 461 383zM385 291q0 -126 52 -199.5t163 -73.5q106 0 166.5 82.5t60.5 186.5q0 96 -48 172t-173 164l-74 49q-67 -65 -107 -174t-40 -207zM827 1022l58 -41q65 49 105 144.5t40 181.5q0 194 -139 194q-82 0 -139.5 -65.5t-57.5 -169.5q0 -61 19.5 -109t45 -75.5 t68.5 -59.5z" />
<glyph unicode="9" horiz-adv-x="1415" d="M57 -123l-8 31q300 121 476.5 290t289.5 449q-78 -81 -161 -118t-201 -37q-54 0 -105 13t-100 43.5t-85.5 75t-58.5 112.5t-22 151q0 142 55 260.5t151 198t227 123.5t282 44q258 0 404.5 -151.5t146.5 -413.5q0 -382 -339 -662.5t-952 -408.5zM657 631q91 0 170 67 q45 96 74 233t29 253q0 132 -36 211.5t-103 79.5q-57 0 -106.5 -59t-80 -151t-48 -198t-17.5 -207t31 -165t87 -64z" />
<glyph unicode=":" horiz-adv-x="667" d="M31 225q0 106 75 181t181 75t181 -75t75 -181t-75 -181t-181 -75t-181 75t-75 181zM125 776q0 106 75 181t181 75t181 -75t75 -181t-75 -181t-181 -75t-181 75t-75 181z" />
<glyph unicode=";" horiz-adv-x="681" d="M139 776q0 106 75 181t181 75t181 -75t75 -181t-75 -181t-181 -75t-181 75t-75 181zM213 -4q-75 24 -119.5 87.5t-44.5 139.5q0 110 73.5 186t182.5 76q64 0 115.5 -23.5t82 -62t46.5 -84.5t16 -94q0 -111 -72 -215t-189.5 -175t-250.5 -91l-8 14q42 15 96 94.5t72 147.5 z" />
<glyph unicode="&#x3c;" horiz-adv-x="1116" d="M86 471l16 96l1106 463l-16 -117l-977 -399l846 -432l-19 -109z" />
<glyph unicode="=" horiz-adv-x="1114" d="M53 287l17 96h929l-16 -96h-930zM113 655l14 97h930l-15 -97h-929z" />
<glyph unicode="&#x3e;" horiz-adv-x="1116" d="M1034 567l-16 -96l-1110 -498l18 119l979 432l-850 398l17 108z" />
<glyph unicode="?" horiz-adv-x="978" d="M604 1708q207 0 320.5 -70t113.5 -188q0 -69 -32 -138t-83.5 -129t-113.5 -121t-124.5 -123t-114 -124.5t-83.5 -137t-32 -149.5l-17 -12q-131 38 -193.5 87.5t-62.5 133.5q0 54 25.5 111.5t66.5 110.5t90.5 109t99.5 115t91 119.5t66.5 132.5t25.5 144q0 90 -53 90 q-21 0 -35 -9t-21 -28t-11 -37.5t-9 -49.5t-10 -52q-19 -77 -71.5 -131.5t-131.5 -54.5q-82 0 -120 47t-38 100q0 63 39.5 113t105.5 80t146 45.5t166 15.5zM133 225q0 106 75 181t181 75t181 -75t75 -181t-75 -181t-181 -75t-181 75t-75 181z" />
<glyph unicode="@" horiz-adv-x="2000" d="M1411 285q-96 0 -172.5 27.5t-123.5 73.5t-73 101t-30 115q-49 -124 -142.5 -183t-199.5 -59q-150 0 -227.5 102.5t-77.5 252.5q0 160 86.5 295t235.5 212.5t325 77.5q68 0 127 -26l12 43h410l-105 -563q-16 -88 -22 -143t-1.5 -102.5t27 -69t64.5 -21.5q80 0 150.5 75.5 t112.5 206.5t42 283q0 283 -200 458t-519 175q-185 0 -356.5 -73t-298.5 -196.5t-203 -299t-76 -369.5q0 -296 199 -479t520 -183q105 0 246 29l4 -86q-129 -33 -285 -33q-170 0 -316.5 55t-250 152t-162.5 234t-59 295q0 217 81.5 410.5t222.5 332.5t339.5 220t423.5 81 q122 0 237 -29t216 -87.5t176.5 -141t119 -197t43.5 -247.5q0 -145 -35 -274.5t-100 -228.5t-164.5 -157.5t-220.5 -58.5zM887 547q75 0 131 135l61 328q9 120 -2.5 186t-58.5 66q-42 0 -92 -96t-83.5 -229.5t-33.5 -236.5q0 -153 78 -153z" />
<glyph unicode="A" horiz-adv-x="1601" d="M866 213l-55 283h-473l-53 -111q-91 -187 -78 -267.5t137 -80.5l-6 -37h-483l6 37q93 0 176 79.5t172 266.5l622 1290h211l318 -1487q18 -83 65 -116t136 -33l-7 -37h-876l6 37q26 0 45.5 1t40 4t35.5 9t28.5 15t21.5 22t13 30.5t4.5 41.5t-6.5 53zM674 1194l-277 -573 h389z" />
<glyph unicode="B" horiz-adv-x="1615" d="M211 1673h676q173 0 304.5 -28t206 -76t110.5 -105t36 -121q0 -187 -160 -313.5t-436 -152.5q250 -10 399.5 -115t149.5 -256q0 -109 -38.5 -194.5t-107.5 -143.5t-169.5 -96t-219 -55t-260.5 -17h-753l4 33q62 0 100 9t60.5 33t32.5 52.5t18 79.5l203 1278 q11 59 3.5 93.5t-43.5 48t-120 13.5zM723 850l-127 -809q127 0 227 70.5t152.5 182.5t52.5 241q0 131 -82.5 223t-222.5 92zM848 1628l-119 -749q85 0 155 46t112 118.5t64.5 155.5t22.5 163q0 110 -65 187.5t-170 78.5z" />
<glyph unicode="C" horiz-adv-x="1613" d="M862 20q45 0 98 15.5t119.5 56t129 100.5t126.5 159t113 222h25l-80 -540q-232 -62 -537 -62q-227 0 -402.5 95t-273.5 273t-98 413q0 280 114 498t324 340t484 122q126 0 284 -26.5t309 -94.5l-75 -508h-25q-17 120 -57 220.5t-89.5 165t-106.5 110t-108 65t-94 19.5 q-86 0 -165 -74t-136 -195.5t-100 -274.5t-64.5 -315t-21.5 -312q0 -236 78.5 -354t228.5 -118z" />
<glyph unicode="D" horiz-adv-x="1812" d="M211 1673h666q206 0 375 -52t282.5 -144.5t175.5 -222t62 -283.5q0 -208 -77.5 -389t-212 -308.5t-323.5 -200.5t-405 -73h-805l4 33q61 0 100 9t61 31t31.5 48.5t16.5 71.5l198 1263q11 66 6.5 107t-40.5 59t-119 18zM846 1626l-223 -1413q-16 -99 18 -133.5t123 -34.5 q75 0 152.5 54t144.5 152t120.5 224t84 282.5t30.5 315.5q0 112 -26.5 205.5t-71 156.5t-103 107t-121.5 64t-128 20z" />
<glyph unicode="E" horiz-adv-x="1507" d="M1186 1237l-117 -739h-22q0 161 -86.5 253.5t-237.5 92.5l-107 -668q-11 -73 14.5 -100t112.5 -27q92 0 170.5 18.5t135.5 46.5t106 73.5t80 87t60 99.5t44 99.5t33 97.5h25l-90 -571h-1358l4 33q62 0 100 9t60 32t31.5 50.5t17.5 76.5l200 1261q11 63 6 102.5t-42 57.5 t-119 18l4 33h1296l-80 -579h-24q-1 52 -4.5 95t-17 100.5t-36.5 101.5t-65 90t-99 76.5t-142.5 49.5t-192.5 19l-115 -735q151 0 266 92.5t166 253.5h23z" />
<glyph unicode="F" horiz-adv-x="1409" d="M836 0h-887l4 33q62 0 100 9t60 32t31.5 50.5t17.5 76.5l200 1261q11 63 6 102.5t-42 57.5t-119 18l4 33h1329l-84 -532h-24q0 41 -2 71t-9 71.5t-18.5 72t-33 66.5t-51.5 62t-74.5 51.5t-100.5 41.5t-132 25.5t-167 9.5l-113 -721q152 0 270.5 93t169.5 253h23 l-117 -739h-22q0 160 -90 253t-242 93l-102 -651q-11 -58 -1.5 -93.5t59 -51t161.5 -15.5z" />
<glyph unicode="G" horiz-adv-x="1792" d="M848 -29q-167 0 -309 55.5t-243 156t-157.5 247t-56.5 322.5q0 209 64 385t182.5 304t298 199.5t401.5 71.5q328 0 592 -121l-74 -508h-24q-17 120 -57.5 220.5t-89.5 165t-106 110t-108 65t-94 19.5q-107 0 -205 -113t-163.5 -286.5t-104.5 -379t-39 -392.5 q0 -467 307 -467q113 0 177.5 61.5t88.5 212.5l31 203q17 103 -17 139.5t-151 36.5l4 29h764l-4 -29q-86 0 -113 -33t-45 -143l-28 -185q-25 -158 -221.5 -252t-499.5 -94z" />
<glyph unicode="H" horiz-adv-x="1951" d="M1157 197l100 641h-536l-100 -645q-9 -54 -4.5 -89.5t42 -53t119.5 -17.5l-4 -33h-825l4 33q62 0 100 9t60 31.5t31.5 49.5t17.5 74l203 1284q9 54 4 89.5t-42.5 52.5t-119.5 17l4 33h827l-4 -33q-62 0 -101 -9t-61 -31t-31.5 -47t-17.5 -70l-90 -570h537l90 568 q9 54 4 89.5t-42.5 52.5t-119.5 17l4 33h828l-4 -33q-62 0 -101 -9t-61 -31t-31.5 -47t-17.5 -70l-203 -1290q-9 -54 -4 -89.5t42.5 -53t119.5 -17.5l-5 -33h-827l4 33q62 0 101 9t61 31.5t31.5 49.5t17.5 74z" />
<glyph unicode="I" horiz-adv-x="956" d="M162 197l203 1284q8 54 3.5 89.5t-42 52.5t-119.5 17l4 33h827l-4 -33q-62 0 -101.5 -9t-61.5 -30.5t-31.5 -47.5t-16.5 -70l-202 -1290q-8 -54 -3.5 -89.5t41.5 -53t119 -17.5l-4 -33h-825l4 33q62 0 100 9t60 31.5t31.5 49.5t17.5 74z" />
<glyph unicode="J" horiz-adv-x="1202" d="M293 -29q-166 0 -275.5 73t-109.5 183q0 84 47 138.5t143 54.5q86 0 134.5 -56.5t48.5 -140.5q0 -27 -11 -88t-8 -92t33 -31q105 0 199 600l133 842q11 67 6 108.5t-41 59.5t-119 18l4 33h828l-5 -33q-63 0 -101.5 -9t-61.5 -34t-33.5 -55.5t-18.5 -85.5l-133 -844 q-11 -71 -27.5 -133.5t-43.5 -129t-62.5 -120.5t-86.5 -103t-113.5 -82.5t-145.5 -53t-180 -19.5z" />
<glyph unicode="K" horiz-adv-x="1806" d="M162 197l203 1284q9 54 4 89.5t-42.5 52.5t-119.5 17l4 33h827l-4 -33q-62 0 -101 -9t-61 -31t-31.5 -47t-17.5 -70l-102 -647l504 497q214 210 128 277q-33 26 -112 26l6 37h651l-6 -37q-237 0 -581 -313l-221 -201l419 -911q80 -174 220 -174l-7 -37h-659l-344 819 l-98 -626q-9 -54 -4.5 -89.5t42 -53t119.5 -17.5l-4 -33h-825l4 33q62 0 100 9t60 31.5t31.5 49.5t17.5 74z" />
<glyph unicode="L" horiz-adv-x="1486" d="M211 1673h827l-4 -33q-63 0 -101.5 -9t-61 -33t-32.5 -53.5t-18 -82.5l-205 -1286q-11 -73 14.5 -100t112.5 -27q120 0 222 40t170 98.5t124 140.5t86 150t54 143h24l-100 -621h-1374l4 33q62 0 100 9t60 32t31.5 50.5t17.5 76.5l200 1261q11 63 6 102.5t-42 57.5 t-119 18z" />
<glyph unicode="M" horiz-adv-x="2170" d="M209 403l207 1045q21 96 -25.5 141t-157.5 45l7 39h628l258 -983l506 983h621l-6 -39q-205 0 -224 -166l-155 -1312q-8 -65 25 -94t139 -29l-4 -33h-828l4 33q107 0 151 29.5t54 93.5l143 1200l-708 -1376h-23l-354 1372l-184 -949q-14 -74 -16 -132.5t8.5 -98.5 t29 -67.5t48 -43t61.5 -22t73 -6.5l-4 -33h-616l4 33q62 0 111 16.5t94 56t78 114t55 183.5z" />
<glyph unicode="N" horiz-adv-x="1722" d="M1538 1243l-197 -1245h-243l-690 1309l-138 -875q-33 -213 11 -306t188 -93l-4 -33h-600l4 33q145 0 222 94.5t110 302.5l155 981q-108 229 -188 229l4 33h586l610 -1091l100 659q33 213 -10.5 306t-187.5 93l4 33h602l-4 -33q-147 0 -224 -94.5t-110 -302.5z" />
<glyph unicode="O" horiz-adv-x="1882" d="M555 492q1 -234 76.5 -353t210.5 -119q87 0 166 74t135.5 195.5t98.5 274.5t62.5 313.5t20.5 308.5q0 235 -75 356t-208 121q-86 0 -165 -74t-136 -195.5t-100 -274.5t-64.5 -315t-21.5 -312zM82 752q0 209 66 388t183 304.5t284 196.5t362 71q385 0 604 -208.5 t219 -561.5q0 -281 -112.5 -502t-316.5 -345t-464 -124q-380 0 -602.5 211.5t-222.5 569.5z" />
<glyph unicode="P" horiz-adv-x="1505" d="M211 1673h643q149 0 278.5 -22t235.5 -67t167.5 -122.5t61.5 -179.5q0 -118 -38 -213.5t-102 -158.5t-152 -105.5t-185 -61t-205 -18.5q-125 0 -208 12l-86 -540q-9 -56 -3.5 -92.5t47.5 -54t134 -17.5l-4 -33h-846l4 33q50 0 84 6.5t56 18t35.5 34t20.5 46t13 61.5 l203 1284q8 53 3.5 88t-42 52t-119.5 17zM848 1628l-137 -866q75 -9 150 29t133 110t94 180.5t36 231.5q0 155 -77.5 235t-198.5 80z" />
<glyph unicode="Q" horiz-adv-x="1882" d="M82 752q0 209 66 388t183 304.5t284 196.5t362 71q385 0 604 -208.5t219 -561.5q0 -282 -114 -503.5t-316 -344.5l197 -467l-23 -12l-749 362q-332 31 -522.5 238t-190.5 537zM555 492q1 -234 76.5 -353t210.5 -119q87 0 166 74t135.5 195.5t98.5 274.5t62.5 313.5 t20.5 308.5q0 235 -75 356t-208 121q-86 0 -165 -74t-136 -195.5t-100 -274.5t-64.5 -315t-21.5 -312z" />
<glyph unicode="R" horiz-adv-x="1691" d="M211 1673h661q699 0 699 -344q0 -101 -52 -180.5t-146.5 -132t-218 -84.5t-275.5 -45q117 -2 212 -31t167.5 -85t112.5 -146.5t40 -208.5q0 -80 5.5 -137t20.5 -98.5t34 -67.5t52 -43.5t68.5 -26.5t89.5 -16l-4 -21q-157 -35 -309 -35q-227 0 -333 110t-103 318l2 119 q3 137 -57.5 234.5t-157.5 101.5l-98 -664q-8 -53 -3.5 -88t41.5 -52t119 -17l-4 -33h-825l4 33q61 0 99.5 9t60.5 31t31.5 48t17.5 72l205 1294q8 51 3 85t-43.5 51t-119.5 17zM848 1632l-123 -741q155 0 264 127.5t109 329.5q0 132 -66.5 206.5t-183.5 77.5z" />
<glyph unicode="S" horiz-adv-x="1411" d="M1341 1595l-79 -497h-31q-5 145 -37 255t-83 174t-112.5 95t-132.5 31q-123 0 -190.5 -63.5t-67.5 -178.5q0 -152 133 -252l177 -129q145 -106 203 -161q157 -151 161 -331v-10q0 -120 -42 -216.5t-111 -159t-164 -104.5t-196 -59.5t-212 -17.5q-295 0 -524 123l82 524 h28q8 -145 33 -251t59 -170t84.5 -102.5t102 -52t119.5 -13.5q121 0 207 81.5t86 208.5q0 201 -193 340l-145 103q-158 111 -224.5 229t-66.5 260q0 213 178.5 336t480.5 123q118 0 246 -29.5t231 -85.5z" />
<glyph unicode="T" horiz-adv-x="1587" d="M84 1079l88 594h1528l-88 -594h-25q0 49 -5 96t-17.5 103t-32.5 103.5t-53.5 94t-77 78.5t-106 52t-138.5 20l-223 -1415q-8 -48 -4 -81.5t29 -55t75.5 -31.5t136.5 -10l-4 -33h-991l4 33q86 0 140 9.5t86 32.5t46.5 54t22.5 82l223 1415q-88 0 -165 -25.5t-135.5 -71 t-105 -98.5t-82.5 -119t-58.5 -119.5t-42.5 -113.5h-25z" />
<glyph unicode="U" horiz-adv-x="1771" d="M1561 1202l-88 -551q-53 -338 -218.5 -509t-484.5 -171q-295 0 -447.5 131.5t-152.5 376.5q0 73 12 152l131 827q11 65 6 105.5t-41.5 58.5t-119.5 18l4 33h827l-4 -33q-63 0 -101.5 -9t-61 -33.5t-32.5 -54.5t-18 -85l-135 -844q-77 -493 281 -493q206 0 324 133 t161 401l86 545q34 219 -9 329.5t-184 110.5l4 33h605l-4 -33q-144 0 -225 -112t-115 -326z" />
<glyph unicode="V" horiz-adv-x="1581" d="M760 1460l192 -981l389 809q91 188 78 268t-137 80l6 37h492l-6 -37q-93 0 -176.5 -79.5t-172.5 -266.5l-622 -1288h-219l-318 1485q-18 83 -64.5 116t-135.5 33l6 37h876l-6 -37q-26 0 -45.5 -1t-40 -4t-35.5 -9t-28.5 -15t-21.5 -22t-13 -30.5t-4.5 -41.5t6.5 -53z" />
<glyph unicode="W" horiz-adv-x="2314" d="M1651 1460l198 -934l258 676q38 101 56.5 175.5t18.5 135t-30 92t-90 31.5l2 37h441l-2 -37q-85 -6 -162.5 -116t-155.5 -316l-465 -1204h-207l-264 1114l-444 -1114h-207l-332 1487q-27 78 -64.5 110t-88.5 39l2 37h796l-2 -37q-34 0 -57.5 -2t-46 -8.5t-34.5 -18.5 t-19.5 -31t-6 -48t10.5 -68l170 -973l291 715l-56 285q-28 80 -62 111.5t-89 37.5l2 37h815l-2 -37q-30 0 -51.5 -1.5t-44 -6t-37.5 -12t-27.5 -21t-17.5 -31.5t-4.5 -44.5t8.5 -59.5z" />
<glyph unicode="X" horiz-adv-x="1744" d="M1372 1313l-254 -269l365 -894q46 -113 198 -113l-6 -37h-844l7 37q86 0 127.5 29t15.5 94l-209 516l-319 -340q-243 -261 -77 -294q23 -5 54 -5l-6 -37h-545l6 37q50 0 91 10.5t99.5 42t134 98.5t173.5 172l360 383l-315 781q-46 112 -197 112l7 37h841l-6 -37 q-194 0 -133 -149l152 -375l211 225q107 115 131 185.5t-8.5 92t-100.5 21.5l6 37h547l-6 -37q-64 0 -120.5 -21t-150.5 -93.5t-229 -208.5z" />
<glyph unicode="Y" horiz-adv-x="1679" d="M993 844l336 493q54 79 78 136t23.5 88t-23 48.5t-49 22t-68.5 4.5l6 37h541l-6 -37q-43 0 -71 -3.5t-72 -21t-84 -50.5t-95 -95.5t-116 -152.5l-357 -527l-94 -593q-9 -54 -4 -89.5t42.5 -53t119.5 -17.5l-4 -33h-828l4 33q62 0 101 9t61 31.5t31.5 49.5t17.5 74l80 508 l-252 819q-50 112 -196 112l6 37h842l-7 -37q-86 0 -121 -31.5t-12 -117.5z" />
<glyph unicode="Z" horiz-adv-x="1486" d="M-70 0l1078 1610q-152 0 -276.5 -34t-203 -85t-137.5 -121.5t-87 -130.5t-46 -125h-31l88 559h1221l-1071 -1614q98 3 177 8t147.5 15t121.5 21.5t100 31.5t81 40t66.5 52t56 62.5t49 76.5t45 89t45.5 106h28l-94 -561h-1358z" />
<glyph unicode="[" horiz-adv-x="579" d="M12 -475l318 2015h418l-13 -86h-319l-293 -1843h319l-12 -86h-418z" />
<glyph unicode="\" horiz-adv-x="770" d="M539 -68l-412 1737h102l412 -1737h-102z" />
<glyph unicode="]" horiz-adv-x="579" d="M565 1540l-317 -2015h-416l12 86h318l293 1843h-320l12 86h418z" />
<glyph unicode="^" horiz-adv-x="1077" d="M539 1606h96l283 -850h-111l-236 729l-430 -729h-116z" />
<glyph unicode="_" horiz-adv-x="1579" d="M104 -98l15 98h1354l-15 -98h-1354z" />
<glyph unicode="`" horiz-adv-x="538" d="M428 1118l-330 479h416l-76 -479h-10z" />
<glyph unicode="a" d="M1223 1030l-148 -799q-19 -88 19 -88q24 0 64.5 20t84.5 66l25 -16q-62 -103 -157 -172.5t-224 -69.5q-121 0 -183.5 75.5t-56.5 191.5q-122 -267 -323 -267q-69 0 -122.5 20.5t-85 52t-51.5 76t-27 86.5t-7 89q0 118 38.5 230t103.5 199t146.5 153.5t173.5 101.5t179 35 q71 0 127 -29l8 45h416zM526 156q10 0 18.5 2t30 21.5t40.5 54t43 110t44 180.5l31 162q14 74 18 128t0.5 84t-13 47.5t-20 22.5t-24.5 5q-51 0 -99.5 -125.5t-75.5 -284.5t-27 -278q0 -129 34 -129z" />
<glyph unicode="b" horiz-adv-x="1187" d="M678 1673l-152 -948q62 160 150.5 233.5t210.5 73.5q72 0 126.5 -28t84.5 -76t44.5 -103t14.5 -118q0 -139 -55 -273t-145.5 -235t-215 -163t-256.5 -63q-451 0 -454 383q0 65 12 142l164 985q5 48 1.5 82.5t-42.5 54.5t-121 20l8 33h625zM662 846q-10 0 -23.5 -7.5 t-36 -35.5t-44 -72.5t-46.5 -128.5t-45 -194q-15 -84 -22 -151t-5.5 -110.5t9.5 -72.5t20.5 -41.5t28.5 -12.5q44 0 83.5 84.5t63 202t37.5 229.5t14 181q0 65 -7 97t-27 32z" />
<glyph unicode="c" horiz-adv-x="1034" d="M922 387l32 -14q-92 -194 -234.5 -298t-322.5 -104q-169 0 -267.5 91t-98.5 268q0 92 31 190.5t91.5 189t142 162.5t191 115t228.5 43q57 0 110 -10t101.5 -32t78 -62.5t29.5 -94.5q0 -70 -39 -115.5t-112 -45.5q-54 0 -87.5 23t-45 58t-18.5 75.5t-9 75.5t-15 58t-38 23 q-38 0 -83 -105.5t-74.5 -254.5t-29.5 -269q0 -94 33.5 -144t89.5 -50q78 0 160.5 54.5t155.5 172.5z" />
<glyph unicode="d" horiz-adv-x="1351" d="M1329 1673l-219 -1419q-12 -68 -8 -99.5t28 -31.5q19 0 60.5 21t81.5 65l24 -16q-56 -97 -155.5 -159.5t-231.5 -62.5q-137 0 -197 82.5t-38 243.5q-62 -166 -150 -246t-211 -80q-66 0 -117 20.5t-81.5 52t-50 76t-26.5 86.5t-7 89q0 118 38.5 230t103.5 199t146.5 153.5 t173.5 101.5t179 35q65 0 110 -19l78 488q6 48 2.5 82.5t-43 54.5t-121.5 20l9 33h622zM698 971q-53 0 -102.5 -125t-76.5 -283t-27 -278q0 -129 34 -129q9 0 24 8t40.5 37.5t49.5 76t49.5 135.5t41.5 203l10 74q20 115 15 177.5t-19 83t-39 20.5z" />
<glyph unicode="e" horiz-adv-x="1052" d="M1042 874q0 -41 -16 -79t-41.5 -68t-67 -59.5t-81.5 -51.5t-96.5 -46.5t-100.5 -41.5t-105 -39q-33 -12 -49 -18q-4 -29 -4 -72q0 -231 135 -231q148 0 314 240l31 -15q-93 -197 -239.5 -309.5t-324.5 -112.5q-158 0 -262 93t-104 266q0 138 54.5 267t146 224t218.5 152 t265 57q94 0 162.5 -15.5t102 -40.5t48 -49.5t14.5 -50.5zM672 987q-35 0 -67 -48.5t-55 -124t-39 -154.5t-24 -154q98 58 162 180t64 217q0 40 -11.5 62t-29.5 22z" />
<glyph unicode="f" horiz-adv-x="995" d="M1104 932h-375l-149 -940q-19 -117 -59 -213.5t-93.5 -162.5t-115 -114t-129.5 -75t-130 -39.5t-123 -12.5q-49 0 -97.5 7t-99.5 23.5t-89.5 41.5t-63 65.5t-24.5 90.5q0 59 35 98t112 39q54 0 91.5 -24t55 -60.5t30 -78.5t19 -78.5t19.5 -60.5t33 -24q52 0 90.5 114 t77.5 357l166 1047h-281l12 53h277l24 145q19 116 70 212t118 159t147 106t155.5 62t146.5 19q99 0 185.5 -22.5t142.5 -66t57 -98.5q2 -73 -38 -122.5t-125 -49.5q-64 0 -104 33t-55.5 80t-25 94t-23 80t-38.5 33q-17 0 -35.5 -26.5t-39.5 -80t-43 -147t-42 -217.5 l-33 -193h379z" />
<glyph unicode="g" horiz-adv-x="1249" d="M582 326q-53 0 -78 4q-86 -57 -86 -115q0 -37 38.5 -62.5t125.5 -25.5h73q215 0 342 -64.5t127 -197.5q0 -110 -62 -201.5t-164 -149t-227 -89t-255 -31.5q-247 0 -388 73t-141 171q0 35 26 68.5t78 65t142.5 56t208.5 35.5q-155 10 -226 65.5t-71 130.5q0 206 414 277 q-143 26 -234.5 105.5t-91.5 195.5q0 58 18 112.5t60.5 106t105.5 90t160 61.5t217 23q137 0 246 -39h422l-8 -53h-316q105 -79 105 -207q0 -187 -146.5 -296t-414.5 -109zM274 -414q0 -73 37 -113t127 -40q49 0 100.5 15t97.5 43.5t75.5 78.5t29.5 113q0 82 -58.5 130 t-162.5 48h-102q-43 -16 -74 -53.5t-45 -82.5t-19.5 -79.5t-5.5 -59.5zM750 682q10 102 10 133q0 176 -84 176q-37 0 -66.5 -39.5t-45.5 -94.5t-26.5 -121.5t-14 -113.5t-3.5 -77q0 -180 80 -180q33 0 60 29.5t44.5 80t28 100.5t17.5 107z" />
<glyph unicode="h" horiz-adv-x="1345" d="M55 0l242 1483q6 48 2.5 82.5t-43 54.5t-121.5 20l8 33h629l-154 -944q28 93 65 154.5t83.5 92.5t94 42.5t112.5 11.5q132 0 182 -123t16 -338l-55 -338q-10 -38 -1.5 -62t46.5 -24q29 0 76.5 27t71.5 55l24 -20q-35 -51 -67 -87.5t-78 -73t-104 -56t-126 -19.5 q-95 0 -156 26.5t-87.5 75.5t-31.5 118.5t11 154.5l39 246q39 235 -8 235q-11 0 -24.5 -9t-30.5 -29.5t-35 -61.5t-33 -98l-102 -629h-445z" />
<glyph unicode="i" horiz-adv-x="802" d="M137 346l72 322q24 103 20 152.5t-39 49.5q-26 0 -69.5 -15t-77.5 -40l-16 21q67 72 149 118t146.5 61t126.5 15q19 0 37 -2t41 -7.5t42.5 -16.5t38.5 -27t32 -40.5t21.5 -56t7.5 -75.5t-12 -96l-98 -478q-17 -86 55 -86q29 0 77.5 27t72.5 55l24 -20q-28 -40 -53 -70 t-62 -63t-76 -54t-92.5 -35t-113.5 -14q-175 0 -234.5 99t-19.5 276zM272 1448q0 106 75 181t181 75t181 -75t75 -181t-75 -181t-181 -75t-181 75t-75 181z" />
<glyph unicode="j" horiz-adv-x="790" d="M113 45l114 623q21 104 18 153t-36 49q-26 0 -70 -15t-78 -40l-16 21q67 72 149 118t146.5 61t126.5 15q19 0 36.5 -2t40.5 -7.5t42.5 -16t38.5 -26.5t32 -40.5t21.5 -56t8 -76t-10.5 -96.5l-115 -594q-24 -126 -75 -232.5t-136 -203t-214 -175.5t-300 -139l-10 21 q110 101 176 258t111 401zM289 1448q0 106 75 181t181 75t181 -75t75 -181t-75 -181t-181 -75t-181 75t-75 181z" />
<glyph unicode="k" horiz-adv-x="1329" d="M55 0l242 1483q6 48 2.5 82.5t-43 54.5t-121.5 20l8 33h629l-178 -1095h68q32 0 58 4t46 11t35 19.5t25.5 25t17.5 32.5t11 37t6 44.5t2.5 48.5t0.5 54q0 86 53.5 131t126.5 45q53 0 99.5 -31t46.5 -86q0 -95 -120 -203t-279 -141q153 -22 224.5 -89t84.5 -175l6 -51 q4 -35 11.5 -64t24 -58.5t41 -48.5t63.5 -29.5t89 -6.5l4 -31q-59 -19 -139 -33t-131 -14q-75 0 -135 12.5t-111.5 41t-84 80.5t-42.5 126l-6 47q-3 24 -6 62.5t-5 63t-8 53.5t-15 46t-26 29.5t-42 12.5l-88 -543h-445z" />
<glyph unicode="l" horiz-adv-x="743" d="M88 1673h631l-227 -1442q-7 -42 4.5 -64t50.5 -22q29 0 77 27t72 55l25 -20q-35 -50 -69 -87t-83 -73.5t-112 -56t-138 -19.5q-117 0 -181 47t-76 130t4 198l176 1137q6 48 2.5 82.5t-43 54.5t-121.5 20z" />
<glyph unicode="m" horiz-adv-x="1953" d="M670 0l94 592q39 235 -10 235q-11 0 -23.5 -7t-29 -26t-34.5 -61.5t-34 -103.5l-101 -629h-444l107 668q20 104 17.5 153t-36.5 49q-25 0 -68 -15t-77 -40l-17 21q176 194 424 194q32 0 57.5 -5t57 -24.5t50.5 -52.5t28.5 -94.5t1.5 -144.5q91 321 344 321 q118 0 176.5 -77.5t60.5 -221.5q94 299 338 299q151 0 206 -121.5t20 -339.5l-56 -338q-10 -38 -1.5 -62t46.5 -24q29 0 76.5 27t71.5 55l24 -20q-35 -51 -67 -87.5t-77.5 -73.5t-103.5 -56t-126 -19q-126 0 -192.5 47t-78 130t5.5 198l39 246q14 87 17 139.5t-4.5 74 t-24.5 21.5q-10 0 -22 -6t-27.5 -22t-33 -51.5t-32.5 -85.5q-2 -31 -10 -93l-90 -569h-442z" />
<glyph unicode="n" horiz-adv-x="1376" d="M31 815l-17 21q176 194 424 194q32 0 57.5 -5t57 -24.5t50.5 -52.5t28.5 -94.5t1.5 -144.5q91 321 344 321q151 0 205.5 -121.5t19.5 -339.5l-55 -338q-10 -38 -1.5 -62t46.5 -24q29 0 76 27t71 55l25 -20q-35 -51 -67 -87.5t-78 -73t-104 -56t-126 -19.5 q-95 0 -156 26.5t-87.5 75.5t-31.5 118.5t11 154.5l39 246q39 235 -8 235q-72 0 -123 -198l-101 -629h-444l107 668q19 104 16.5 153t-35.5 49q-25 0 -68 -15t-77 -40z" />
<glyph unicode="o" horiz-adv-x="1214" d="M31 311q0 141 65.5 275.5t167.5 230.5t229.5 154.5t247.5 58.5q99 0 177.5 -20.5t127.5 -53t81 -78t44.5 -91.5t12.5 -97q0 -141 -65.5 -275.5t-168 -230.5t-230 -154.5t-247.5 -58.5q-125 0 -215 30t-137.5 81t-68.5 107.5t-21 121.5zM543 18q60 0 103 114.5t60 263 t17 304.5q0 279 -55 279q-59 0 -100.5 -115t-57.5 -263t-16 -304q0 -279 49 -279z" />
<glyph unicode="p" horiz-adv-x="1308" d="M18 -408l170 1076q19 104 17 153t-35 49q-25 0 -68 -15t-77 -40l-17 21q56 61 120.5 103t125 60t104 24.5t84.5 6.5q238 0 193 -336q62 172 148.5 254t211.5 82q66 0 117 -20t81.5 -52t50.5 -76t27 -86.5t7 -88.5q0 -118 -38.5 -230t-103.5 -199t-146.5 -153.5 t-173.5 -101.5t-179 -35q-63 0 -111 26l-67 -428q-11 -73 38 -113t160 -40l-6 -33h-815l4 33q37 0 64.5 4t46 15.5t29.5 22t18.5 33t11 37.5t8.5 47zM590 410l-4 -23q-15 -88 -20 -155t-1.5 -104t12.5 -60t18.5 -30t20.5 -7q50 0 98 125t75.5 284t27.5 277q0 129 -35 129 q-9 0 -21.5 -6.5t-35.5 -33.5t-45 -70.5t-46.5 -128.5t-43.5 -197z" />
<glyph unicode="q" horiz-adv-x="1296" d="M1235 1030l-258 -1444q-8 -47 -6 -81t36 -53t107 -19l-6 -33h-784l4 33q56 0 93.5 10t59.5 32.5t33 49t18 67.5l121 656q-59 -132 -145 -204.5t-195 -72.5q-65 0 -115.5 20.5t-81 52.5t-50.5 75.5t-27.5 86.5t-7.5 89q0 118 38.5 230t104 199t147.5 153.5t174 101.5 t179 35q84 0 131 -29l10 45h420zM526 156q10 0 25.5 8.5t40 37.5t47.5 74t46.5 127.5t39.5 188.5l14 98q19 114 14 176.5t-17 83.5t-29 21q-47 0 -89 -77t-68.5 -187.5t-42 -224.5t-15.5 -197q0 -129 34 -129z" />
<glyph unicode="r" horiz-adv-x="1071" d="M633 635q38 111 80 191.5t74 120.5t67.5 62.5t55 26.5t42.5 4q83 0 121.5 -44t38.5 -107q0 -75 -50 -132t-126 -57q-32 0 -71 7t-62 12t-51.5 1.5t-48.5 -21t-42 -60t-43 -111.5l-86 -528h-444l107 668q20 104 17.5 153t-36.5 49q-25 0 -68 -15t-77 -40l-17 21 q176 194 424 194q25 0 48.5 -6t52 -22t48.5 -43.5t37 -71.5t18 -106t-9 -146z" />
<glyph unicode="s" horiz-adv-x="978" d="M590 686l67 -57q115 -99 179 -187t67 -174q0 -148 -118.5 -222.5t-331.5 -74.5q-83 0 -155 11t-134.5 33.5t-98.5 64t-36 96.5q0 67 43 115.5t129 48.5q63 0 104.5 -34t59.5 -82t29.5 -96t26 -82t38.5 -34q32 0 60 34.5t28 90.5q0 49 -45.5 106.5t-145.5 143.5l-94 80 q-77 66 -119.5 144.5t-42.5 146.5q0 135 116.5 203.5t309.5 68.5q87 0 161 -8t136 -26t97.5 -49.5t35.5 -74.5q0 -15 -3 -33.5t-13 -42.5t-25 -42.5t-43 -31.5t-63 -13q-57 0 -101.5 28.5t-70.5 69t-45 81t-37 69t-35 28.5q-16 0 -28.5 -27t-12.5 -65q0 -112 111 -207z" />
<glyph unicode="t" horiz-adv-x="913" d="M664 985h280l-8 -53h-281l-108 -701q-19 -86 51 -86q42 0 104 27.5t101 54.5l24 -20q-65 -95 -188.5 -165.5t-257.5 -70.5q-126 0 -192.5 47t-77.5 130t8 198l106 586h-174l10 53h187l454 383h23z" />
<glyph unicode="u" horiz-adv-x="1382" d="M641 680l-47 -268q-42 -236 10 -236q72 0 123 199l92 598h445l-111 -742q-10 -38 -1.5 -62t46.5 -24q29 0 76.5 27t71.5 55l24 -20q-34 -50 -66.5 -87t-78.5 -73t-104 -55t-126 -19q-76 0 -128.5 14.5t-81 42t-43.5 67t-16 89.5t1 109q-92 -322 -344 -322 q-152 0 -210 123.5t-17 337.5l45 234q21 104 17 153t-38 49q-25 0 -67 -14.5t-76 -40.5l-17 21q176 194 418 194q19 0 36.5 -2.5t40 -8t41 -17.5t37.5 -29t31.5 -44t20.5 -61.5t7 -82.5t-11 -105z" />
<glyph unicode="v" horiz-adv-x="1114" d="M254 -70l-12 13q11 58 13.5 209t-5 316t-37 291t-76.5 126q-71 0 -125 -105l-32 17q22 63 55 108.5t64.5 69t73 37t69.5 16t65 2.5q342 0 342 -498q0 -156 -35 -364q67 53 108.5 93t83.5 106t60 141q19 81 -5 139t-75 115q-34 41 -42 88.5t8 87t57.5 66t99.5 26.5 q50 0 87.5 -19t57.5 -50.5t30 -66.5t10 -73q0 -123 -69 -261t-183 -258.5t-269 -220.5t-319 -151z" />
<glyph unicode="w" horiz-adv-x="1628" d="M215 -12l-137 854q-20 112 -98 112l12 37h641l-12 -37q-76 0 -101.5 -20t-19.5 -72l47 -452l248 415q-29 129 -131 129l12 37h680l-13 -37q-76 0 -101 -19.5t-19 -72.5l45 -440l125 205q81 132 101 207.5t-3 97.5t-78 22l12 37h347l-13 -37q-58 0 -127 -77t-192 -275 l-375 -614h-127l-125 762l-471 -762h-127z" />
<glyph unicode="x" horiz-adv-x="1128" d="M426 1032q66 0 114.5 -18.5t83 -59t57 -89t46.5 -124.5l107 121q151 168 229 168q61 0 61 -82q0 -53 -25.5 -117t-51.5 -92l-31 17q39 91 39 141q0 83 -92 -4q-26 -24 -105 -111l-106 -118l120 -355q3 -9 8 -24.5t8 -24.5t7.5 -22t8 -21t8 -17.5t9 -15t10 -11t12 -7.5 t13.5 -2q44 0 82 102l37 -16q-43 -153 -119 -216t-178 -63q-35 0 -58 2.5t-55 10.5t-56 26t-51 47.5t-50.5 76.5t-44.5 110l-25 69l-155 -174q-151 -168 -230 -168q-61 0 -61 82q0 53 26 117t52 92l30 -16q-39 -91 -39 -142q0 -83 92 4q26 24 105 111l154 172l-101 305 q-3 10 -8.5 26t-8.5 24.5t-7.5 21.5t-8 20.5t-8 16.5t-9 14t-10.5 10t-12.5 7t-13.5 2q-44 0 -82 -103l-37 17q25 132 116.5 206t203.5 74z" />
<glyph unicode="y" horiz-adv-x="1226" d="M950 528q13 60 8.5 95t-21.5 67.5t-35.5 55t-33 57t-14.5 74.5q0 65 48 109t130 44q80 0 122 -59t42 -150q0 -146 -166.5 -368t-431.5 -451q-53 -45 -152 -133.5t-163 -145t-157 -129.5t-163.5 -115.5t-151 -73t-147.5 -30.5q-116 0 -186 53t-70 136q0 73 45 117.5 t129 44.5q36 0 65.5 -24t48.5 -58.5t36 -69t38 -58.5t46 -24q63 0 192 91t293 247q16 141 18 317.5t-10 341t-48 276.5t-91 112q-73 0 -123 -97l-33 17q33 75 77.5 124.5t95 71.5t91 29.5t89.5 7.5q68 0 121.5 -13.5t101.5 -48.5t79.5 -92t50 -148t17.5 -212 q0 -123 -26 -326q69 73 103.5 112t78 105t57.5 121z" />
<glyph unicode="z" horiz-adv-x="1101" d="M1202 963l-770 -576h486l131 156h49l-303 -543h-934l-4 12l766 574h-392l-131 -156h-49l303 543h844z" />
<glyph unicode="{" horiz-adv-x="618" d="M20 483l5 37q77 10 137.5 55t96 111t53.5 140.5t18 150.5q0 41 -12.5 119t-12.5 118q0 89 24 161t74.5 127.5t134.5 85.5t197 30h60l-15 -92h-59q-307 0 -307 -291q0 -43 10 -127.5t10 -128.5q0 -314 -237 -477q120 -101 120 -281q0 -156 -94 -356q-65 -133 -65 -225 q0 -175 237 -175h60l-15 -92h-59q-332 0 -332 248q0 120 88 299q74 152 74 295q0 110 -46 182.5t-145 85.5z" />
<glyph unicode="|" horiz-adv-x="526" d="M86 0l256 1618h96l-256 -1618h-96z" />
<glyph unicode="}" horiz-adv-x="585" d="M598 520l-4 -37q-77 -10 -137.5 -57t-96 -115t-53.5 -144t-18 -153q0 -41 11 -119t11 -118q0 -187 -104.5 -295.5t-323.5 -108.5h-59l14 92h60q305 0 305 291q0 43 -10.5 127.5t-10.5 128.5q0 322 240 490q-123 103 -123 272q0 147 94 352q66 135 66 226q0 174 -238 174 h-59l14 92h60q170 0 250.5 -67t80.5 -185q0 -119 -88 -295q-73 -146 -73 -291q0 -107 46.5 -177t145.5 -83z" />
<glyph unicode="~" horiz-adv-x="1329" d="M387 653q57 0 119.5 -21t118 -50.5t109.5 -59t111.5 -50.5t106.5 -21q63 0 116.5 37.5t105.5 127.5l83 -34q-56 -117 -139 -172.5t-178 -55.5q-71 0 -153.5 31.5t-144.5 69t-136.5 69t-132.5 31.5q-63 0 -116 -38t-105 -130l-82 39q53 114 137.5 170.5t179.5 56.5z" />
<glyph unicode="&#xa1;" horiz-adv-x="634" d="M504 37q-89 -47 -258 -47q-179 0 -275 47q33 159 78 290t91 224.5t92 178.5t91.5 192t77.5 225h25q-7 -119 2 -235t25 -201t31.5 -194.5t22.5 -215.5t-3 -264zM715 1475q0 -106 -75 -181t-181 -75t-181 75t-75 181t75 181t181 75t181 -75t75 -181z" />
<glyph unicode="&#xa2;" horiz-adv-x="1038" d="M922 387l32 -14q-141 -297 -383 -373l-32 -211h-74l31 191q-74 -9 -99 -9q-169 0 -267.5 91t-98.5 268q0 88 28.5 182t84.5 181.5t131 159.5t176.5 119t212.5 56l30 195h74l-31 -193q55 -2 104.5 -13.5t94.5 -34t71.5 -61.5t26.5 -90q0 -70 -39 -115.5t-112 -45.5 q-39 0 -68 13t-44 30.5t-25.5 47.5t-13.5 52.5t-6.5 57t-6.5 49.5l-121 -760h8q78 0 160.5 54.5t155.5 172.5zM483 354q0 -110 45 -161l127 786q-38 -20 -78.5 -126t-67 -246t-26.5 -253z" />
<glyph unicode="&#xa3;" horiz-adv-x="1316" d="M113 872l10 58h162q7 95 20 172q17 103 45.5 187.5t79 163t119 132t169.5 85.5t226 32q162 0 271.5 -66.5t109.5 -167.5q0 -72 -47 -129t-135 -57q-87 0 -133.5 47t-46.5 127q0 22 5 55t9.5 57.5t5 48t-9 36t-31.5 12.5q-30 0 -55 -18t-42.5 -51.5t-31 -73.5t-22 -92.5 t-14.5 -99t-9 -102.5t-4 -94.5t-2 -83t-2 -59.5q-2 -23 -2 -61h368l-10 -58h-362q-2 -8 -2 -20q-12 -75 -31.5 -137.5t-41 -111t-56.5 -96t-66 -81.5t-83 -79.5t-93.5 -78.5t-110.5 -88.5t-123 -101.5q195 141 314.5 213t191 95.5t148.5 23.5q62 0 106.5 -20t67.5 -49 t40.5 -57.5t37 -48.5t45.5 -20q47 0 114 72l17 -13q-166 -303 -400 -303q-57 0 -114.5 15.5t-98 34t-96.5 34t-110 15.5q-45 0 -108 -20.5t-137.5 -41t-146.5 -20.5q-79 0 -159 16l8 21q67 -13 124.5 15.5t98.5 84t74.5 137t54 163.5t35.5 175q16 109 27 272h-168z" />
<glyph unicode="&#xa5;" horiz-adv-x="1679" d="M993 844l316 493q52 81 75.5 138t23.5 88t-22 48t-48 21t-68 4l6 37h541l-7 -37q-31 0 -50.5 -1.5t-51 -8t-56 -18.5t-58.5 -35.5t-66.5 -57.5t-72.5 -85t-83 -117l-334 -516l-2 -13h287l-10 -69h-289l-35 -223h289l-12 -70h-287l-37 -229q-9 -54 -4 -89.5t42.5 -53 t119.5 -17.5l-4 -33h-828l4 33q62 0 101 9t61 31.5t31.5 49.5t17.5 74l35 225h-285l13 70h284l33 210l-2 13h-280l10 69h248l-228 740q-50 112 -196 112l6 37h842l-7 -37q-86 0 -121 -31.5t-12 -117.5z" />
<glyph unicode="&#xa6;" horiz-adv-x="526" d="M248 721l141 897h96l-141 -897h-96zM39 -598l141 897h96l-141 -897h-96z" />
<glyph unicode="&#xa7;" horiz-adv-x="1241" d="M410 -602q-49 0 -107.5 7t-129.5 26t-127.5 48t-95 79t-38.5 112q0 71 46.5 122.5t129.5 51.5q56 0 93.5 -17t55.5 -48t25 -62.5t8 -72.5q2 -94 8 -119q18 -76 103 -83q9 -1 20 -1q108 0 171 75t63 191q0 157 -168 242l-129 65q-305 152 -305 383q0 152 118 256.5 t343 151.5l-39 20q-121 61 -194 174.5t-73 247.5q0 108 47 196.5t127 145t184 87t220 30.5q120 0 220.5 -24t165.5 -75t65 -122q0 -65 -40.5 -112.5t-111.5 -47.5q-160 0 -180 182q-3 33 -5.5 48t-10 40.5t-19.5 37t-34 21t-54 9.5q-75 0 -120.5 -69t-45.5 -160 q0 -101 48.5 -162t148.5 -107l73 -35q334 -156 334 -382q0 -79 -36.5 -150t-101.5 -125t-146 -95t-177 -69q344 -188 344 -415q0 -220 -187 -358t-486 -138zM805 532q0 69 -47.5 117.5t-155.5 102.5l-90 45q-70 -92 -70 -215q0 -64 29 -108t94 -77l135 -67q14 -9 21 -11 q44 63 64 110.5t20 102.5z" />
<glyph unicode="&#xa8;" horiz-adv-x="1085" d="M588 1368q0 91 64 155t155 64q89 0 153 -64t64 -155q0 -89 -64 -153t-153 -64q-91 0 -155 64t-64 153zM61 1368q0 91 64.5 155t155.5 64q89 0 153 -64t64 -155q0 -89 -64 -153t-153 -64q-91 0 -155.5 64t-64.5 153z" />
<glyph unicode="&#xa9;" horiz-adv-x="1812" d="M92 784q0 222 109 409.5t296 296.5t408 109q166 0 317 -64.5t260 -173.5t173.5 -260t64.5 -317q0 -221 -109 -408t-296.5 -296t-409.5 -109q-221 0 -408 109t-296 296t-109 408zM182 784q0 -149 57 -284.5t153 -233.5t230.5 -156.5t282.5 -58.5q149 0 283.5 58 t230.5 156.5t152.5 234t56.5 284.5q0 200 -95.5 369.5t-262 268t-365.5 98.5q-148 0 -282.5 -58.5t-230.5 -157t-153 -234.5t-57 -286zM1305 899h-35q-20 91 -60.5 167.5t-88 122.5t-95 71.5t-86.5 25.5q-107 0 -154 -122.5t-47 -366.5q0 -116 9.5 -197.5t32 -146t65 -96 t104.5 -31.5q37 0 83 23t93 67t87 120.5t59 170.5h35v-332q-145 -82 -375 -82q-135 0 -241 42t-170 114t-97 161.5t-33 190.5q0 234 148.5 375t384.5 141q82 0 191.5 -20t191.5 -60z" />
<glyph unicode="&#xab;" horiz-adv-x="1007" d="M500 70l-471 430l606 432h24l-251 -434l114 -428h-22zM885 70l-430 430l565 432h24l-251 -434l114 -428h-22z" />
<glyph unicode="&#xac;" horiz-adv-x="1175" d="M98 438l15 97h970l-14 -97h-2l-68 -436h-104l68 436h-865z" />
<glyph unicode="&#xad;" horiz-adv-x="786" d="M84 471l14 96h602l-14 -96h-602z" />
<glyph unicode="&#xae;" horiz-adv-x="1812" d="M92 784q0 222 109 409.5t296 296.5t408 109q166 0 317 -64.5t260 -173.5t173.5 -260t64.5 -317q0 -221 -109 -408t-296.5 -296t-409.5 -109q-221 0 -408 109t-296 296t-109 408zM182 784q0 -149 57 -284.5t153 -233.5t230.5 -156.5t282.5 -58.5q149 0 283.5 58 t230.5 156.5t152.5 234t56.5 284.5q0 200 -95.5 369.5t-262 268t-365.5 98.5q-148 0 -282.5 -58.5t-230.5 -157t-153 -234.5t-57 -286zM469 1278h414q96 0 164.5 -9t128 -31.5t90 -68t30.5 -112.5q0 -100 -105 -166.5t-263 -77.5q126 -3 219.5 -52.5t122.5 -152.5l6 -22 q5 -20 13 -49t11.5 -42t9.5 -33t10 -28t10 -21t13 -18t15.5 -12.5t19.5 -10.5t24.5 -6.5t31.5 -5.5v-20q-88 -18 -185 -18q-124 0 -190.5 63t-97.5 188l-15 56q-23 88 -39 125.5t-37 40.5v-334q0 -50 19.5 -70t85.5 -20v-33h-506v33q66 0 85 20t19 70v696q0 49 -19 67.5 t-85 18.5v35zM870 1255v-440q119 13 119 221q0 110 -33 163.5t-86 55.5z" />
<glyph unicode="&#xaf;" horiz-adv-x="827" d="M53 1288l15 96h704l-14 -96h-705z" />
<glyph unicode="&#xb0;" horiz-adv-x="688" d="M51 1315q0 121 85.5 206t207.5 85t207.5 -85t85.5 -206t-85.5 -206t-207.5 -85t-207.5 85t-85.5 206zM154 1315q0 -80 52.5 -138.5t137.5 -58.5q87 0 139 56.5t52 140.5q0 86 -54.5 141t-136.5 55q-75 0 -132.5 -55t-57.5 -141z" />
<glyph unicode="&#xb1;" horiz-adv-x="1114" d="M580 973h104l-57 -344h434l-14 -97h-435l-57 -354h-104l57 354h-432l14 97h432zM-8 0l14 96h971l-14 -96h-971z" />
<glyph unicode="&#xb4;" horiz-adv-x="538" d="M514 1597l-481 -479h-10l75 479h416z" />
<glyph unicode="&#xb6;" horiz-adv-x="1126" d="M1153 1581h-172l-283 -1821h-96l283 1821h-158l-283 -1821h-96l168 1100q-186 0 -297.5 112t-83.5 294q10 60 32.5 114.5t68 109.5t107.5 94.5t157 64t211 24.5h456z" />
<glyph unicode="&#xb7;" horiz-adv-x="573" d="M31 512q0 106 75 181t181 75t181 -75t75 -181t-75 -181t-181 -75t-181 75t-75 181z" />
<glyph unicode="&#xb8;" horiz-adv-x="530" d="M274 -8h62l-133 -158q66 49 143 49q55 0 90 -31t35 -83q0 -53 -32 -100t-82 -79.5t-110.5 -56t-118.5 -34.5t-105 -11v8q104 27 183 100t79 150q0 30 -17 44.5t-41 14.5q-25 0 -43 -14l-43 39z" />
<glyph unicode="&#xbb;" horiz-adv-x="1007" d="M975 500l-606 -430h-23l254 432l-117 430h25zM549 500l-563 -430h-23l252 436l-117 426h25z" />
<glyph unicode="&#xbf;" horiz-adv-x="978" d="M567 -29q-207 0 -320.5 70t-113.5 188q0 54 20 108.5t54 102.5t77.5 96.5t92 95t97 94t92 97.5t77.5 101t54 109.5t20 117.5l16 12q131 -38 193.5 -87.5t62.5 -133.5q0 -54 -25.5 -111.5t-66.5 -110.5t-90.5 -109t-99.5 -115t-91 -119.5t-66.5 -132.5t-25.5 -144 q0 -90 54 -90q21 0 35 9t21 28t11 37.5t9 49.5t10 52q19 78 71 132.5t131 54.5q44 0 76.5 -15t49 -39t24.5 -47.5t8 -46.5q0 -63 -39.5 -113t-105.5 -80t-146 -45.5t-166 -15.5zM1038 1454q0 -106 -75 -181t-181 -75t-181 75t-75 181t75 181t181 75t181 -75t75 -181z" />
<glyph unicode="&#xc0;" horiz-adv-x="1601" d="M866 213l-55 283h-473l-53 -111q-91 -187 -78 -267.5t137 -80.5l-6 -37h-483l6 37q93 0 176 79.5t172 266.5l622 1290h211l318 -1487q18 -83 65 -116t136 -33l-7 -37h-876l6 37q26 0 45.5 1t40 4t35.5 9t28.5 15t21.5 22t13 30.5t4.5 41.5t-6.5 53zM674 1194l-277 -573 h389zM961 1745l-330 479h416l-76 -479h-10z" />
<glyph unicode="&#xc1;" horiz-adv-x="1601" d="M866 213l-55 283h-473l-53 -111q-91 -187 -78 -267.5t137 -80.5l-6 -37h-483l6 37q93 0 176 79.5t172 266.5l622 1290h211l318 -1487q18 -83 65 -116t136 -33l-7 -37h-876l6 37q26 0 45.5 1t40 4t35.5 9t28.5 15t21.5 22t13 30.5t4.5 41.5t-6.5 53zM674 1194l-277 -573 h389zM1251 2224l-481 -479h-10l76 479h415z" />
<glyph unicode="&#xc2;" horiz-adv-x="1601" d="M866 213l-55 283h-473l-53 -111q-91 -187 -78 -267.5t137 -80.5l-6 -37h-483l6 37q93 0 176 79.5t172 266.5l622 1290h211l318 -1487q18 -83 65 -116t136 -33l-7 -37h-876l6 37q26 0 45.5 1t40 4t35.5 9t28.5 15t21.5 22t13 30.5t4.5 41.5t-6.5 53zM938 1939l-451 -221 l-6 6l510 551l334 -551l-6 -8zM674 1194l-277 -573h389z" />
<glyph unicode="&#xc3;" horiz-adv-x="1601" d="M866 213l-55 283h-473l-53 -111q-91 -187 -78 -267.5t137 -80.5l-6 -37h-483l6 37q93 0 176 79.5t172 266.5l622 1290h211l318 -1487q18 -83 65 -116t136 -33l-7 -37h-876l6 37q26 0 45.5 1t40 4t35.5 9t28.5 15t21.5 22t13 30.5t4.5 41.5t-6.5 53zM1272 2173l158 111 l6 -3l-164 -421h-549l-160 -111l-4 2l164 422h549zM674 1194l-277 -573h389z" />
<glyph unicode="&#xc4;" horiz-adv-x="1601" d="M866 213l-55 283h-473l-53 -111q-91 -187 -78 -267.5t137 -80.5l-6 -37h-483l6 37q93 0 176 79.5t172 266.5l622 1290h211l318 -1487q18 -83 65 -116t136 -33l-7 -37h-876l6 37q26 0 45.5 1t40 4t35.5 9t28.5 15t21.5 22t13 30.5t4.5 41.5t-6.5 53zM989 1991q0 91 64 155 t155 64q89 0 153 -64t64 -155q0 -89 -64 -153t-153 -64q-91 0 -155 64t-64 153zM463 1991q0 91 64 155t155 64q89 0 153 -64t64 -155q0 -89 -64 -153t-153 -64q-91 0 -155 64t-64 153zM674 1194l-277 -573h389z" />
<glyph unicode="&#xc5;" horiz-adv-x="1601" d="M866 213l-55 283h-473l-53 -111q-91 -187 -78 -267.5t137 -80.5l-6 -37h-483l6 37q93 0 176 79.5t172 266.5l622 1290h211l318 -1487q18 -83 65 -116t136 -33l-7 -37h-876l6 37q26 0 45.5 1t40 4t35.5 9t28.5 15t21.5 22t13 30.5t4.5 41.5t-6.5 53zM1155 1976 q0 -84 -61 -142t-148 -58t-148 58t-61 142t61 142.5t148 58.5t148 -58.5t61 -142.5zM674 1194l-277 -573h389zM1077 1976q0 58 -38.5 95.5t-92.5 37.5q-56 0 -92.5 -38.5t-36.5 -94.5t36.5 -94.5t92.5 -38.5q60 0 95.5 38t35.5 95z" />
<glyph unicode="&#xc6;" horiz-adv-x="2492" d="M2187 1237l-116 -739h-23q0 346 -283 346l-106 -668q-11 -73 14.5 -100t112.5 -27h51q73 0 136.5 17t110.5 43.5t88.5 68t69.5 81.5t54 94t41.5 96t32.5 96h24l-86 -545h-1317l4 33q62 0 100 9t60 32t31.5 50.5t17.5 76.5l99 622h-445l-422 -475q-57 -64 -89.5 -109.5 t-45.5 -85.5t5 -64.5t69.5 -38t140.5 -13.5l-6 -37h-651l6 37q100 8 170.5 43.5t162 122t275.5 291.5l940 1050q-2 52 -37 74t-127 22l4 33h1246l-84 -532h-25q-1 53 -3.5 93t-12 93t-25.5 92.5t-46 80.5t-71.5 67t-103.5 42.5t-139 16.5h-101l-114 -735q282 0 391 346h22z M915 889h398l88 545z" />
<glyph unicode="&#xc7;" horiz-adv-x="1613" d="M862 20q45 0 98 15.5t119.5 56t129 100.5t126.5 159t113 222h25l-80 -540q-217 -58 -516 -62l-115 -137q66 49 143 49q55 0 90 -31t35 -83q0 -53 -32 -100t-82 -79.5t-110.5 -56t-118.5 -34.5t-105 -11v8q104 27 183 100t79 150q0 30 -17 44.5t-41 14.5q-26 0 -43 -14 l-43 39l117 143q-330 12 -532.5 223t-202.5 556q0 280 114 498t324 340t484 122q126 0 284 -26.5t309 -94.5l-75 -508h-25q-17 120 -57 220.5t-89.5 165t-106.5 110t-108 65t-94 19.5q-86 0 -165 -74t-136 -195.5t-100 -274.5t-64.5 -315t-21.5 -312q0 -236 78.5 -354 t228.5 -118z" />
<glyph unicode="&#xc8;" horiz-adv-x="1507" d="M1186 1237l-117 -739h-22q0 161 -86.5 253.5t-237.5 92.5l-107 -668q-11 -73 14.5 -100t112.5 -27q92 0 170.5 18.5t135.5 46.5t106 73.5t80 87t60 99.5t44 99.5t33 97.5h25l-90 -571h-1358l4 33q62 0 100 9t60 32t31.5 50.5t17.5 76.5l200 1261q11 63 6 102.5t-42 57.5 t-119 18l4 33h1296l-80 -579h-24q-1 52 -4.5 95t-17 100.5t-36.5 101.5t-65 90t-99 76.5t-142.5 49.5t-192.5 19l-115 -735q151 0 266 92.5t166 253.5h23zM977 1745l-330 479h416l-76 -479h-10z" />
<glyph unicode="&#xc9;" horiz-adv-x="1507" d="M1186 1237l-117 -739h-22q0 161 -86.5 253.5t-237.5 92.5l-107 -668q-11 -73 14.5 -100t112.5 -27q92 0 170.5 18.5t135.5 46.5t106 73.5t80 87t60 99.5t44 99.5t33 97.5h25l-90 -571h-1358l4 33q62 0 100 9t60 32t31.5 50.5t17.5 76.5l200 1261q11 63 6 102.5t-42 57.5 t-119 18l4 33h1296l-80 -579h-24q-1 52 -4.5 95t-17 100.5t-36.5 101.5t-65 90t-99 76.5t-142.5 49.5t-192.5 19l-115 -735q151 0 266 92.5t166 253.5h23zM1327 2224l-481 -479h-10l75 479h416z" />
<glyph unicode="&#xca;" horiz-adv-x="1507" d="M1186 1237l-117 -739h-22q0 161 -86.5 253.5t-237.5 92.5l-107 -668q-11 -73 14.5 -100t112.5 -27q92 0 170.5 18.5t135.5 46.5t106 73.5t80 87t60 99.5t44 99.5t33 97.5h25l-90 -571h-1358l4 33q62 0 100 9t60 32t31.5 50.5t17.5 76.5l200 1261q11 63 6 102.5t-42 57.5 t-119 18l4 33h1296l-80 -579h-24q-1 52 -4.5 95t-17 100.5t-36.5 101.5t-65 90t-99 76.5t-142.5 49.5t-192.5 19l-115 -735q151 0 266 92.5t166 253.5h23zM952 1939l-450 -221l-6 6l510 551l333 -551l-6 -8z" />
<glyph unicode="&#xcb;" horiz-adv-x="1507" d="M1071 1993q0 91 64 155t155 64q89 0 153 -64t64 -155q0 -89 -64 -153t-153 -64q-91 0 -155 64t-64 153zM360 1993q0 91 64.5 155t155.5 64q89 0 153 -64t64 -155q0 -89 -64 -153t-153 -64q-91 0 -155.5 64t-64.5 153zM1186 1237l-117 -739h-22q0 161 -86.5 253.5 t-237.5 92.5l-107 -668q-11 -73 14.5 -100t112.5 -27q92 0 170.5 18.5t135.5 46.5t106 73.5t80 87t60 99.5t44 99.5t33 97.5h25l-90 -571h-1358l4 33q62 0 100 9t60 32t31.5 50.5t17.5 76.5l200 1261q11 63 6 102.5t-42 57.5t-119 18l4 33h1296l-80 -579h-24q-1 52 -4.5 95 t-17 100.5t-36.5 101.5t-65 90t-99 76.5t-142.5 49.5t-192.5 19l-115 -735q151 0 266 92.5t166 253.5h23z" />
<glyph unicode="&#xcc;" horiz-adv-x="956" d="M162 197l203 1284q8 54 3.5 89.5t-42 52.5t-119.5 17l4 33h827l-4 -33q-62 0 -101.5 -9t-61.5 -30.5t-31.5 -47.5t-16.5 -70l-202 -1290q-8 -54 -3.5 -89.5t41.5 -53t119 -17.5l-4 -33h-825l4 33q62 0 100 9t60 31.5t31.5 49.5t17.5 74zM743 1737l-329 479h415l-75 -479 h-11z" />
<glyph unicode="&#xcd;" horiz-adv-x="956" d="M162 197l203 1284q8 54 3.5 89.5t-42 52.5t-119.5 17l4 33h827l-4 -33q-62 0 -101.5 -9t-61.5 -30.5t-31.5 -47.5t-16.5 -70l-202 -1290q-8 -54 -3.5 -89.5t41.5 -53t119 -17.5l-4 -33h-825l4 33q62 0 100 9t60 31.5t31.5 49.5t17.5 74zM989 2224l-481 -479h-10l75 479 h416z" />
<glyph unicode="&#xce;" horiz-adv-x="956" d="M162 197l203 1284q8 54 3.5 89.5t-42 52.5t-119.5 17l4 33h827l-4 -33q-62 0 -101.5 -9t-61.5 -30.5t-31.5 -47.5t-16.5 -70l-202 -1290q-8 -54 -3.5 -89.5t41.5 -53t119 -17.5l-4 -33h-825l4 33q62 0 100 9t60 31.5t31.5 49.5t17.5 74zM655 1939l-450 -221l-6 6l510 551 l333 -551l-6 -8z" />
<glyph unicode="&#xcf;" horiz-adv-x="956" d="M162 197l203 1284q8 54 3.5 89.5t-42 52.5t-119.5 17l4 33h827l-4 -33q-62 0 -101.5 -9t-61.5 -30.5t-31.5 -47.5t-16.5 -70l-202 -1290q-8 -54 -3.5 -89.5t41.5 -53t119 -17.5l-4 -33h-825l4 33q62 0 100 9t60 31.5t31.5 49.5t17.5 74zM729 1991q0 91 64 155t155 64 q89 0 153 -64t64 -155q0 -89 -64 -153t-153 -64q-91 0 -155 64t-64 153zM203 1991q0 91 64 155t155 64q89 0 153 -64t64 -155q0 -89 -64 -153t-153 -64q-91 0 -155 64t-64 153z" />
<glyph unicode="&#xd0;" horiz-adv-x="1736" d="M6 819l12 76h242l88 561q11 66 6.5 107t-40.5 59t-119 18l4 33h665q206 0 369 -51.5t268.5 -145t161 -222t55.5 -283.5q0 -279 -121.5 -500t-345 -346t-510.5 -125h-804l4 33q61 0 100 9t61 31t31.5 48.5t16.5 71.5l98 626h-242zM834 1626l-115 -731h250l-13 -76h-249 l-97 -606q-16 -98 22.5 -133t129.5 -35q93 0 182 84.5t154 224t105 329.5t40 390q0 140 -34 249t-92 173.5t-129.5 97.5t-153.5 33z" />
<glyph unicode="&#xd1;" horiz-adv-x="1722" d="M1538 1243l-197 -1245h-243l-690 1309l-138 -875q-33 -213 11 -306t188 -93l-4 -33h-600l4 33q145 0 222 94.5t110 302.5l155 981q-108 229 -188 229l4 33h586l610 -1091l100 659q33 213 -10.5 306t-187.5 93l4 33h602l-4 -33q-147 0 -224 -94.5t-110 -302.5zM1477 2173 l157 111l6 -3l-163 -421h-754l-160 -111l-4 2l164 422h754z" />
<glyph unicode="&#xd2;" horiz-adv-x="1882" d="M555 492q1 -234 76.5 -353t210.5 -119q87 0 166 74t135.5 195.5t98.5 274.5t62.5 313.5t20.5 308.5q0 235 -75 356t-208 121q-86 0 -165 -74t-136 -195.5t-100 -274.5t-64.5 -315t-21.5 -312zM82 752q0 209 66 388t183 304.5t284 196.5t362 71q385 0 604 -208.5 t219 -561.5q0 -281 -112.5 -502t-316.5 -345t-464 -124q-380 0 -602.5 211.5t-222.5 569.5zM1124 1745l-329 479h415l-75 -479h-11z" />
<glyph unicode="&#xd3;" horiz-adv-x="1882" d="M555 492q1 -234 76.5 -353t210.5 -119q87 0 166 74t135.5 195.5t98.5 274.5t62.5 313.5t20.5 308.5q0 235 -75 356t-208 121q-86 0 -165 -74t-136 -195.5t-100 -274.5t-64.5 -315t-21.5 -312zM82 752q0 209 66 388t183 304.5t284 196.5t362 71q385 0 604 -208.5 t219 -561.5q0 -281 -112.5 -502t-316.5 -345t-464 -124q-380 0 -602.5 211.5t-222.5 569.5zM1452 2224l-481 -479h-10l75 479h416z" />
<glyph unicode="&#xd4;" horiz-adv-x="1882" d="M555 492q1 -234 76.5 -353t210.5 -119q87 0 166 74t135.5 195.5t98.5 274.5t62.5 313.5t20.5 308.5q0 235 -75 356t-208 121q-86 0 -165 -74t-136 -195.5t-100 -274.5t-64.5 -315t-21.5 -312zM82 752q0 209 66 388t183 304.5t284 196.5t362 71q385 0 604 -208.5 t219 -561.5q0 -281 -112.5 -502t-316.5 -345t-464 -124q-380 0 -602.5 211.5t-222.5 569.5zM1098 1939l-451 -221l-6 6l510 551l334 -551l-6 -8z" />
<glyph unicode="&#xd5;" horiz-adv-x="1882" d="M1518 2173l157 111l6 -3l-163 -421h-754l-160 -111l-4 2l164 422h754zM555 492q1 -234 76.5 -353t210.5 -119q87 0 166 74t135.5 195.5t98.5 274.5t62.5 313.5t20.5 308.5q0 235 -75 356t-208 121q-86 0 -165 -74t-136 -195.5t-100 -274.5t-64.5 -315t-21.5 -312zM82 752 q0 209 66 388t183 304.5t284 196.5t362 71q385 0 604 -208.5t219 -561.5q0 -281 -112.5 -502t-316.5 -345t-464 -124q-380 0 -602.5 211.5t-222.5 569.5z" />
<glyph unicode="&#xd6;" horiz-adv-x="1882" d="M1311 1993q0 91 64 155t155 64q89 0 153 -64t64 -155q0 -89 -64 -153t-153 -64q-91 0 -155 64t-64 153zM600 1993q0 91 64 155t155 64q89 0 153 -64t64 -155q0 -89 -64 -153t-153 -64q-91 0 -155 64t-64 153zM555 492q1 -234 76.5 -353t210.5 -119q87 0 166 74 t135.5 195.5t98.5 274.5t62.5 313.5t20.5 308.5q0 235 -75 356t-208 121q-86 0 -165 -74t-136 -195.5t-100 -274.5t-64.5 -315t-21.5 -312zM82 752q0 209 66 388t183 304.5t284 196.5t362 71q385 0 604 -208.5t219 -561.5q0 -281 -112.5 -502t-316.5 -345t-464 -124 q-380 0 -602.5 211.5t-222.5 569.5z" />
<glyph unicode="&#xd7;" horiz-adv-x="1069" d="M975 965l59 -72l-432 -373l313 -373l-79 -67l-314 371l-428 -371l-57 72l426 370l-313 375l79 70l314 -377z" />
<glyph unicode="&#xd8;" horiz-adv-x="1857" d="M72 752q0 281 107.5 498.5t307 339.5t459.5 122q365 0 576 -192l180 184h119l-240 -246q168 -198 168 -516q0 -211 -62.5 -390.5t-175 -307.5t-276 -200.5t-358.5 -72.5q-350 0 -564 183l-149 -154h-115l207 213q-184 202 -184 539zM1012 1663q-106 0 -196 -110 t-147.5 -282t-89.5 -371.5t-34 -389.5l727 752q-18 401 -260 401zM811 20q85 0 159.5 70t127.5 185t92.5 262t60 301t23.5 303l-727 -746q27 -375 264 -375z" />
<glyph unicode="&#xd9;" horiz-adv-x="1771" d="M1561 1202l-88 -551q-53 -338 -218.5 -509t-484.5 -171q-295 0 -447.5 131.5t-152.5 376.5q0 73 12 152l131 827q11 65 6 105.5t-41.5 58.5t-119.5 18l4 33h827l-4 -33q-63 0 -101.5 -9t-61 -33.5t-32.5 -54.5t-18 -85l-135 -844q-77 -493 281 -493q206 0 324 133 t161 401l86 545q34 219 -9 329.5t-184 110.5l4 33h605l-4 -33q-144 0 -225 -112t-115 -326zM1171 1745l-329 479h415l-75 -479h-11z" />
<glyph unicode="&#xda;" horiz-adv-x="1771" d="M1561 1202l-88 -551q-53 -338 -218.5 -509t-484.5 -171q-295 0 -447.5 131.5t-152.5 376.5q0 73 12 152l131 827q11 65 6 105.5t-41.5 58.5t-119.5 18l4 33h827l-4 -33q-63 0 -101.5 -9t-61 -33.5t-32.5 -54.5t-18 -85l-135 -844q-77 -493 281 -493q206 0 324 133 t161 401l86 545q34 219 -9 329.5t-184 110.5l4 33h605l-4 -33q-144 0 -225 -112t-115 -326zM1499 2224l-481 -479h-10l75 479h416z" />
<glyph unicode="&#xdb;" horiz-adv-x="1771" d="M1561 1202l-88 -551q-53 -338 -218.5 -509t-484.5 -171q-295 0 -447.5 131.5t-152.5 376.5q0 73 12 152l131 827q11 65 6 105.5t-41.5 58.5t-119.5 18l4 33h827l-4 -33q-63 0 -101.5 -9t-61 -33.5t-32.5 -54.5t-18 -85l-135 -844q-77 -493 281 -493q206 0 324 133 t161 401l86 545q34 219 -9 329.5t-184 110.5l4 33h605l-4 -33q-144 0 -225 -112t-115 -326zM1186 1939l-451 -221l-6 6l510 551l334 -551l-6 -8z" />
<glyph unicode="&#xdc;" horiz-adv-x="1771" d="M1270 1993q0 91 64 155t155 64q89 0 153 -64t64 -155q0 -89 -64 -153t-153 -64q-91 0 -155 64t-64 153zM559 1993q0 91 64 155t155 64q89 0 153 -64t64 -155q0 -89 -64 -153t-153 -64q-91 0 -155 64t-64 153zM1561 1202l-88 -551q-53 -338 -218.5 -509t-484.5 -171 q-295 0 -447.5 131.5t-152.5 376.5q0 73 12 152l131 827q11 65 6 105.5t-41.5 58.5t-119.5 18l4 33h827l-4 -33q-63 0 -101.5 -9t-61 -33.5t-32.5 -54.5t-18 -85l-135 -844q-77 -493 281 -493q206 0 324 133t161 401l86 545q34 219 -9 329.5t-184 110.5l4 33h605l-4 -33 q-144 0 -225 -112t-115 -326z" />
<glyph unicode="&#xdd;" horiz-adv-x="1679" d="M993 844l336 493q54 79 78 136t23.5 88t-23 48.5t-49 22t-68.5 4.5l6 37h541l-6 -37q-43 0 -71 -3.5t-72 -21t-84 -50.5t-95 -95.5t-116 -152.5l-357 -527l-94 -593q-9 -54 -4 -89.5t42.5 -53t119.5 -17.5l-4 -33h-828l4 33q62 0 101 9t61 31.5t31.5 49.5t17.5 74l80 508 l-252 819q-50 112 -196 112l6 37h842l-7 -37q-86 0 -121 -31.5t-12 -117.5zM1495 2224l-481 -479h-10l75 479h416z" />
<glyph unicode="&#xde;" horiz-adv-x="1513" d="M1022 1673l-4 -33q-62 0 -101.5 -9t-62 -30.5t-32.5 -47.5t-17 -70l-23 -144q120 0 222.5 -12t197 -41.5t160 -74.5t104.5 -115.5t39 -161.5q0 -114 -38 -207t-102.5 -154.5t-153 -103t-185.5 -60t-203 -18.5q-105 0 -188 12l-33 -206q-9 -56 -3.5 -92.5t47.5 -54 t134 -17.5l-4 -33h-846l4 33q50 0 84 6.5t56 18t35.5 34t20.5 46t13 61.5l203 1284q8 53 3.5 88t-42 52t-119.5 17l5 33h829zM1032 967q0 152 -74 238.5t-184 88.5l-135 -866q99 -3 189.5 68t147 197.5t56.5 273.5z" />
<glyph unicode="&#xdf;" horiz-adv-x="1521" d="M670 1178l-191 -1186q-22 -139 -75.5 -249.5t-120.5 -178t-148.5 -111.5t-156 -61t-148.5 -17q-62 0 -123.5 12.5t-120 37.5t-95 71.5t-36.5 106.5q0 59 35.5 99t112.5 40q54 0 91.5 -24.5t55 -60.5t30 -79t18.5 -79t19 -60.5t33 -24.5q52 0 90.5 114t77.5 357l199 1245 q43 268 210.5 415t463.5 147q120 0 223 -26t166 -74t63 -107q0 -51 -24.5 -91.5t-63.5 -66.5t-86.5 -48t-95 -40.5t-86.5 -38t-63.5 -46.5t-24.5 -60q0 -37 35 -79.5t76 -72t98.5 -68.5t77.5 -55l61 -49q234 -188 234 -383q0 -49 -12 -97t-37 -95t-66.5 -87t-96.5 -71 t-132 -48.5t-168 -17.5q-161 0 -271 67.5t-110 170.5q0 71 40.5 117.5t119.5 46.5q40 0 69.5 -13.5t45 -36t25 -52.5t10 -62.5t-0.5 -65.5q-8 -135 49 -135q47 0 87 56.5t40 136.5q0 125 -164 241l-28 21q-189 139 -189 325q0 195 158 377q129 144 129 344q0 61 -24.5 97 t-75.5 36q-71 0 -119 -103t-90 -361z" />
<glyph unicode="&#xe0;" d="M1223 1030l-148 -799q-19 -88 19 -88q24 0 64.5 20t84.5 66l25 -16q-62 -103 -157 -172.5t-224 -69.5q-121 0 -183.5 75.5t-56.5 191.5q-122 -267 -323 -267q-69 0 -122.5 20.5t-85 52t-51.5 76t-27 86.5t-7 89q0 118 38.5 230t103.5 199t146.5 153.5t173.5 101.5t179 35 q71 0 127 -29l8 45h416zM526 156q10 0 18.5 2t30 21.5t40.5 54t43 110t44 180.5l31 162q14 74 18 128t0.5 84t-13 47.5t-20 22.5t-24.5 5q-51 0 -99.5 -125.5t-75.5 -284.5t-27 -278q0 -129 34 -129zM903 1118l-330 479h416l-76 -479h-10z" />
<glyph unicode="&#xe1;" d="M1223 1030l-148 -799q-19 -88 19 -88q24 0 64.5 20t84.5 66l25 -16q-62 -103 -157 -172.5t-224 -69.5q-121 0 -183.5 75.5t-56.5 191.5q-122 -267 -323 -267q-69 0 -122.5 20.5t-85 52t-51.5 76t-27 86.5t-7 89q0 118 38.5 230t103.5 199t146.5 153.5t173.5 101.5t179 35 q71 0 127 -29l8 45h416zM526 156q10 0 18.5 2t30 21.5t40.5 54t43 110t44 180.5l31 162q14 74 18 128t0.5 84t-13 47.5t-20 22.5t-24.5 5q-51 0 -99.5 -125.5t-75.5 -284.5t-27 -278q0 -129 34 -129zM1212 1597l-481 -479h-10l76 479h415z" />
<glyph unicode="&#xe2;" d="M1223 1030l-148 -799q-19 -88 19 -88q24 0 64.5 20t84.5 66l25 -16q-62 -103 -157 -172.5t-224 -69.5q-121 0 -183.5 75.5t-56.5 191.5q-122 -267 -323 -267q-69 0 -122.5 20.5t-85 52t-51.5 76t-27 86.5t-7 89q0 118 38.5 230t103.5 199t146.5 153.5t173.5 101.5t179 35 q71 0 127 -29l8 45h416zM526 156q10 0 18.5 2t30 21.5t40.5 54t43 110t44 180.5l31 162q14 74 18 128t0.5 84t-13 47.5t-20 22.5t-24.5 5q-51 0 -99.5 -125.5t-75.5 -284.5t-27 -278q0 -129 34 -129zM819 1313l-450 -221l-7 6l510 551l334 -551l-6 -8z" />
<glyph unicode="&#xe3;" d="M1223 1030l-148 -799q-19 -88 19 -88q24 0 64.5 20t84.5 66l25 -16q-62 -103 -157 -172.5t-224 -69.5q-121 0 -183.5 75.5t-56.5 191.5q-122 -267 -323 -267q-69 0 -122.5 20.5t-85 52t-51.5 76t-27 86.5t-7 89q0 118 38.5 230t103.5 199t146.5 153.5t173.5 101.5t179 35 q71 0 127 -29l8 45h416zM526 156q10 0 18.5 2t30 21.5t40.5 54t43 110t44 180.5l31 162q14 74 18 128t0.5 84t-13 47.5t-20 22.5t-24.5 5q-51 0 -99.5 -125.5t-75.5 -284.5t-27 -278q0 -129 34 -129zM1200 1532l158 110l6 -2l-164 -421h-590l-159 -111l-5 2l164 422h590z " />
<glyph unicode="&#xe4;" d="M1223 1030l-148 -799q-19 -88 19 -88q24 0 64.5 20t84.5 66l25 -16q-62 -103 -157 -172.5t-224 -69.5q-121 0 -183.5 75.5t-56.5 191.5q-122 -267 -323 -267q-69 0 -122.5 20.5t-85 52t-51.5 76t-27 86.5t-7 89q0 118 38.5 230t103.5 199t146.5 153.5t173.5 101.5t179 35 q71 0 127 -29l8 45h416zM526 156q10 0 18.5 2t30 21.5t40.5 54t43 110t44 180.5l31 162q14 74 18 128t0.5 84t-13 47.5t-20 22.5t-24.5 5q-51 0 -99.5 -125.5t-75.5 -284.5t-27 -278q0 -129 34 -129zM870 1368q0 91 64.5 155t155.5 64q89 0 153 -64t64 -155q0 -89 -64 -153 t-153 -64q-91 0 -155.5 64t-64.5 153zM344 1368q0 91 64 155t155 64q89 0 153 -64t64 -155q0 -89 -64 -153t-153 -64q-91 0 -155 64t-64 153z" />
<glyph unicode="&#xe5;" d="M1223 1030l-148 -799q-19 -88 19 -88q24 0 64.5 20t84.5 66l25 -16q-62 -103 -157 -172.5t-224 -69.5q-121 0 -183.5 75.5t-56.5 191.5q-122 -267 -323 -267q-69 0 -122.5 20.5t-85 52t-51.5 76t-27 86.5t-7 89q0 118 38.5 230t103.5 199t146.5 153.5t173.5 101.5t179 35 q71 0 127 -29l8 45h416zM526 156q10 0 18.5 2t30 21.5t40.5 54t43 110t44 180.5l31 162q14 74 18 128t0.5 84t-13 47.5t-20 22.5t-24.5 5q-51 0 -99.5 -125.5t-75.5 -284.5t-27 -278q0 -129 34 -129zM1032 1358q0 -84 -61 -142.5t-148 -58.5t-148 58.5t-61 142.5t61 142.5 t148 58.5t148 -58.5t61 -142.5zM954 1358q0 58 -38.5 95.5t-92.5 37.5q-56 0 -92.5 -38.5t-36.5 -94.5t36.5 -94.5t92.5 -38.5q60 0 95.5 38t35.5 95z" />
<glyph unicode="&#xe6;" horiz-adv-x="1658" d="M672 1014q81 0 156 -29.5t124 -87.5q91 66 178 99.5t191 33.5q76 0 136 -10.5t95 -26.5t58 -37.5t31 -41.5t8 -40q0 -41 -16 -79t-41.5 -68t-67 -59.5t-81.5 -51.5t-96.5 -46.5t-100.5 -41.5t-105 -39q-33 -12 -49 -18q-5 -36 -5 -72q0 -231 136 -231q147 0 313 240 l31 -15q-92 -195 -236.5 -308.5t-312.5 -113.5q-143 0 -237.5 79.5t-112.5 232.5q-71 -163 -150.5 -237.5t-193.5 -74.5q-69 0 -122.5 20.5t-85 52t-51.5 76t-27 86.5t-7 89q0 118 38.5 230t103.5 199t146.5 153.5t173.5 101.5t179 35zM526 156q6 0 14 3t22.5 16t29.5 35 t35.5 64.5t40.5 100.5q3 35 37 219l32 186q36 191 -39 191q-53 0 -102.5 -125t-76.5 -283t-27 -278q0 -129 34 -129zM1278 987q-35 0 -67 -48.5t-54.5 -124t-38.5 -154.5t-24 -154q98 58 161.5 180t63.5 217q0 40 -11.5 62t-29.5 22z" />
<glyph unicode="&#xe7;" horiz-adv-x="1038" d="M922 387l32 -14q-91 -192 -231.5 -295.5t-319.5 -106.5l-114 -137q66 49 143 49q55 0 90 -31t35 -83q0 -53 -32 -100t-82 -79.5t-110.5 -56t-118.5 -34.5t-105 -11v8q104 27 183 100t79 150q0 30 -17 44.5t-41 14.5q-25 0 -43 -14l-43 39l117 143q-147 14 -230 104 t-83 253q0 92 31 190.5t91.5 189t142 162.5t191 115t228.5 43q57 0 110 -10t101.5 -32t78 -62.5t29.5 -94.5q0 -70 -39 -115.5t-112 -45.5q-54 0 -87.5 23t-45 58t-18.5 75.5t-9 75.5t-15 58t-38 23q-38 0 -83 -105.5t-74.5 -254.5t-29.5 -269q0 -94 33.5 -144t89.5 -50 q78 0 160.5 54.5t155.5 172.5z" />
<glyph unicode="&#xe8;" horiz-adv-x="1052" d="M1042 874q0 -41 -16 -79t-41.5 -68t-67 -59.5t-81.5 -51.5t-96.5 -46.5t-100.5 -41.5t-105 -39q-33 -12 -49 -18q-4 -29 -4 -72q0 -231 135 -231q148 0 314 240l31 -15q-93 -197 -239.5 -309.5t-324.5 -112.5q-158 0 -262 93t-104 266q0 138 54.5 267t146 224t218.5 152 t265 57q94 0 162.5 -15.5t102 -40.5t48 -49.5t14.5 -50.5zM707 1118l-330 479h416l-76 -479h-10zM672 987q-35 0 -67 -48.5t-55 -124t-39 -154.5t-24 -154q98 58 162 180t64 217q0 40 -11.5 62t-29.5 22z" />
<glyph unicode="&#xe9;" horiz-adv-x="1052" d="M1042 874q0 -41 -16 -79t-41.5 -68t-67 -59.5t-81.5 -51.5t-96.5 -46.5t-100.5 -41.5t-105 -39q-33 -12 -49 -18q-4 -29 -4 -72q0 -231 135 -231q148 0 314 240l31 -15q-93 -197 -239.5 -309.5t-324.5 -112.5q-158 0 -262 93t-104 266q0 138 54.5 267t146 224t218.5 152 t265 57q94 0 162.5 -15.5t102 -40.5t48 -49.5t14.5 -50.5zM1100 1597l-482 -479h-10l76 479h416zM672 987q-35 0 -67 -48.5t-55 -124t-39 -154.5t-24 -154q98 58 162 180t64 217q0 40 -11.5 62t-29.5 22z" />
<glyph unicode="&#xea;" horiz-adv-x="1052" d="M1042 874q0 -41 -16 -79t-41.5 -68t-67 -59.5t-81.5 -51.5t-96.5 -46.5t-100.5 -41.5t-105 -39q-33 -12 -49 -18q-4 -29 -4 -72q0 -231 135 -231q148 0 314 240l31 -15q-93 -197 -239.5 -309.5t-324.5 -112.5q-158 0 -262 93t-104 266q0 138 54.5 267t146 224t218.5 152 t265 57q94 0 162.5 -15.5t102 -40.5t48 -49.5t14.5 -50.5zM707 1313l-451 -221l-6 6l510 551l334 -551l-7 -8zM672 987q-35 0 -67 -48.5t-55 -124t-39 -154.5t-24 -154q98 58 162 180t64 217q0 40 -11.5 62t-29.5 22z" />
<glyph unicode="&#xeb;" horiz-adv-x="1052" d="M1042 874q0 -41 -16 -79t-41.5 -68t-67 -59.5t-81.5 -51.5t-96.5 -46.5t-100.5 -41.5t-105 -39q-33 -12 -49 -18q-4 -29 -4 -72q0 -231 135 -231q148 0 314 240l31 -15q-93 -197 -239.5 -309.5t-324.5 -112.5q-158 0 -262 93t-104 266q0 138 54.5 267t146 224t218.5 152 t265 57q94 0 162.5 -15.5t102 -40.5t48 -49.5t14.5 -50.5zM223 1368q0 91 64 155t155 64q89 0 153 -64t64 -155q0 -89 -64 -153t-153 -64q-91 0 -155 64t-64 153zM750 1368q0 91 64 155t155 64q89 0 153 -64t64 -155q0 -89 -64 -153t-153 -64q-91 0 -155 64t-64 153z M672 987q-35 0 -67 -48.5t-55 -124t-39 -154.5t-24 -154q98 58 162 180t64 217q0 40 -11.5 62t-29.5 22z" />
<glyph unicode="&#xec;" horiz-adv-x="802" d="M137 346l72 322q24 103 20 152.5t-39 49.5q-26 0 -69.5 -15t-77.5 -40l-16 21q67 72 149 118t146.5 61t126.5 15q19 0 37 -2t41 -7.5t42.5 -16.5t38.5 -27t32 -40.5t21.5 -56t7.5 -75.5t-12 -96l-98 -478q-17 -86 55 -86q29 0 77.5 27t72.5 55l24 -20q-28 -40 -53 -70 t-62 -63t-76 -54t-92.5 -35t-113.5 -14q-175 0 -234.5 99t-19.5 276zM604 1118l-330 479h416l-76 -479h-10z" />
<glyph unicode="&#xed;" horiz-adv-x="802" d="M137 346l72 322q24 103 20 152.5t-39 49.5q-26 0 -69.5 -15t-77.5 -40l-16 21q67 72 149 118t146.5 61t126.5 15q19 0 37 -2t41 -7.5t42.5 -16.5t38.5 -27t32 -40.5t21.5 -56t7.5 -75.5t-12 -96l-98 -478q-17 -86 55 -86q29 0 77.5 27t72.5 55l24 -20q-28 -40 -53 -70 t-62 -63t-76 -54t-92.5 -35t-113.5 -14q-175 0 -234.5 99t-19.5 276zM834 1597l-482 -479h-10l76 479h416z" />
<glyph unicode="&#xee;" horiz-adv-x="802" d="M137 346l72 322q24 103 20 152.5t-39 49.5q-26 0 -69.5 -15t-77.5 -40l-16 21q67 72 149 118t146.5 61t126.5 15q19 0 37 -2t41 -7.5t42.5 -16.5t38.5 -27t32 -40.5t21.5 -56t7.5 -75.5t-12 -96l-98 -478q-17 -86 55 -86q29 0 77.5 27t72.5 55l24 -20q-28 -40 -53 -70 t-62 -63t-76 -54t-92.5 -35t-113.5 -14q-175 0 -234.5 99t-19.5 276zM479 1313l-450 -221l-6 6l509 551l334 -551l-6 -8z" />
<glyph unicode="&#xef;" horiz-adv-x="802" d="M137 346l72 322q24 103 20 152.5t-39 49.5q-26 0 -69.5 -15t-77.5 -40l-16 21q67 72 149 118t146.5 61t126.5 15q19 0 37 -2t41 -7.5t42.5 -16.5t38.5 -27t32 -40.5t21.5 -56t7.5 -75.5t-12 -96l-98 -478q-17 -86 55 -86q29 0 77.5 27t72.5 55l24 -20q-28 -40 -53 -70 t-62 -63t-76 -54t-92.5 -35t-113.5 -14q-175 0 -234.5 99t-19.5 276zM530 1368q0 91 64.5 155t155.5 64q89 0 153 -64t64 -155q0 -89 -64 -153t-153 -64q-91 0 -155.5 64t-64.5 153zM4 1368q0 91 64 155t155 64q89 0 153 -64t64 -155q0 -89 -64 -153t-153 -64q-91 0 -155 64 t-64 153z" />
<glyph unicode="&#xf0;" horiz-adv-x="1439" d="M401 1210l-51 66l266 231q-123 145 -268 213l19 31q188 -65 350 -158l239 209l52 -63l-217 -189q246 -157 385 -364.5t139 -444.5q0 -211 -90.5 -388t-250 -279.5t-353.5 -102.5q-150 0 -266 41.5t-186 113.5t-105 162.5t-35 196.5q0 110 33 203.5t86 155.5t120 106 t133.5 64t128.5 20q217 0 334 -155q-27 315 -198 563zM711 895q-60 0 -108.5 -58.5t-76 -147.5t-42.5 -183.5t-15 -177.5q0 -60 7.5 -115t23 -101.5t42.5 -74t62 -27.5q51 0 95.5 58t73.5 145.5t50 192t30 196t9 158.5q0 49 -2 67q-59 68 -149 68z" />
<glyph unicode="&#xf1;" horiz-adv-x="1376" d="M31 815l-17 21q176 194 424 194q32 0 57.5 -5t57 -24.5t50.5 -52.5t28.5 -94.5t1.5 -144.5q91 321 344 321q151 0 205.5 -121.5t19.5 -339.5l-55 -338q-10 -38 -1.5 -62t46.5 -24q29 0 76 27t71 55l25 -20q-35 -51 -67 -87.5t-78 -73t-104 -56t-126 -19.5 q-95 0 -156 26.5t-87.5 75.5t-31.5 118.5t11 154.5l39 246q39 235 -8 235q-72 0 -123 -198l-101 -629h-444l107 668q19 104 16.5 153t-35.5 49q-25 0 -68 -15t-77 -40zM1087 1532l158 110l6 -2l-164 -421h-589l-160 -111l-4 2l164 422h589z" />
<glyph unicode="&#xf2;" horiz-adv-x="1214" d="M31 311q0 141 65.5 275.5t167.5 230.5t229.5 154.5t247.5 58.5q99 0 177.5 -20.5t127.5 -53t81 -78t44.5 -91.5t12.5 -97q0 -141 -65.5 -275.5t-168 -230.5t-230 -154.5t-247.5 -58.5q-125 0 -215 30t-137.5 81t-68.5 107.5t-21 121.5zM543 18q60 0 103 114.5t60 263 t17 304.5q0 279 -55 279q-59 0 -100.5 -115t-57.5 -263t-16 -304q0 -279 49 -279zM750 1118l-330 479h416l-76 -479h-10z" />
<glyph unicode="&#xf3;" horiz-adv-x="1214" d="M31 311q0 141 65.5 275.5t167.5 230.5t229.5 154.5t247.5 58.5q99 0 177.5 -20.5t127.5 -53t81 -78t44.5 -91.5t12.5 -97q0 -141 -65.5 -275.5t-168 -230.5t-230 -154.5t-247.5 -58.5q-125 0 -215 30t-137.5 81t-68.5 107.5t-21 121.5zM543 18q60 0 103 114.5t60 263 t17 304.5q0 279 -55 279q-59 0 -100.5 -115t-57.5 -263t-16 -304q0 -279 49 -279zM1075 1597l-481 -479h-10l75 479h416z" />
<glyph unicode="&#xf4;" horiz-adv-x="1214" d="M31 311q0 141 65.5 275.5t167.5 230.5t229.5 154.5t247.5 58.5q99 0 177.5 -20.5t127.5 -53t81 -78t44.5 -91.5t12.5 -97q0 -141 -65.5 -275.5t-168 -230.5t-230 -154.5t-247.5 -58.5q-125 0 -215 30t-137.5 81t-68.5 107.5t-21 121.5zM543 18q60 0 103 114.5t60 263 t17 304.5q0 279 -55 279q-59 0 -100.5 -115t-57.5 -263t-16 -304q0 -279 49 -279zM743 1313l-450 -221l-6 6l510 551l333 -551l-6 -8z" />
<glyph unicode="&#xf5;" horiz-adv-x="1214" d="M31 311q0 141 65.5 275.5t167.5 230.5t229.5 154.5t247.5 58.5q99 0 177.5 -20.5t127.5 -53t81 -78t44.5 -91.5t12.5 -97q0 -141 -65.5 -275.5t-168 -230.5t-230 -154.5t-247.5 -58.5q-125 0 -215 30t-137.5 81t-68.5 107.5t-21 121.5zM543 18q60 0 103 114.5t60 263 t17 304.5q0 279 -55 279q-59 0 -100.5 -115t-57.5 -263t-16 -304q0 -279 49 -279zM1044 1532l158 110l6 -2l-164 -421h-589l-160 -111l-4 2l164 422h589z" />
<glyph unicode="&#xf6;" horiz-adv-x="1214" d="M31 311q0 141 65.5 275.5t167.5 230.5t229.5 154.5t247.5 58.5q99 0 177.5 -20.5t127.5 -53t81 -78t44.5 -91.5t12.5 -97q0 -141 -65.5 -275.5t-168 -230.5t-230 -154.5t-247.5 -58.5q-125 0 -215 30t-137.5 81t-68.5 107.5t-21 121.5zM543 18q60 0 103 114.5t60 263 t17 304.5q0 279 -55 279q-59 0 -100.5 -115t-57.5 -263t-16 -304q0 -279 49 -279zM756 1368q0 91 64 155t155 64q89 0 153 -64t64 -155q0 -89 -64 -153t-153 -64q-91 0 -155 64t-64 153zM229 1368q0 91 64.5 155t155.5 64q89 0 153 -64t64 -155q0 -89 -64 -153t-153 -64 q-91 0 -155.5 64t-64.5 153z" />
<glyph unicode="&#xf7;" horiz-adv-x="1114" d="M84 459l14 96h930l-14 -96h-930zM283 186q0 83 59.5 143t142.5 60q90 0 151.5 -59.5t61.5 -143.5q0 -91 -61 -152t-152 -61q-84 0 -143 61.5t-59 151.5zM393 829q0 83 60 143t143 60q90 0 151.5 -59.5t61.5 -143.5q0 -91 -61 -152t-152 -61q-84 0 -143.5 61.5 t-59.5 151.5z" />
<glyph unicode="&#xf8;" d="M72 311q0 141 65.5 275.5t167.5 230.5t229.5 154.5t247.5 58.5q149 0 246 -43l195 221h88l-224 -254q138 -92 138 -264q0 -141 -65.5 -275.5t-168 -230.5t-230 -154.5t-247.5 -58.5q-152 0 -252 43l-199 -225h-86l226 258q-131 91 -131 264zM584 18q40 0 72.5 50t54 134 t34 180.5t17.5 201.5l-227 -258v-29q0 -279 49 -279zM709 979q-39 0 -71 -48.5t-52 -130.5t-32 -176t-17 -198l227 258v16q0 279 -55 279z" />
<glyph unicode="&#xf9;" horiz-adv-x="1382" d="M641 680l-47 -268q-42 -236 10 -236q72 0 123 199l92 598h445l-111 -742q-10 -38 -1.5 -62t46.5 -24q29 0 76.5 27t71.5 55l24 -20q-34 -50 -66.5 -87t-78.5 -73t-104 -55t-126 -19q-76 0 -128.5 14.5t-81 42t-43.5 67t-16 89.5t1 109q-92 -322 -344 -322 q-152 0 -210 123.5t-17 337.5l45 234q21 104 17 153t-38 49q-25 0 -67 -14.5t-76 -40.5l-17 21q176 194 418 194q19 0 36.5 -2.5t40 -8t41 -17.5t37.5 -29t31.5 -44t20.5 -61.5t7 -82.5t-11 -105zM772 1118l-330 479h416l-76 -479h-10z" />
<glyph unicode="&#xfa;" horiz-adv-x="1382" d="M641 680l-47 -268q-42 -236 10 -236q72 0 123 199l92 598h445l-111 -742q-10 -38 -1.5 -62t46.5 -24q29 0 76.5 27t71.5 55l24 -20q-34 -50 -66.5 -87t-78.5 -73t-104 -55t-126 -19q-76 0 -128.5 14.5t-81 42t-43.5 67t-16 89.5t1 109q-92 -322 -344 -322 q-152 0 -210 123.5t-17 337.5l45 234q21 104 17 153t-38 49q-25 0 -67 -14.5t-76 -40.5l-17 21q176 194 418 194q19 0 36.5 -2.5t40 -8t41 -17.5t37.5 -29t31.5 -44t20.5 -61.5t7 -82.5t-11 -105zM1161 1597l-481 -479h-10l75 479h416z" />
<glyph unicode="&#xfb;" horiz-adv-x="1382" d="M641 680l-47 -268q-42 -236 10 -236q72 0 123 199l92 598h445l-111 -742q-10 -38 -1.5 -62t46.5 -24q29 0 76.5 27t71.5 55l24 -20q-34 -50 -66.5 -87t-78.5 -73t-104 -55t-126 -19q-76 0 -128.5 14.5t-81 42t-43.5 67t-16 89.5t1 109q-92 -322 -344 -322 q-152 0 -210 123.5t-17 337.5l45 234q21 104 17 153t-38 49q-25 0 -67 -14.5t-76 -40.5l-17 21q176 194 418 194q19 0 36.5 -2.5t40 -8t41 -17.5t37.5 -29t31.5 -44t20.5 -61.5t7 -82.5t-11 -105zM788 1313l-450 -221l-6 6l510 551l334 -551l-7 -8z" />
<glyph unicode="&#xfc;" horiz-adv-x="1382" d="M641 680l-47 -268q-42 -236 10 -236q72 0 123 199l92 598h445l-111 -742q-10 -38 -1.5 -62t46.5 -24q29 0 76.5 27t71.5 55l24 -20q-34 -50 -66.5 -87t-78.5 -73t-104 -55t-126 -19q-76 0 -128.5 14.5t-81 42t-43.5 67t-16 89.5t1 109q-92 -322 -344 -322 q-152 0 -210 123.5t-17 337.5l45 234q21 104 17 153t-38 49q-25 0 -67 -14.5t-76 -40.5l-17 21q176 194 418 194q19 0 36.5 -2.5t40 -8t41 -17.5t37.5 -29t31.5 -44t20.5 -61.5t7 -82.5t-11 -105zM838 1368q0 91 64 155t155 64q89 0 153 -64t64 -155q0 -89 -64 -153 t-153 -64q-91 0 -155 64t-64 153zM311 1368q0 91 64 155t155 64q90 0 154 -64.5t64 -154.5q0 -89 -64.5 -153t-153.5 -64q-91 0 -155 64t-64 153z" />
<glyph unicode="&#xfd;" horiz-adv-x="1226" d="M950 528q13 60 8.5 95t-21.5 67.5t-35.5 55t-33 57t-14.5 74.5q0 65 48 109t130 44q80 0 122 -59t42 -150q0 -146 -166.5 -368t-431.5 -451q-53 -45 -152 -133.5t-163 -145t-157 -129.5t-163.5 -115.5t-151 -73t-147.5 -30.5q-116 0 -186 53t-70 136q0 73 45 117.5 t129 44.5q36 0 65.5 -24t48.5 -58.5t36 -69t38 -58.5t46 -24q63 0 192 91t293 247q16 141 18 317.5t-10 341t-48 276.5t-91 112q-73 0 -123 -97l-33 17q33 75 77.5 124.5t95 71.5t91 29.5t89.5 7.5q68 0 121.5 -13.5t101.5 -48.5t79.5 -92t50 -148t17.5 -212 q0 -123 -26 -326q69 73 103.5 112t78 105t57.5 121zM1165 1597l-481 -479h-10l76 479h415z" />
<glyph unicode="&#xfe;" horiz-adv-x="1308" d="M791 1673l-158 -981q64 174 150.5 256t211.5 82q66 0 117 -20t81.5 -52t50.5 -76t27 -86.5t7 -88.5q0 -118 -38.5 -230t-103.5 -199t-146.5 -153.5t-173.5 -101.5t-179 -35q-68 0 -115 8l-63 -410q-11 -73 38 -113t160 -40l-6 -33h-815l4 33q37 0 64.5 4t46 15.5t29.5 22 t18.5 33t11 37.5t8.5 47l299 1891q7 35 5 64t-15.5 49.5t-51 32t-99.5 11.5l8 33h627zM610 522l2 39l-69 -436q15 -94 67 -94q53 0 102.5 125t77 283.5t27.5 277.5q0 129 -35 129q-8 0 -19 -6t-30.5 -27.5t-38.5 -54.5t-42 -95t-42 -141z" />
<glyph unicode="&#xff;" horiz-adv-x="1226" d="M950 528q13 60 8.5 95t-21.5 67.5t-35.5 55t-33 57t-14.5 74.5q0 65 48 109t130 44q80 0 122 -59t42 -150q0 -146 -166.5 -368t-431.5 -451q-53 -45 -152 -133.5t-163 -145t-157 -129.5t-163.5 -115.5t-151 -73t-147.5 -30.5q-116 0 -186 53t-70 136q0 73 45 117.5 t129 44.5q36 0 65.5 -24t48.5 -58.5t36 -69t38 -58.5t46 -24q63 0 192 91t293 247q16 141 18 317.5t-10 341t-48 276.5t-91 112q-73 0 -123 -97l-33 17q33 75 77.5 124.5t95 71.5t91 29.5t89.5 7.5q68 0 121.5 -13.5t101.5 -48.5t79.5 -92t50 -148t17.5 -212 q0 -123 -26 -326q69 73 103.5 112t78 105t57.5 121zM233 1368q0 91 64.5 155t155.5 64q89 0 153 -64t64 -155q0 -89 -64 -153t-153 -64q-91 0 -155.5 64t-64.5 153zM760 1368q0 91 64 155t155 64q89 0 153 -64t64 -155q0 -89 -64 -153t-153 -64q-91 0 -155 64t-64 153z" />
<glyph unicode="&#x152;" horiz-adv-x="2332" d="M2028 1237l-117 -739h-23q0 346 -282 346l-107 -668q-11 -73 14.5 -100t112.5 -27h51q73 0 136.5 17t110.5 43.5t88.5 68t69.5 81.5t54 94t41.5 96t32.5 96h24l-86 -545h-1245q-15 0 -43 -1t-43 -1q-224 0 -392 88.5t-260.5 259.5t-92.5 406q0 422 238.5 672.5 t635.5 250.5q13 0 38 -1t36 -1h1319l-84 -532h-25q-1 53 -3.5 93t-12 93t-25.5 92.5t-46 80.5t-71.5 67t-103.5 42.5t-139 16.5h-100l-115 -735q282 0 391 346h23zM545 492q1 -235 66.5 -340t199.5 -105q108 0 199 108.5t147 278.5t86.5 366.5t30.5 385.5q0 234 -64 337 t-198 103q-86 0 -162.5 -70t-131 -186.5t-94.5 -264t-59.5 -305t-19.5 -308.5z" />
<glyph unicode="&#x153;" horiz-adv-x="1734" d="M72 311q0 141 65.5 275.5t167.5 230.5t229.5 154.5t247.5 58.5q206 0 299 -90q142 90 316 90q94 0 162.5 -15.5t102 -40.5t48 -49.5t14.5 -50.5q0 -41 -16 -79t-41.5 -68t-67 -59.5t-81.5 -51.5t-96.5 -46.5t-100.5 -41.5t-105 -39q-33 -12 -49 -18q-4 -29 -4 -72 q0 -231 135 -231q148 0 314 240l30 -15q-93 -197 -239 -309.5t-324 -112.5q-165 0 -241 107q-157 -107 -324 -107q-125 0 -215 30t-137.5 81t-68.5 107.5t-21 121.5zM584 18q60 0 103 114.5t60 263t17 304.5q0 279 -55 279q-59 0 -100.5 -115t-57.5 -263t-16 -304 q0 -279 49 -279zM1354 987q-35 0 -67 -48.5t-55 -124t-39 -154.5t-24 -154q98 58 162 180t64 217q0 40 -11.5 62t-29.5 22z" />
<glyph unicode="&#x178;" horiz-adv-x="1679" d="M993 844l336 493q54 79 78 136t23.5 88t-23 48.5t-49 22t-68.5 4.5l6 37h541l-6 -37q-43 0 -71 -3.5t-72 -21t-84 -50.5t-95 -95.5t-116 -152.5l-357 -527l-94 -593q-9 -54 -4 -89.5t42.5 -53t119.5 -17.5l-4 -33h-828l4 33q62 0 101 9t61 31.5t31.5 49.5t17.5 74l80 508 l-252 819q-50 112 -196 112l6 37h842l-7 -37q-86 0 -121 -31.5t-12 -117.5zM539 1993q0 91 64 155t155 64q89 0 153 -64t64 -155q0 -89 -64 -153t-153 -64q-91 0 -155 64t-64 153zM1249 1993q0 91 64 155t155 64q90 0 154 -64t64 -155q0 -89 -64.5 -153t-153.5 -64 q-91 0 -155 64t-64 153z" />
<glyph unicode="&#x2c6;" horiz-adv-x="966" d="M473 1313l-450 -221l-7 6l510 551l334 -551l-6 -8z" />
<glyph unicode="&#x2dc;" horiz-adv-x="956" d="M772 1532l158 110l6 -2l-164 -421h-590l-159 -111l-5 2l164 422h590z" />
<glyph unicode="&#x2000;" horiz-adv-x="1142" />
<glyph unicode="&#x2001;" horiz-adv-x="2284" />
<glyph unicode="&#x2002;" horiz-adv-x="1142" />
<glyph unicode="&#x2003;" horiz-adv-x="2284" />
<glyph unicode="&#x2004;" horiz-adv-x="761" />
<glyph unicode="&#x2005;" horiz-adv-x="571" />
<glyph unicode="&#x2006;" horiz-adv-x="380" />
<glyph unicode="&#x2007;" horiz-adv-x="380" />
<glyph unicode="&#x2008;" horiz-adv-x="285" />
<glyph unicode="&#x2009;" horiz-adv-x="456" />
<glyph unicode="&#x200a;" horiz-adv-x="126" />
<glyph unicode="&#x2010;" horiz-adv-x="786" d="M84 471l14 96h602l-14 -96h-602z" />
<glyph unicode="&#x2011;" horiz-adv-x="786" d="M84 471l14 96h602l-14 -96h-602z" />
<glyph unicode="&#x2012;" horiz-adv-x="786" d="M84 471l14 96h602l-14 -96h-602z" />
<glyph unicode="&#x2013;" horiz-adv-x="1032" d="M84 471l14 96h848l-14 -96h-848z" />
<glyph unicode="&#x2014;" horiz-adv-x="1538" d="M84 469l14 98h1354l-14 -98h-1354z" />
<glyph unicode="&#x2018;" horiz-adv-x="573" d="M389 1454q75 -24 119.5 -87.5t44.5 -139.5q0 -110 -73.5 -186t-182.5 -76q-64 0 -115.5 23.5t-82 62t-46.5 84.5t-16 94q0 111 72 215t189.5 175t250.5 91l8 -14q-42 -15 -96 -94.5t-72 -147.5z" />
<glyph unicode="&#x2019;" horiz-adv-x="552" d="M205 1221q-75 24 -119.5 87.5t-44.5 139.5q0 110 73.5 186t182.5 76q64 0 115.5 -23.5t82 -62t46.5 -84.5t16 -94q0 -111 -72 -215t-189.5 -175t-250.5 -91l-8 14q42 15 96 94.5t72 147.5z" />
<glyph unicode="&#x201a;" horiz-adv-x="573" d="M213 -4q-75 24 -119.5 87.5t-44.5 139.5q0 110 73.5 186t182.5 76q64 0 115.5 -23.5t82 -62t46.5 -84.5t16 -94q0 -111 -72 -215t-189.5 -175t-250.5 -91l-8 14q42 15 96 94.5t72 147.5z" />
<glyph unicode="&#x201c;" horiz-adv-x="1169" d="M971 1454q75 -24 119.5 -87.5t44.5 -139.5q0 -110 -73.5 -186t-182.5 -76q-64 0 -115.5 23.5t-82.5 62t-47 84.5t-16 94q0 111 72 215t189.5 175t250.5 91l9 -14q-42 -15 -96 -94.5t-72 -147.5zM389 1454q75 -24 119.5 -87.5t44.5 -139.5q0 -110 -73.5 -186t-182.5 -76 q-64 0 -115.5 23.5t-82 62t-46.5 84.5t-16 94q0 111 72 215t189.5 175t250.5 91l8 -14q-42 -15 -96 -94.5t-72 -147.5z" />
<glyph unicode="&#x201d;" horiz-adv-x="1169" d="M205 1221q-75 24 -119.5 87.5t-44.5 139.5q0 110 73.5 186t182.5 76q64 0 115.5 -23.5t82 -62t46.5 -84.5t16 -94q0 -111 -72 -215t-189.5 -175t-250.5 -91l-8 14q42 15 96 94.5t72 147.5zM786 1221q-75 24 -119 87t-44 140q0 110 73.5 186t182.5 76q64 0 115.5 -23.5 t82 -62t46.5 -84.5t16 -94q0 -111 -72 -215t-189.5 -175t-250.5 -91l-9 14q42 15 96 94.5t72 147.5z" />
<glyph unicode="&#x201e;" horiz-adv-x="1169" d="M213 -4q-75 24 -119.5 87.5t-44.5 139.5q0 110 73.5 186t182.5 76q64 0 115.5 -23.5t82 -62t46.5 -84.5t16 -94q0 -111 -72 -215t-189.5 -175t-250.5 -91l-8 14q42 15 96 94.5t72 147.5zM795 -4q-75 24 -119.5 87.5t-44.5 139.5q0 110 73.5 186t182.5 76 q64 0 115.5 -23.5t82 -62t46.5 -84.5t16 -94q0 -111 -72 -215t-189.5 -175t-250.5 -91l-8 14q42 15 96 94.5t72 147.5z" />
<glyph unicode="&#x2022;" horiz-adv-x="851" d="M92 530q0 135 96.5 231.5t231.5 96.5q144 0 242 -96t98 -232q0 -145 -97.5 -242.5t-242.5 -97.5q-136 0 -232 98t-96 242z" />
<glyph unicode="&#x2026;" horiz-adv-x="1716" d="M31 225q0 106 75 181t181 75t181 -75t75 -181t-75 -181t-181 -75t-181 75t-75 181zM602 225q0 106 75 181t181 75t181 -75t75 -181t-75 -181t-181 -75t-181 75t-75 181zM1174 225q0 106 75 181t181 75t181 -75t75 -181t-75 -181t-181 -75t-181 75t-75 181z" />
<glyph unicode="&#x202f;" horiz-adv-x="456" />
<glyph unicode="&#x2039;" horiz-adv-x="622" d="M500 70l-471 430l606 432h24l-251 -434l114 -428h-22z" />
<glyph unicode="&#x203a;" horiz-adv-x="622" d="M590 500l-604 -430h-23l252 436l-117 426h25z" />
<glyph unicode="&#x205f;" horiz-adv-x="571" />
<glyph unicode="&#x20ac;" horiz-adv-x="1751" d="M27 946l10 70h143q70 320 300.5 508t574.5 188q111 0 261.5 -32t305.5 -103l-70 -494h-24q-13 130 -50 234t-83.5 167t-102.5 105t-104.5 58t-93.5 16q-73 0 -138.5 -51.5t-116.5 -143t-90 -204.5t-67 -248h510l-10 -70h-514q-16 -85 -31 -223h508l-10 -70h-502 q-6 -82 -6 -161q0 -240 69.5 -356t216.5 -116q47 0 96 11t114 46t123.5 91t120 154.5t108.5 228.5h24l-76 -481q-242 -99 -524 -99q-314 0 -513.5 183.5t-227.5 498.5h-176l8 70h164v29q0 84 14 194h-141z" />
<glyph unicode="&#x2122;" horiz-adv-x="2293" d="M51 1331v342h934v-342h-24q-5 29 -7 41t-8.5 43.5t-13 47.5t-18.5 44.5t-25.5 44.5t-34 36t-44.5 31t-56.5 18.5t-69.5 7.5v-752q0 -56 28 -79t117 -23v-27h-620v27q88 0 115.5 23t27.5 79v752q-63 0 -111.5 -21t-75 -50.5t-45.5 -74t-27 -78.5t-15 -76q-1 -9 -2 -14h-25 zM1137 983l22 567q3 52 -25.5 73.5t-91.5 21.5v28h431l176 -418l143 418h422v-28q-57 0 -82 -19.5t-23 -62.5l29 -693q2 -37 25.5 -58t79.5 -21v-27h-537v27q57 0 78.5 20.5t21.5 58.5l-24 629l-266 -747h-13l-301 716l-18 -485q-4 -60 5.5 -99.5t31.5 -59t46.5 -26.5 t59.5 -7v-27h-344v27q72 0 111 39t43 153z" />
<glyph unicode="&#xe000;" horiz-adv-x="1034" d="M0 1034h1034v-1034h-1034v1034z" />
</font>
</defs>
</svg>
