<?xml version="1.0" standalone="no"?>
<!DOCTYPE svg PUBLIC "-//W3C//DTD SVG 1.1//EN" "http://www.w3.org/Graphics/SVG/1.1/DTD/svg11.dtd" >
<svg xmlns="http://www.w3.org/2000/svg">
<metadata></metadata>
<defs>
<font id="RomainBPHeadlineBlackBlack" horiz-adv-x="1865" >
<font-face units-per-em="2048" ascent="1536" descent="-512" />
<missing-glyph horiz-adv-x="376" />
<glyph unicode="&#xfb01;" horiz-adv-x="1525" d="M166 991v191q0 108 33.5 196.5t90.5 148t134 99.5t161.5 58t176.5 18q57 0 112.5 -4t121.5 -13.5t121 -28.5t102 -46.5t73.5 -70.5t26.5 -97q0 -77 -48 -127.5t-141 -50.5q-66 0 -108 22t-60 57t-26.5 77t-14.5 84.5t-18 77.5t-42.5 57t-82.5 22q-176 0 -176 -473v-197 h750v-805q0 -42 3.5 -64.5t18.5 -46t48.5 -33t88.5 -9.5v-33h-596v786q0 29 -2 46t-10.5 37.5t-25 31t-47 18t-74.5 7.5h-154v-744q0 -55 14 -85t56.5 -47t122.5 -17v-33h-789v33q55 0 89 9.5t48.5 31.5t18.5 42.5t4 57.5v645q0 36 -4 56.5t-18.5 42t-48.5 31t-89 9.5v33 h160z" />
<glyph unicode="&#xfb02;" horiz-adv-x="1527" d="M928 0v1331q-56 20 -90 62.5t-45 87.5t-18.5 87.5t-22 69.5t-43.5 27q-72 0 -89.5 -96.5t-17.5 -380.5v-197h217v-65h-217v-744q0 -80 39 -114.5t141 -34.5v-33h-776v33q55 0 89 9.5t48.5 31.5t18.5 42.5t4 57.5v645q0 36 -4 56.5t-18.5 42t-48.5 31t-89 9.5v33h160v191 q0 137 38.5 238t109.5 162t165.5 90.5t214.5 29.5q121 0 260 -29h410v-1487q0 -42 4 -65t19 -46t48.5 -32.5t88.5 -9.5v-33h-596z" />
<glyph unicode="&#xfb03;" horiz-adv-x="2289" d="M930 0v926h-328v-744q0 -43 5.5 -67.5t23.5 -45t54.5 -28.5t96.5 -8v-33h-776v33q55 0 89 9.5t48.5 31.5t18.5 42.5t4 57.5v645q0 36 -4 56.5t-18.5 42t-48.5 31t-89 9.5v33h160v133q0 136 38 238t108 163t162 90.5t206 29.5q117 0 218 -31t159 -86q83 87 206 130.5 t263 43.5q57 0 112.5 -4t121.5 -13.5t121 -28.5t102 -46.5t73.5 -70.5t26.5 -97q0 -77 -48 -127.5t-141 -50.5q-66 0 -108 22t-60 57t-26.5 77t-14.5 84.5t-18 77.5t-42.5 57t-82.5 22q-176 0 -176 -473v-197h750v-805q0 -42 3.5 -64.5t18.5 -46t48.5 -33t88.5 -9.5v-33 h-596v786q0 29 -2 46t-10.5 37.5t-25 31t-47 18t-74.5 7.5h-154v-744q0 -55 14 -85t56.5 -47t122.5 -17v-33h-629zM602 1130v-139h328v191q0 29 2 43q-83 7 -127.5 58.5t-50.5 137.5q-1 15 -2.5 38.5t-2.5 38.5t-3 34t-6.5 31t-11.5 23.5t-18 16.5t-26 5q-52 -1 -67 -102.5 t-15 -375.5z" />
<glyph unicode="&#xfb04;" horiz-adv-x="2291" d="M1692 0v1331q-56 20 -90 62.5t-45 87.5t-18.5 87.5t-22 69.5t-43.5 27q-72 0 -89.5 -96.5t-17.5 -380.5v-197h217v-65h-217v-744q0 -80 39 -114.5t141 -34.5v-33h-616v926h-328v-744q0 -43 5.5 -67.5t23.5 -45t54.5 -28.5t96.5 -8v-33h-776v33q55 0 89 9.5t48.5 31.5 t18.5 42.5t4 57.5v645q0 36 -4 56.5t-18.5 42t-48.5 31t-89 9.5v33h160v133q0 136 38 238t108 163t162 90.5t206 29.5q108 0 203.5 -27t156.5 -76q133 160 418 160q121 0 260 -29h410v-1487q0 -42 4 -65t19 -46t48.5 -32.5t88.5 -9.5v-33h-596zM602 1130v-139h328v234 q-81 7 -125.5 58.5t-50.5 137.5q-1 15 -2.5 38.5t-2.5 38.5t-3 34t-6.5 31t-11.5 23.5t-18 16.5t-26 5q-52 -1 -67 -102.5t-15 -375.5z" />
<glyph horiz-adv-x="0" />
<glyph horiz-adv-x="2048" />
<glyph unicode="&#xd;" horiz-adv-x="1011" />
<glyph unicode=" "  horiz-adv-x="376" />
<glyph unicode="&#x09;" horiz-adv-x="376" />
<glyph unicode="&#xa0;" horiz-adv-x="376" />
<glyph unicode="!" horiz-adv-x="643" d="M55 1663q92 47 267 47q174 0 266 -47q-12 -138 -38 -262.5t-57 -220.5t-61.5 -188.5t-57.5 -206t-40 -232.5h-25q-12 119 -39 232.5t-58 206.5t-61.5 189t-57 220.5t-38.5 261.5zM63 225q0 106 75 181t181 75t181 -75t75 -181t-75 -181t-181 -75t-181 75t-75 181z" />
<glyph unicode="&#x22;" horiz-adv-x="753" d="M147 1147l-92 450h293l-92 -450h-109zM498 1147l-92 450h292l-92 -450h-108z" />
<glyph unicode="#" horiz-adv-x="1720" d="M244 1010l41 96h370l201 500h102l-200 -500h450l201 500h102l-200 -500h354l-41 -96h-352l-193 -478h398l-41 -96h-396l-174 -436h-102l174 436h-451l-174 -436h-102l174 436h-330l41 96h328l192 478h-372zM719 1010l-193 -478h451l192 478h-450z" />
<glyph unicode="$" horiz-adv-x="1419" d="M666 1905h84v-195q253 -3 477 -115v-497h-31q-55 280 -176 417.5t-258 137.5h-12v-568l149 -53q94 -34 167 -76.5t136 -105t97 -150t34 -196.5q0 -96 -29 -178t-81.5 -142.5t-125.5 -105t-160 -70t-187 -33.5v-186h-84v182h-11q-279 0 -528 123v524h29q31 -143 75 -250.5 t90.5 -171t103 -102t106.5 -52t106 -13.5h29v612l-146 51q-97 33 -169 81.5t-113.5 100.5t-66.5 116t-33.5 120t-8.5 121q0 205 149 332t388 145v197zM895 344q0 81 -36 149t-109 111v-551q71 36 108 116t37 175zM524 1389q0 -191 142 -269v512q-66 -29 -104 -95t-38 -148z " />
<glyph unicode="%" horiz-adv-x="1835" d="M1569 1673l-1112 -1673h-111l1108 1673h115zM467 879q123 0 194.5 82.5t71.5 199.5q0 121 -75 203t-191 82t-191 -82t-75 -203q0 -117 71.5 -199.5t194.5 -82.5zM467 791q-159 0 -264 107t-105 263q0 159 101 265t268 106t268 -106t101 -265q0 -156 -105 -263t-264 -107z M1370 59q123 0 194.5 83t71.5 200q0 121 -75 203t-191 82t-191 -82t-75 -203q0 -117 71.5 -200t194.5 -83zM1370 -29q-159 0 -264 107t-105 264q0 159 101 265t268 106t268 -106t101 -265q0 -157 -105 -264t-264 -107z" />
<glyph unicode="&#x26;" horiz-adv-x="1972" d="M1415 709l-78 -113l389 -438q97 -107 273 -125v-33h-936v33q35 0 60.5 6.5t43.5 22.5t7 49.5t-54 81.5l-39 43q-73 -89 -147 -145t-174.5 -88t-227.5 -32q-130 0 -233 34t-166 92.5t-96 132.5t-33 157q0 81 33.5 157.5t97 141t165.5 109.5t230 59q-80 96 -132 176.5 t-72.5 140t-26.5 93.5t-6 73q0 165 144.5 269t410.5 104q195 0 317.5 -82t122.5 -194q0 -51 -22 -104t-65.5 -103t-118 -91.5t-169.5 -62.5q75 -86 215.5 -244t176.5 -198l41 63q38 70 31 129t-59.5 97.5t-131.5 37.5v33h680v-33q-46 -3 -74.5 -6t-83 -17.5t-96.5 -38.5 t-96 -72t-101 -115zM1047 274q-42 48 -220 247t-274 306q-88 -111 -88 -290q0 -101 30 -187t97.5 -144.5t161.5 -58.5q159 0 293 127zM735 1485q0 -185 158 -389q53 42 89 140.5t36 197.5q0 102 -40 169.5t-116 67.5q-60 0 -93.5 -54t-33.5 -132z" />
<glyph unicode="'" horiz-adv-x="403" d="M147 1147l-92 450h293l-92 -450h-109z" />
<glyph unicode="(" horiz-adv-x="684" d="M551 1604h121q-139 -134 -237.5 -324.5t-143.5 -385.5t-45 -386q0 -200 50 -400.5t154 -388t248 -319.5h-123q-206 189 -322 488.5t-116 617.5t108 611.5t306 486.5z" />
<glyph unicode=")" horiz-adv-x="692" d="M20 1604h121q198 -193 306 -486.5t108 -611.5t-116 -617.5t-322 -488.5h-123q144 132 248 319.5t154 388t50 400.5q0 191 -45 386t-143.5 385.5t-237.5 324.5z" />
<glyph unicode="*" horiz-adv-x="741" d="M414 1606v-252l217 133l49 -84l-219 -125l225 -123l-49 -84l-213 127v-256h-96v250l-217 -131l-50 84l220 123l-226 125l49 84l213 -129v258h97z" />
<glyph unicode="+" horiz-adv-x="1122" d="M508 999h104v-432h435v-96h-435v-436h-104v436h-432v96h432v432z" />
<glyph unicode="," horiz-adv-x="581" d="M240 -23q-87 10 -146 84.5t-59 163.5q0 106 74.5 181t181.5 75q122 0 189 -82t67 -204q0 -91 -54 -191.5t-152.5 -184.5t-215.5 -122l-8 12q43 26 83 113.5t40 154.5z" />
<glyph unicode="-" horiz-adv-x="794" d="M96 471v96h602v-96h-602z" />
<glyph unicode="." horiz-adv-x="581" d="M35 225q0 106 75 181t181 75t181 -75t75 -181t-75 -181t-181 -75t-181 75t-75 181z" />
<glyph unicode="/" horiz-adv-x="784" d="M791 1669l-689 -1737h-108l688 1737h109z" />
<glyph unicode="0" horiz-adv-x="1605" d="M1047 737q0 156 -14 281.5t-37.5 207t-55.5 136.5t-66 78.5t-71 23.5t-71 -23.5t-66 -78.5t-55.5 -136.5t-37.5 -207t-14 -281.5t14 -280.5t37.5 -204.5t55.5 -133.5t66 -76t71 -22.5t71 22.5t66 76t55.5 133.5t37.5 204.5t14 280.5zM1509 735q0 -180 -54 -326 t-149.5 -241t-224 -146t-278.5 -51q-326 0 -516.5 202t-190.5 566q0 181 54 328t149.5 244t225.5 149.5t282 52.5q338 0 520 -203.5t182 -574.5z" />
<glyph unicode="1" horiz-adv-x="1015" d="M328 229v990q-144 16 -267 55v29q118 11 331.5 78t326.5 132h43v-1280q0 -40 2.5 -64.5t10.5 -48.5t23 -36.5t41.5 -23t63.5 -14t92 -3.5v-43h-923v43q114 0 167.5 17t71 53.5t17.5 115.5z" />
<glyph unicode="2" horiz-adv-x="1392" d="M324 313h563q59 0 100.5 4t90 20t81.5 44.5t61.5 80t43.5 124.5h26v-586h-1351q288 249 416 376q351 348 410 609q13 57 13 111q0 134 -61 190.5t-168 56.5q-49 0 -99 -21t-92.5 -59t-71.5 -98.5t-34 -132.5h-39q0 99 37.5 186t106.5 152.5t174 104t231 38.5 q225 0 354 -91.5t129 -258.5q0 -69 -22.5 -134.5t-61 -124t-103.5 -120t-135 -114.5t-172 -116t-198.5 -117t-228.5 -124z" />
<glyph unicode="3" horiz-adv-x="1337" d="M651 969q146 -4 261.5 -45.5t185.5 -107t106.5 -144t36.5 -162.5q0 -77 -25 -152.5t-79.5 -146t-132 -123.5t-191 -85t-248.5 -32q-88 0 -177.5 20.5t-168.5 59t-128.5 104t-49.5 146.5q0 61 37 103t110 42q35 0 62.5 -13t44 -29.5t31 -46t20 -47.5t13.5 -51t10 -40 q30 -101 76 -152t124 -51q72 0 127.5 58.5t83 146.5t27.5 187q0 70 -20 132.5t-58.5 111.5t-101.5 77.5t-142 28.5q-94 0 -213 -51l-12 49q115 43 215.5 114t165 162.5t64.5 179.5q0 72 -53 115t-156 43q-35 0 -73.5 -9t-85 -31t-88 -69t-65.5 -112l-39 16q24 91 81.5 160.5 t135 109t161 59t171.5 19.5q218 0 337.5 -64.5t119.5 -166.5q0 -114 -133 -196.5t-367 -116.5z" />
<glyph unicode="4" horiz-adv-x="1503" d="M1067 352v-119q0 -40 2.5 -64.5t10.5 -48.5t23 -36.5t41.5 -23t63.5 -14t92 -3.5v-43h-923v43q114 0 167.5 17t71 53.5t17.5 115.5v123h-694l1128 1254v-977h215q57 0 84 44.5t49 166.5h27v-488h-375zM279 629h354v391z" />
<glyph unicode="5" horiz-adv-x="1466" d="M1321 1575l-47 -416h-903l-62 -330q86 97 215 150t285 53q133 0 238.5 -40t170.5 -109t98.5 -157t33.5 -189q0 -255 -179 -410.5t-514 -155.5q-87 0 -180 21t-176 60t-136.5 105t-53.5 146q0 59 42.5 99t110.5 40q35 0 64 -13.5t47 -30.5t34.5 -48t23.5 -50.5t18 -53.5 q32 -107 83 -167.5t130 -60.5q113 0 182 99t69 258q0 78 -17.5 141.5t-55 116t-104.5 81.5t-158 29q-78 0 -190 -36.5t-169 -106.5l-18 4l151 871h729q90 0 139 22.5t72 77.5h27z" />
<glyph unicode="6" horiz-adv-x="1447" d="M1214 1608l15 -31q-281 -121 -430.5 -290t-218.5 -449q65 81 142.5 118t192.5 37q63 0 123.5 -15t118 -50.5t100.5 -88.5t69 -134t26 -181q0 -250 -177 -401.5t-466 -151.5q-158 0 -276.5 46t-191.5 132t-109 202.5t-36 262.5q0 189 76 348.5t221 282.5t350.5 214 t470.5 149zM735 854q-90 0 -160 -68q-30 -128 -30 -268q0 -80 3 -145t13 -135.5t26.5 -118t45.5 -78.5t69 -31q191 0 191 492q0 183 -39 267.5t-119 84.5z" />
<glyph unicode="7" horiz-adv-x="1234" d="M61 57l1000 1102h-608q-124 0 -201 -69t-98 -187h-21v572h1184l-967 -1635z" />
<glyph unicode="8" horiz-adv-x="1386" d="M483 692l-34 23q-155 97 -224 205.5t-69 240.5q0 178 162.5 282.5t433.5 104.5q224 0 357.5 -74t133.5 -204q0 -109 -100 -194t-303 -107l82 -45q95 -52 164 -103.5t111 -99t66.5 -100.5t33 -101.5t8.5 -109.5q0 -81 -43 -158.5t-123 -140.5t-208 -101.5t-284 -38.5 q-259 0 -412 96t-153 273q0 135 106 223.5t295 128.5zM430 369q0 -103 20 -178.5t70.5 -124t128.5 -48.5q110 0 166.5 67.5t56.5 172.5q0 98 -57 181t-217 184l-82 49q-42 -53 -64 -134t-22 -169zM756 1022l63 -41q96 126 96 283q0 237 -163 237q-70 0 -120 -46.5 t-50 -145.5q0 -56 13 -100t39 -78.5t53.5 -58t68.5 -50.5z" />
<glyph unicode="9" horiz-adv-x="1423" d="M209 -123l-14 31q281 121 430.5 290t218.5 449q-65 -80 -143 -117.5t-193 -37.5q-63 0 -123 15t-117.5 50.5t-100.5 88.5t-69 134t-26 181q0 250 177 401t466 151q158 0 276.5 -46t191.5 -132t108.5 -202.5t35.5 -262.5q0 -189 -76 -348t-221 -282.5t-350.5 -214 t-470.5 -148.5zM688 631q91 0 160 67q31 132 31 269q0 80 -3 145t-13 135.5t-27 118t-46 78.5t-69 31q-191 0 -191 -492q0 -183 39 -267.5t119 -84.5z" />
<glyph unicode=":" horiz-adv-x="581" d="M35 225q0 106 75 181t181 75t181 -75t75 -181t-75 -181t-181 -75t-181 75t-75 181zM35 776q0 106 75 181t181 75t181 -75t75 -181t-75 -181t-181 -75t-181 75t-75 181z" />
<glyph unicode=";" horiz-adv-x="581" d="M35 776q0 106 75 181t181 75t181 -75t75 -181t-75 -181t-181 -75t-181 75t-75 181zM240 -23q-87 10 -146 84.5t-59 163.5q0 106 74.5 181t181.5 75q122 0 189 -82t67 -204q0 -91 -54 -191.5t-152.5 -184.5t-215.5 -122l-8 12q43 26 83 113.5t40 154.5z" />
<glyph unicode="&#x3c;" horiz-adv-x="1124" d="M96 471v96l1034 463v-110l-913 -400l913 -432v-115z" />
<glyph unicode="=" horiz-adv-x="1122" d="M96 287v96h930v-96h-930zM96 655v97h930v-97h-930z" />
<glyph unicode="&#x3e;" horiz-adv-x="1124" d="M1028 567v-96l-1034 -498v115l913 432l-913 400v110z" />
<glyph unicode="?" horiz-adv-x="987" d="M471 1708q234 0 357.5 -79t123.5 -234q0 -60 -27.5 -123t-70.5 -119t-94.5 -114.5t-100.5 -118t-87 -120t-56 -131t-6 -141.5l-14 -12q-154 42 -224.5 100t-70.5 162q0 55 35 121.5t85 132t100 134.5t85 151t35 160q0 98 -17.5 145t-56.5 47q-21 0 -33.5 -9t-16.5 -28 t-4.5 -37.5t-0.5 -49.5t-2 -52q-7 -78 -55.5 -132t-143.5 -54q-76 0 -116 50t-40 107q0 72 59 129t153 86t204 29zM205 225q0 106 75 181t181 75t181 -75t75 -181t-75 -181t-181 -75t-181 75t-75 181z" />
<glyph unicode="@" horiz-adv-x="2009" d="M1415 285q-96 0 -172.5 27.5t-123.5 73.5t-73 101t-30 115q-49 -124 -142.5 -183t-199.5 -59q-150 0 -227.5 102.5t-77.5 252.5q0 160 86.5 295t235.5 212.5t325 77.5q68 0 127 -26l12 43h410l-105 -563q-16 -88 -22 -143t-1.5 -102.5t27 -69t64.5 -21.5 q113 0 197.5 121.5t84.5 345.5q0 225 -98.5 392t-274.5 254t-407 87q-168 0 -320.5 -65.5t-264 -177t-177 -268t-65.5 -331.5q0 -174 60.5 -318t167.5 -241.5t255 -151t322 -53.5q103 0 241 29l17 -82q-123 -33 -281 -33q-255 0 -456.5 103t-317 297t-115.5 448 q0 193 73 365.5t198.5 297t301.5 197t375 72.5q137 0 263 -30.5t237 -96t192.5 -160t129 -232t47.5 -302.5q0 -264 -141 -432t-357 -168zM891 547q75 0 131 135l61 328q9 120 -2.5 186t-58.5 66q-42 0 -92 -96t-83.5 -229.5t-33.5 -236.5q0 -153 78 -153z" />
<glyph unicode="A" horiz-adv-x="1685" d="M971 213l-101 283h-475l-35 -111q-61 -187 -35 -267.5t150 -80.5v-37h-481v37q93 0 164.5 79.5t132.5 266.5l418 1290h206l553 -1487q30 -82 82.5 -115.5t141.5 -33.5v-37h-877v37q42 0 70 3t54 13.5t37.5 29t11 51.5t-16.5 79zM623 1194l-187 -573h389z" />
<glyph unicode="B" horiz-adv-x="1638" d="M66 1673h731q154 0 273 -20.5t192.5 -53.5t120.5 -81t65 -97.5t18 -107.5q0 -163 -140.5 -286t-375.5 -150q281 0 441.5 -107t160.5 -305q0 -104 -36 -185t-97.5 -133t-149 -85.5t-183.5 -47.5t-209 -14h-811v33q63 0 100 9t55.5 33t23.5 52t5 80v1278q0 49 -5 75 t-24 46.5t-55 27t-100 6.5v33zM709 850v-809q167 0 269.5 110t102.5 289q0 112 -42 203.5t-128 149t-202 57.5zM709 1628v-749q94 1 164 57.5t102.5 140.5t32.5 180q0 103 -36 186.5t-104.5 133.5t-158.5 51z" />
<glyph unicode="C" horiz-adv-x="1662" d="M1534 1108h-25q-28 125 -75.5 223.5t-101.5 158t-117.5 98.5t-119.5 54t-112 15q-191 0 -301.5 -218.5t-110.5 -611.5q0 -250 46.5 -427t144 -275t239.5 -98q44 0 87.5 9t95 30.5t98.5 62t91 98t80 145.5t58 197h25v-485q-243 -113 -567 -113q-184 0 -333.5 47.5 t-250.5 128.5t-169.5 192t-99 234.5t-30.5 260.5q0 264 109 463t307.5 306t460.5 107q318 0 573 -102z" />
<glyph unicode="D" horiz-adv-x="1794" d="M66 1673h665q471 0 724 -217.5t253 -607.5q0 -250 -103.5 -442t-298.5 -299t-454 -107h-786v33q62 0 99.5 9t55.5 31t23.5 48t5.5 72v1263q0 56 -5 86t-24 55t-55.5 34t-99.5 9v33zM709 1626v-1413q0 -100 35 -134t122 -34q357 0 357 807q0 176 -29.5 312.5t-78 222 t-116.5 141t-138.5 77t-151.5 21.5z" />
<glyph unicode="E" horiz-adv-x="1507" d="M1096 1217v-740h-23q-27 163 -121 254.5t-243 91.5v-647q0 -73 29 -100t116 -27q99 0 184.5 33.5t143.5 86t102 122.5t67.5 137.5t34.5 136.5h25v-565h-1345v33q62 0 99.5 9t56 32t23.5 50.5t5 76.5v1261q0 53 -5 82t-24 53.5t-55.5 33.5t-99.5 9v33h1312v-553h-24 q-11 64 -39.5 131.5t-77 134t-110 118.5t-146.5 84t-178 32h-94v-750q149 0 243 92t121 255h23z" />
<glyph unicode="F" horiz-adv-x="1382" d="M954 0h-888v33q62 0 99.5 9t56 32t23.5 50.5t5 76.5v1261q0 53 -5 82t-24 53.5t-55.5 33.5t-99.5 9v33h1312v-553h-24q-11 65 -37.5 131t-73 131.5t-107 116t-147 82t-184.5 31.5h-96v-721q150 0 247 92t123 254h23v-739h-23q-26 162 -123 254t-247 92v-651 q0 -40 3.5 -63t17 -46t40 -34t71.5 -18t113 -7v-25z" />
<glyph unicode="G" horiz-adv-x="1759" d="M983 1657q-180 0 -296 -221.5t-116 -608.5q0 -371 96 -583.5t263 -212.5q114 0 170.5 59.5t56.5 208.5v244q0 103 -40 139.5t-156 36.5v29h763v-29q-37 0 -60 -6t-37.5 -16t-21 -33.5t-8.5 -48.5t-2 -72v-226q0 -158 -180.5 -252t-482.5 -94q-178 0 -322.5 47.5 t-240.5 128t-161 192t-93.5 235t-28.5 260.5q0 264 109 463t307.5 306t460.5 107q318 0 573 -102l-2 -500h-25q-28 125 -75.5 223.5t-101.5 158t-117.5 98.5t-119.5 54t-112 15z" />
<glyph unicode="H" horiz-adv-x="1941" d="M1233 197v641h-524v-645q0 -46 5.5 -72t23.5 -48t55.5 -31t99.5 -9v-33h-827v33q62 0 99.5 9t56 31.5t23.5 49t5 74.5v1284q0 46 -5.5 71.5t-23.5 48t-55.5 31t-99.5 8.5v33h827v-33q-50 0 -83.5 -6.5t-53.5 -17.5t-30.5 -32.5t-13.5 -43t-3 -57.5v-570h524v568 q0 46 -5.5 71.5t-23.5 48t-55.5 31t-99.5 8.5v33h827v-33q-50 0 -83.5 -6.5t-53.5 -17.5t-30.5 -32.5t-13.5 -43t-3 -57.5v-1290q0 -46 5.5 -72t23.5 -48t55.5 -31t99.5 -9v-33h-827v33q62 0 99.5 9t56 31.5t23.5 49t5 74.5z" />
<glyph unicode="I" horiz-adv-x="958" d="M250 197v1284q0 46 -5.5 71.5t-23.5 48t-55.5 31t-99.5 8.5v33h827v-33q-50 0 -83.5 -6.5t-53.5 -17.5t-30.5 -32.5t-13.5 -43t-3 -57.5v-1290q0 -46 5.5 -72t23.5 -48t55.5 -31t99.5 -9v-33h-827v33q62 0 99.5 9t56 31.5t23.5 49t5 74.5z" />
<glyph unicode="J" horiz-adv-x="1241" d="M453 -29q-185 0 -306.5 71.5t-121.5 193.5q0 75 46 129.5t132 54.5q90 0 142.5 -63t60.5 -158q5 -47 1.5 -88.5t5 -70t36.5 -28.5q104 0 104 600v842q0 56 -5 86.5t-24 56t-55.5 34.5t-99.5 9v33h827v-33q-63 0 -99.5 -9t-55.5 -34t-24 -55t-5 -86v-844q0 -641 -559 -641 z" />
<glyph unicode="K" horiz-adv-x="1816" d="M250 197v1284q0 46 -5.5 71.5t-23.5 48t-55.5 31t-99.5 8.5v33h827v-33q-50 0 -83.5 -6.5t-53.5 -17.5t-30.5 -32.5t-13.5 -43t-3 -57.5v-647l424 497q68 80 96.5 140t18 95t-47 51.5t-98.5 16.5v37h631v-37q-50 0 -104.5 -13.5t-122.5 -46t-146.5 -97.5t-155.5 -156 l-153 -180l536 -932q101 -174 246 -174v-37h-672l-452 817v-624q0 -46 5.5 -72t23.5 -48t55.5 -31t99.5 -9v-33h-827v33q62 0 99.5 9t56 31.5t23.5 49t5 74.5z" />
<glyph unicode="L" horiz-adv-x="1490" d="M709 1462v-1288q0 -75 23 -101t108 -26q91 0 168 22.5t130 58t97 89t70 103.5t47 114.5t30.5 110.5t18.5 102h24v-647h-1359v33q62 0 99.5 9t56 32t23.5 50.5t5 76.5v1261q0 53 -5 82t-24 53.5t-55.5 33.5t-99.5 9v33h827v-33q-63 0 -99.5 -9t-55.5 -33.5t-24 -53.5 t-5 -82z" />
<glyph unicode="M" horiz-adv-x="2193" d="M270 403l43 1045q4 97 -49 141.5t-164 44.5v39h645l402 -1007l352 1007h610v-39q-102 0 -150.5 -42.5t-45.5 -123.5l51 -1312q3 -65 40.5 -94t143.5 -29v-33h-827v33q107 0 146.5 29.5t37.5 93.5l-45 1200l-491 -1376h-23l-571 1372l-35 -949q-3 -89 9 -155t35 -106.5 t58.5 -65.5t74 -34t87.5 -9v-33h-614v33q63 0 109.5 16.5t85 56t60 114t25.5 183.5z" />
<glyph unicode="N" horiz-adv-x="1738" d="M1475 1243v-1245h-220l-895 1309v-875q0 -213 59.5 -306t203.5 -93v-33h-598v33q147 0 208.5 94.5t61.5 302.5v973q-146 237 -229 237v33h636l707 -1040v608q0 213 -59 306t-203 93v33h598v-33q-147 0 -208.5 -94.5t-61.5 -302.5z" />
<glyph unicode="O" d="M1284 836q0 829 -350 829q-352 0 -352 -829q0 -820 352 -820q350 0 350 820zM1780 838q0 -263 -101.5 -459t-293.5 -302t-451 -106q-260 0 -452.5 108.5t-294 306.5t-101.5 462q0 397 227.5 629.5t620.5 232.5q403 0 624.5 -234.5t221.5 -637.5z" />
<glyph unicode="P" horiz-adv-x="1521" d="M66 1673h643q134 0 242.5 -11t213.5 -42.5t175.5 -82t113.5 -133.5t43 -194q0 -127 -47 -222.5t-130.5 -152t-189 -83.5t-231.5 -27q-105 0 -190 12v-540q0 -38 3 -61t14.5 -45t33.5 -33t59.5 -18t93.5 -7v-33h-847v33q62 0 99.5 9t56 32t23.5 50t5 75v1284q0 36 -3 57.5 t-13.5 43t-30.5 32.5t-53.5 17.5t-83.5 6.5v33zM709 1628v-866q63 3 117.5 29.5t99.5 78t70.5 138.5t25.5 200q0 207 -90.5 313.5t-222.5 106.5z" />
<glyph unicode="Q" d="M1780 838q0 -249 -91 -437.5t-259 -296.5l276 -477l-20 -12l-801 358q-246 10 -427 120.5t-276.5 304.5t-95.5 450q0 397 227.5 629.5t620.5 232.5q403 0 624.5 -234.5t221.5 -637.5zM1284 836q0 829 -350 829q-352 0 -352 -829q0 -820 352 -820q350 0 350 820z" />
<glyph unicode="R" horiz-adv-x="1796" d="M66 1673h661q99 0 176 -3.5t160 -13t144 -26.5t118.5 -45.5t93 -67t57 -94t21.5 -125.5q0 -182 -154.5 -291t-429.5 -130q139 -3 256 -47t199.5 -134t101.5 -213l11 -67q18 -119 42.5 -190.5t66.5 -113t90 -58t132 -27.5v-21q-152 -35 -305 -35q-230 0 -358 111t-150 317 l-12 119q-13 133 -95 227t-183 99v-654q0 -36 3 -57.5t13.5 -43t30.5 -32.5t53.5 -17.5t83.5 -6.5v-33h-827v33q62 0 99.5 9t55.5 31t23.5 48t5.5 72v1294q0 43 -5.5 67.5t-23.5 46.5t-55.5 30.5t-99.5 8.5v33zM709 1632v-751q57 3 100 13.5t85.5 36.5t69.5 67t43.5 107.5 t16.5 156.5q0 193 -82.5 279t-232.5 91z" />
<glyph unicode="S" horiz-adv-x="1419" d="M1227 1595v-497h-31q-28 143 -80 253.5t-113.5 172.5t-122.5 92.5t-118 30.5q-116 0 -187 -73.5t-71 -184.5q0 -101 54.5 -176.5t154.5 -112.5l186 -68q94 -34 167 -76.5t136 -105t97 -150t34 -196.5q0 -131 -53.5 -234t-147 -167.5t-215 -98t-262.5 -33.5 q-279 0 -528 123v524h29q30 -142 76.5 -249.5t94.5 -169t106 -99.5t105.5 -50.5t98.5 -12.5q130 0 204 91t74 216q0 98 -63 177t-178 118l-154 53q-97 33 -169 81.5t-113.5 100.5t-66.5 116t-33.5 120t-8.5 121q0 146 79 256t214.5 166.5t308.5 56.5q266 0 496 -115z" />
<glyph unicode="T" horiz-adv-x="1617" d="M25 1120v553h1568v-553h-24q-11 65 -37 132t-72 135t-104.5 120.5t-141.5 85.5t-176 33v-1415q0 -68 18.5 -104t77 -55t171.5 -19v-33h-992v33q113 0 171.5 19t77 55t18.5 104v1415q-93 0 -176 -33t-141.5 -85.5t-104.5 -120.5t-72 -135t-37 -132h-24z" />
<glyph unicode="U" horiz-adv-x="1808" d="M1513 1202v-551q0 -326 -147.5 -503t-456.5 -177q-340 0 -520 172t-180 488v827q0 55 -5 84.5t-24 54.5t-55.5 34t-99.5 9v33h827v-33q-63 0 -99.5 -9t-55.5 -34t-24 -54.5t-5 -84.5v-844q0 -248 95 -370.5t271 -122.5q414 0 414 534v545q0 219 -60.5 329.5t-201.5 110.5 v33h598v-33q-144 0 -207.5 -112t-63.5 -326z" />
<glyph unicode="V" horiz-adv-x="1583" d="M653 1458l348 -981l236 725q138 432 -88 432v37h440v-37q-84 -6 -148.5 -112t-133.5 -318l-392 -1204h-206l-553 1485q-29 79 -67 110.5t-95 38.5v37h815v-37q-42 0 -70 -3t-54 -13.5t-37.5 -29t-11 -51.5t16.5 -79z" />
<glyph unicode="W" horiz-adv-x="2385" d="M1559 1458l280 -932l197 676q23 79 35.5 142t14.5 118.5t-11 92.5t-43.5 58t-79.5 21v37h440v-37q-85 -6 -150 -113.5t-128 -316.5l-361 -1204h-207l-358 1114l-350 -1114h-207l-465 1485q-28 78 -70.5 110t-101.5 39v37h805v-37q-34 0 -57.5 -2t-45 -8.5t-32.5 -18.5 t-17 -31t-1.5 -48t18.5 -68l251 -971l230 715l-84 283q-29 79 -67 110.5t-95 38.5v37h815v-37q-35 0 -59 -2t-48.5 -8.5t-38 -18.5t-21.5 -31t-4.5 -48t16.5 -68z" />
<glyph unicode="X" horiz-adv-x="1826" d="M1323 1313l-225 -269l520 -894q64 -113 215 -113v-37h-864v37q86 0 124 29.5t1 93.5l-301 518l-285 -342q-57 -69 -84.5 -122.5t-27.5 -86t19.5 -53.5t49 -29t67.5 -8v-37h-538v37q65 0 118 21t135 93.5t195 208.5l316 377l-455 787q-66 112 -213 112v37h862v-37 q-195 0 -110 -149l221 -383l194 233q57 69 84.5 122.5t27.5 86t-19.5 53.5t-49 29t-67.5 8v37h539v-37q-48 0 -87.5 -11.5t-92.5 -44.5t-118 -98.5t-151 -168.5z" />
<glyph unicode="Y" horiz-adv-x="1687" d="M1008 844l233 493q39 81 53 138.5t9.5 88.5t-29.5 47.5t-51 20.5t-68 4v37h539v-37q-31 0 -50.5 -1.5t-50 -8t-53 -18.5t-53 -35.5t-57.5 -57.5t-59 -85t-64 -117l-258 -529v-591q0 -46 5.5 -72t23.5 -48t55.5 -31t99.5 -9v-33h-827v33q62 0 99.5 9t56 31.5t23.5 49 t5 74.5v510l-383 817q-66 112 -213 112v37h862v-37q-196 0 -111 -149z" />
<glyph unicode="Z" horiz-adv-x="1495" d="M66 0l845 1610h-182q-112 0 -198.5 -31t-137 -77t-85 -112.5t-48 -122.5t-20.5 -122h-31v528h1200l-836 -1614h332q95 0 173 28.5t129 74.5t88 110t55.5 128.5t25.5 136.5h29v-537h-1339z" />
<glyph unicode="[" horiz-adv-x="600" d="M178 1710h418v-92h-313v-2126h313v-92h-418v2310z" />
<glyph unicode="\" horiz-adv-x="786" d="M684 -68l-702 1780h108l703 -1780h-109z" />
<glyph unicode="]" horiz-adv-x="600" d="M4 1710h418v-2310h-418v96h313v2118h-313v96z" />
<glyph unicode="^" horiz-adv-x="1085" d="M477 1712h96l416 -850h-115l-350 729l-317 -729h-111z" />
<glyph unicode="_" horiz-adv-x="1587" d="M117 -98v98h1353v-98h-1353z" />
<glyph unicode="`" horiz-adv-x="526" d="M461 1118l-406 479h416v-479h-10z" />
<glyph unicode="a" horiz-adv-x="1165" d="M307 -29q-126 0 -204 74t-78 195q0 139 138 225t412 86v264q0 98 -14 142t-47 44q-22 0 -35.5 -10.5t-19 -32.5t-6.5 -42.5t0 -53.5q4 -215 -185 -215q-77 0 -116 49t-39 111q0 59 37 104.5t100 72.5t140 40.5t163 13.5q212 0 326.5 -70.5t113.5 -232.5l-4 -489 q-1 -70 23.5 -102.5t64.5 -32.5q48 0 107 39l8 -9q-38 -83 -125.5 -126.5t-194.5 -43.5q-221 0 -284 156q-30 -49 -69.5 -82.5t-80.5 -48t-71 -20t-60 -5.5zM580 147v377q-88 -14 -126 -81t-38 -156q0 -81 24.5 -121.5t67.5 -40.5q39 0 72 22z" />
<glyph unicode="b" horiz-adv-x="1415" d="M621 0h-617v33q42 0 73 4.5t50.5 15t31 21.5t17 31t7 36.5t1.5 44.5v1295q0 36 -2 56t-10.5 42.5t-25 34t-46.5 19t-75 7.5v33h596v-792q108 163 294 163q106 0 191 -44.5t138.5 -119.5t81.5 -171t28 -203q0 -106 -29 -202t-82 -170.5t-135 -118.5t-182 -44 q-88 0 -168 41t-137 119v-131zM903 506q0 62 -8.5 121.5t-28 119t-58.5 96t-93 36.5q-52 0 -94 -23v-702q39 -21 94 -21q51 0 90 37.5t59 97t29.5 120t9.5 118.5z" />
<glyph unicode="c" horiz-adv-x="1089" d="M631 1001q-47 0 -84 -106.5t-37 -269.5q0 -108 15 -195t46.5 -154t83.5 -103t123 -36q149 0 260 158l15 -8q-61 -157 -168.5 -236.5t-280.5 -79.5q-130 0 -234.5 41t-171 113.5t-102 170t-35.5 212.5q0 240 150 385t426 145q169 0 287 -66t118 -175q0 -35 -14.5 -69.5 t-51.5 -61.5t-89 -27q-95 0 -143.5 54t-55.5 132q-2 21 -2 52t-0.5 49.5t-4.5 37.5t-16.5 28t-33.5 9z" />
<glyph unicode="d" horiz-adv-x="1415" d="M1411 0h-616v131q-57 -78 -137.5 -119t-168.5 -41q-100 0 -182 44t-135 118.5t-82 170.5t-29 202q0 107 29.5 203t84.5 171t141 119.5t192 44.5q83 0 153.5 -35.5t133.5 -127.5v602q0 43 -4.5 67t-21.5 47.5t-54.5 33t-100.5 9.5v33h617v-1487q0 -28 1.5 -44.5t7 -36.5 t17 -31t31 -21.5t50.5 -15t73 -4.5v-33zM512 506q0 -58 9.5 -118.5t29.5 -120t59 -97t90 -37.5q54 0 95 21v702q-45 23 -95 23q-54 0 -93 -36.5t-58.5 -96t-28 -119t-8.5 -121.5z" />
<glyph unicode="e" horiz-adv-x="1130" d="M1090 606h-580v-28q0 -116 23.5 -203.5t64.5 -137.5t90 -74t107 -24q153 0 276 160l16 -8q-132 -320 -460 -320q-269 0 -417.5 150.5t-148.5 394.5q0 230 150 376t405 146q105 0 191 -34t144 -93t93.5 -136.5t45.5 -168.5zM618 999q-45 0 -73.5 -91t-34.5 -261h184 q-1 57 -1.5 86.5t-3 79t-7.5 76t-13 55.5t-21 42t-30 13z" />
<glyph unicode="f" horiz-adv-x="884" d="M6 991h160v191q0 136 38 238t108 162.5t162 90t206 29.5q176 0 296 -66.5t120 -175.5q0 -36 -15 -74.5t-54 -71t-93 -32.5q-92 0 -142.5 53t-58.5 144q-5 47 -0.5 88.5t-5.5 69.5t-43 28q-52 -1 -67 -102t-15 -375v-197h279v-65h-279v-744q0 -55 18 -85t71 -47t153 -17 v-33h-838v33q55 0 89 9.5t48.5 31.5t18.5 42.5t4 57.5v645q0 36 -4 56.5t-18.5 42t-48.5 31t-89 9.5v33z" />
<glyph unicode="g" horiz-adv-x="1269" d="M604 326q-53 0 -80 4q-69 -47 -69 -105q0 -86 178 -86h90q151 0 264 -32.5t181.5 -105t68.5 -179.5q0 -100 -52.5 -182t-141.5 -135t-203 -82t-240 -29q-259 0 -412 79.5t-153 182.5q0 66 100 108t334 68q-96 3 -170 28.5t-114.5 64t-60.5 79t-20 80.5q0 188 377 252 q-162 29 -269.5 120.5t-107.5 221.5q0 166 125.5 259t374.5 93q137 0 252 -39h420v-71h-287q117 -93 117 -242q0 -166 -126 -259t-376 -93zM365 -373q0 -82 59.5 -138t196.5 -56q126 0 204 54.5t78 162.5q0 92 -74 137t-198 45h-123q-63 -22 -103 -78t-40 -127zM717 678 q0 54 -4.5 102.5t-15.5 99.5t-35 81t-58 30q-33 0 -55.5 -30t-33 -81t-15 -99.5t-4.5 -102.5q0 -53 4.5 -101t15 -99.5t33 -82t55.5 -30.5t57 29t35.5 78.5t16 99.5t4.5 106z" />
<glyph unicode="h" horiz-adv-x="1406" d="M174 162v1349q0 25 -4 43t-16.5 40t-43 34t-77.5 12v33h571v-897q28 120 114 191t210 71q59 0 114 -19.5t101 -57.5t74 -102t28 -146v-553q0 -19 2 -33t11 -33t25 -31t47 -21t75 -9v-33h-590v709q0 81 -21 116t-73 35q-43 0 -77 -42t-40 -105v-551q0 -25 4 -43t16.5 -40 t43 -34t77.5 -12v-33h-731v33q55 0 89 9.5t48.5 30t18.5 39t4 50.5z" />
<glyph unicode="i" horiz-adv-x="784" d="M174 193v626q0 36 -4 56.5t-18.5 42t-48.5 31t-89 9.5v33h596v-805q0 -42 4 -65t19 -46t48.5 -32.5t88.5 -9.5v-33h-756v33q37 0 64.5 4.5t44.5 15t27.5 22.5t15.5 32.5t6.5 38.5t1.5 47zM137 1448q0 106 75 181t181 75t181 -75t75 -181t-75 -181t-181 -75t-181 75 t-75 181z" />
<glyph unicode="j" horiz-adv-x="716" d="M563 991v-899q0 -77 -13 -144.5t-51 -146.5t-100.5 -150.5t-167 -150.5t-245.5 -153l-15 16q51 55 85 141.5t48 195.5t18.5 195t4.5 197v705q0 36 -2 56.5t-10.5 43.5t-25.5 34.5t-47 19t-75 7.5v33h596zM82 1448q0 106 75 181t181 75t181 -75t75 -181t-75 -181t-181 -75 t-181 75t-75 181z" />
<glyph unicode="k" horiz-adv-x="1527" d="M174 193v1308q0 36 -4 57.5t-18.5 45t-48.5 34.5t-89 11v24h596v-1157l346 281q82 71 44.5 114t-156.5 43v37h579v-37q-132 0 -222.5 -41.5t-237.5 -164.5l280 -517q34 -64 71 -105t76 -59t70 -24t74 -6v-37h-647l-277 516v-330q0 -33 2 -52.5t9.5 -41t22.5 -33t41.5 -19 t64.5 -7.5v-33h-736v33q37 0 64.5 4.5t44.5 15t27.5 22.5t15.5 32.5t6.5 38.5t1.5 47z" />
<glyph unicode="l" horiz-adv-x="763" d="M164 193v1308q0 36 -4 56.5t-18.5 42t-48.5 31t-89 9.5v33h596v-1487q0 -42 4 -65t19 -46t48.5 -32.5t88.5 -9.5v-33h-756v33q37 0 64.5 4.5t44.5 15t27.5 22.5t15.5 32.5t6.5 38.5t1.5 47z" />
<glyph unicode="m" horiz-adv-x="2048" d="M745 33v-33h-731v33q55 0 89 9.5t48.5 30t18.5 39t4 50.5v643q0 34 -2 53.5t-10.5 41t-25.5 32t-47 17.5t-75 7v35h590v-215q28 120 114 191t210 71q114 0 204.5 -70t108.5 -202q28 126 116.5 199t211.5 73q59 0 114 -19.5t101 -57.5t74 -102t28 -146v-553q0 -19 2 -33 t11 -33t25 -31t47 -21t75 -9v-33h-590v709q0 81 -21 116t-73 35q-43 0 -77 -42t-40 -105v-553q0 -19 2 -33t11 -33t25 -31t47 -21t75 -9v-33h-590v709q0 81 -21 116t-73 35q-43 0 -77 -42t-40 -105v-551q0 -25 4 -43t16.5 -40t43 -34t77.5 -12z" />
<glyph unicode="n" horiz-adv-x="1406" d="M745 33v-33h-731v33q55 0 89 9.5t48.5 30t18.5 39t4 50.5v643q0 34 -2 53.5t-10.5 41t-25.5 32t-47 17.5t-75 7v35h590v-215q28 120 114 191t210 71q59 0 114 -19.5t101 -57.5t74 -102t28 -146v-553q0 -19 2 -33t11 -33t25 -31t47 -21t75 -9v-33h-590v709q0 81 -21 116 t-73 35q-43 0 -77 -42t-40 -105v-551q0 -25 4 -43t16.5 -40t43 -34t77.5 -12z" />
<glyph unicode="o" horiz-adv-x="1298" d="M61 502q0 247 152.5 388.5t435.5 141.5t435.5 -141.5t152.5 -388.5t-152.5 -389t-435.5 -142t-435.5 141.5t-152.5 389.5zM649 12q36 0 62 29t40.5 73.5t23 113.5t11 133t2.5 147t-2.5 145.5t-11 129.5t-23 110t-40.5 70.5t-62 27.5q-44 0 -73 -39t-42.5 -113.5 t-18.5 -150.5t-5 -182q0 -105 5 -183t19 -154t43 -116.5t72 -40.5z" />
<glyph unicode="p" horiz-adv-x="1415" d="M4 991h617v-110q108 163 294 163q106 0 191 -44.5t138.5 -119.5t81.5 -171t28 -203q0 -106 -29 -202t-82 -170.5t-135 -118.5t-182 -44q-88 0 -168 41t-137 119v-520q0 -29 1.5 -46t7 -38t17 -32.5t31 -22t50.5 -15t73 -4.5v-33h-776v33q45 0 75 7.5t46.5 19t25 34.5 t10.5 43t2 56v1192q0 28 -1.5 44.5t-7 36.5t-17 31t-31 21.5t-50.5 15t-73 4.5v33zM903 506q0 62 -8.5 121.5t-28 119t-58.5 96t-93 36.5q-47 0 -94 -23v-702q43 -21 94 -21t90 37.5t59 97t29.5 120t9.5 118.5z" />
<glyph unicode="q" horiz-adv-x="1421" d="M795 991h616v-33q-42 0 -73 -4.5t-50.5 -15t-31 -21.5t-17 -31t-7 -36.5t-1.5 -44.5v-1192q0 -29 1.5 -47t6.5 -38.5t15.5 -32.5t27.5 -22.5t44.5 -15t64.5 -4.5v-33h-777v33q42 0 73 4.5t50.5 15t31.5 22t17.5 32t7 38t1.5 46.5v520q-57 -78 -137.5 -119t-168.5 -41 q-100 0 -182 44t-135 118.5t-82 170.5t-29 202q0 107 29.5 203t84.5 171t141 119.5t192 44.5q83 0 153.5 -35.5t133.5 -127.5v110zM512 506q0 -58 9.5 -118.5t29.5 -120t59 -97t90 -37.5q52 0 95 21v702q-45 23 -95 23q-54 0 -93 -36.5t-58.5 -96t-28 -119t-8.5 -121.5z" />
<glyph unicode="r" horiz-adv-x="1062" d="M604 713v-551q0 -25 4.5 -42.5t20.5 -40t56 -34.5t101 -12v-33h-772v33q55 0 89 9.5t48.5 30t18.5 39t4 50.5v643q0 34 -2 53.5t-10.5 41t-25.5 32t-47 17.5t-75 7v35h590v-235q25 70 58 123t64 81.5t66.5 46t60.5 22.5t50 5q100 0 148.5 -56t48.5 -147 q0 -73 -43.5 -125.5t-122.5 -52.5q-43 0 -75 16.5t-50 39.5t-32 46t-30 39.5t-36 16.5q-32 0 -60.5 -27.5t-46.5 -70.5z" />
<glyph unicode="s" horiz-adv-x="1019" d="M430 33q71 0 111.5 39.5t40.5 97.5q0 129 -150 176l-70 23q-286 92 -286 358q0 146 129.5 228.5t337.5 82.5q56 0 129 -15.5t131 -39.5l67 41h19v-389h-33q-43 185 -113.5 267.5t-185.5 82.5q-56 0 -87.5 -36t-31.5 -87q0 -72 37 -112.5t111 -65.5l71 -25 q71 -24 125 -57.5t85.5 -68.5t51.5 -75.5t26.5 -73.5t6.5 -67q0 -162 -125 -254t-354 -92q-164 0 -293 82l-78 -67h-18v409h33q17 -89 46 -156t60 -105.5t70 -62t71 -31t66 -7.5z" />
<glyph unicode="t" horiz-adv-x="880" d="M4 924v67h156l399 428h19v-428h299v-67h-299v-674q0 -162 124 -162q78 0 172 53l13 -20q-160 -150 -393 -150q-164 0 -256.5 74.5t-92.5 233.5v645h-141z" />
<glyph unicode="u" horiz-adv-x="1400" d="M676 958v33h571v-805q0 -34 2 -53.5t10.5 -41t25.5 -32t47 -17.5t75 -7v-35h-590v233q-28 -120 -113.5 -191t-209.5 -71q-59 0 -114 19.5t-101.5 57.5t-74.5 102.5t-28 146.5v534q0 19 -2 33t-11 33t-25 31t-47 21t-75 9v33h590v-690q0 -81 21 -116t73 -35q43 0 77 42 t40 105v532q0 25 -4 43t-16.5 40t-43 34t-77.5 12z" />
<glyph unicode="v" horiz-adv-x="1081" d="M702 420l91 242q31 82 43.5 137.5t12 86t-17.5 46t-36 19t-54 3.5v37h346v-37q-42 0 -75 -23t-74 -92.5t-90 -197.5l-252 -653h-127l-363 854q-28 60 -52.5 86t-59.5 26v37h641v-37q-77 0 -102 -21.5t-5 -70.5z" />
<glyph unicode="w" horiz-adv-x="1767" d="M442 -12l-336 854q-22 59 -48.5 85.5t-63.5 26.5v37h641v-37q-77 0 -100.5 -20.5t-6.5 -71.5l154 -452l154 415q-53 129 -158 129v37h680v-37q-77 0 -100.5 -20t-6.5 -72l152 -456l76 217q36 102 47.5 169.5t-0.5 102t-35.5 47t-63.5 12.5v37h347v-37q-59 0 -114 -79 t-126 -273l-242 -614h-127l-297 762l-299 -762h-127z" />
<glyph unicode="x" horiz-adv-x="1308" d="M416 317l82 89l-271 436q-35 56 -78.5 84t-109.5 28v37h700v-37q-37 0 -58.5 -5t-28 -15t-2.5 -23t16 -32l108 -177l21 21q133 142 119 192q-11 39 -101 39v37h440v-37q-86 0 -181 -62.5t-220 -195.5l-45 -47l313 -499q38 -60 77 -86.5t118 -26.5v-37h-735v37 q75 0 100.5 20t1.5 56l-152 239l-57 -61q-52 -56 -81 -101t-34.5 -80t21.5 -54t88 -19v-37h-473v37q91 0 182.5 61t239.5 219z" />
<glyph unicode="y" horiz-adv-x="1257" d="M276 -541q49 0 118.5 77.5t148.5 262.5l73 174l-401 869q-19 44 -34.5 65t-48.5 35t-89 14v35h700v-35q-76 0 -101 -22t-5 -72l178 -434l86 195q60 135 71.5 207.5t-18 99t-104.5 26.5v35h414v-35q-47 0 -79.5 -13.5t-67 -55.5t-67.5 -106t-83 -179l-389 -881 q-42 -95 -86 -160t-88 -97.5t-83 -45t-85 -12.5q-65 0 -123 24t-99 79.5t-41 134.5q0 84 53 139t134 55q90 0 136 -55t46 -137q0 -110 -66 -187z" />
<glyph unicode="z" horiz-adv-x="1122" d="M127 559v432h940l-571 -942h65q107 0 189 33.5t132.5 94t79.5 132t42 160.5h28v-469h-1018l586 946h-59q-86 0 -155.5 -32.5t-115.5 -88.5t-75 -122.5t-43 -143.5h-25z" />
<glyph unicode="{" horiz-adv-x="626" d="M27 530v25q62 8 110 47.5t75 97.5t40.5 122t13.5 130q0 107 -33 201q-45 127 -45 231q0 146 91.5 231t283.5 85h60v-92h-60q-268 0 -268 -222q0 -74 33 -178q45 -140 45 -262q0 -117 -41.5 -227t-130.5 -176q88 -65 130 -181t42 -235q0 -122 -45 -262q-33 -104 -33 -178 q0 -222 268 -222h60v-92h-60q-193 0 -284 83.5t-91 232.5q0 104 45 231q33 94 33 201q0 67 -13.5 132.5t-40.5 126t-75 101.5t-110 49z" />
<glyph unicode="|" horiz-adv-x="534" d="M219 0v1673h96v-1673h-96z" />
<glyph unicode="}" horiz-adv-x="593" d="M600 555v-25q-50 -7 -91.5 -35.5t-68.5 -70t-45.5 -94t-26.5 -105t-8 -104.5q0 -107 33 -201q45 -127 45 -231q0 -149 -91 -232.5t-284 -83.5h-59v92h59q269 0 269 222q0 74 -33 178q-45 140 -45 262q0 119 42 235t130 181q-89 66 -130.5 176t-41.5 227q0 122 45 262 q33 104 33 178q0 222 -269 222h-59v92h59q192 0 283.5 -85t91.5 -231q0 -104 -45 -231q-33 -94 -33 -201q0 -66 13.5 -130t41 -122t75.5 -97.5t110 -47.5z" />
<glyph unicode="~" horiz-adv-x="1337" d="M369 653q69 0 155 -31.5t154 -69.5t149 -69.5t140 -31.5q63 0 109.5 37.5t84.5 127.5l88 -34q-38 -114 -112.5 -171t-167.5 -57q-71 0 -158.5 31.5t-155.5 69t-147 69t-137 31.5q-63 0 -110.5 -38.5t-84.5 -129.5l-88 39q38 114 112.5 170.5t168.5 56.5z" />
<glyph unicode="&#xa1;" horiz-adv-x="643" d="M588 16q-92 -47 -266 -47q-175 0 -267 47q12 138 38 262.5t57 220.5t61.5 188.5t57.5 206t40 232.5h25q12 -119 39 -232.5t58 -206.5t61.5 -189t57 -220.5t38.5 -261.5zM580 1454q0 -106 -75 -181t-181 -75t-181 75t-75 181t75 181t181 75t181 -75t75 -181z" />
<glyph unicode="&#xa2;" horiz-adv-x="1083" d="M625 1001q-48 0 -84.5 -102.5t-36.5 -273.5q0 -108 16.5 -195.5t49.5 -153.5t88 -102.5t128 -36.5q157 0 258 137l15 -8q-59 -136 -152 -207.5t-239 -83.5v-186h-84v182q-168 4 -289 76t-180.5 191t-59.5 270q0 229 138 372.5t391 155.5v191h84v-191q156 -6 262 -71 t106 -168q0 -35 -14.5 -69.5t-51.5 -61.5t-89 -27q-95 0 -143.5 54t-55.5 132q-2 21 -2 52t-0.5 49.5t-4.5 37.5t-16.5 28t-33.5 9z" />
<glyph unicode="&#xa3;" horiz-adv-x="1325" d="M113 872v58h161q-6 89 -6 172q0 102 15 187t53.5 163.5t98.5 132t156.5 85.5t221.5 32q176 0 296 -66.5t120 -175.5q0 -36 -15 -74.5t-54 -71t-93 -32.5q-92 0 -142.5 53t-58.5 144q-5 47 -0.5 88.5t-5.5 69.5t-43 28q-38 0 -63.5 -28.5t-35.5 -82.5t-14 -108.5t2 -131.5 t10.5 -126t14 -117t10.5 -80l7 -61h368v-58h-362v-20q0 -85 -9.5 -153t-34 -126t-49.5 -100t-73.5 -93.5t-86.5 -87.5t-108 -100t-121 -114q131 107 220.5 172t158 100.5t117 47.5t106.5 12q62 0 111.5 -20t79 -49t52.5 -57.5t44 -48.5t41 -20q52 0 105 66l16 -7 q-59 -152 -158 -227.5t-215 -75.5q-57 0 -112.5 15.5t-90.5 34t-76.5 34t-74.5 15.5q-86 0 -219.5 -41t-218.5 -41q-82 0 -164 16l4 21q70 -13 124 15.5t86 84t53 137t28.5 163.5t7.5 175q0 128 -14 258q-2 4 -2 14h-168z" />
<glyph unicode="&#xa5;" horiz-adv-x="1687" d="M1008 844l233 493q39 81 53 138.5t9.5 88.5t-29.5 47.5t-51 20.5t-68 4v37h539v-37q-31 0 -50.5 -1.5t-50 -8t-53 -18.5t-53 -35.5t-57.5 -57.5t-59 -85t-64 -117l-258 -529h288v-69h-288v-223h288v-70h-288v-229q0 -46 5.5 -72t23.5 -48t55.5 -31t99.5 -9v-33h-827v33 q62 0 99.5 9t56 31.5t23.5 49t5 74.5v225h-285v70h285v217l-4 6h-281v69h248l-346 740q-66 112 -213 112v37h862v-37q-196 0 -111 -149z" />
<glyph unicode="&#xa6;" horiz-adv-x="419" d="M158 1700h104v-899h-104v899zM158 299h104v-899h-104v899z" />
<glyph unicode="&#xa7;" horiz-adv-x="1249" d="M590 -602q-52 0 -114.5 7.5t-139 28t-137.5 50.5t-102.5 81.5t-41.5 115.5q0 66 45.5 110.5t122.5 44.5q64 0 105 -22t58 -56.5t26 -77t16 -84.5t20.5 -76.5t47 -56.5t88.5 -22q94 0 142 63t48 168q0 97 -49 161t-158 116l-139 65q-182 85 -274.5 184.5t-92.5 239.5 q0 282 398 367l-43 20q-152 70 -244 195.5t-92 284.5q0 186 145.5 293.5t388.5 107.5q112 0 215 -25.5t173.5 -79.5t70.5 -124q0 -62 -42 -107t-120 -45q-59 0 -97 18.5t-54 48.5t-23.5 66t-12.5 72t-14.5 66t-35.5 48.5t-70 18.5q-59 0 -98 -49.5t-39 -130.5 q0 -114 50 -187t183 -131l80 -35q212 -93 304 -191t92 -226q0 -132 -112 -242.5t-282 -161.5q209 -102 310.5 -208t101.5 -240q0 -203 -159.5 -333t-444.5 -130zM817 489q0 90 -54.5 145.5t-187.5 117.5l-98 45q-39 -65 -39 -156t35.5 -147t122.5 -97l145 -67l21 -11 q55 96 55 170z" />
<glyph unicode="&#xa8;" horiz-adv-x="1073" d="M582 1368q0 91 64 155t155 64q89 0 153 -64t64 -155q0 -89 -64 -153t-153 -64q-91 0 -155 64t-64 153zM55 1368q0 91 64 155t155 64q90 0 154 -64.5t64 -154.5q0 -89 -64.5 -153t-153.5 -64q-91 0 -155 64t-64 153z" />
<glyph unicode="&#xa9;" horiz-adv-x="1820" d="M96 784q0 222 109 409.5t296 296.5t408 109q166 0 317 -64.5t260 -173.5t173.5 -260t64.5 -317q0 -221 -109 -408t-296.5 -296t-409.5 -109q-221 0 -408 109t-296 296t-109 408zM186 784q0 -149 57 -284.5t153 -233.5t230.5 -156.5t282.5 -58.5q149 0 283.5 58 t230.5 156.5t152.5 234t56.5 284.5q0 200 -95.5 369.5t-262 268t-365.5 98.5q-148 0 -282.5 -58.5t-230.5 -157t-153 -234.5t-57 -286zM1309 899h-35q-20 91 -60.5 167.5t-88 122.5t-95 71.5t-86.5 25.5q-107 0 -154 -122.5t-47 -366.5q0 -116 9.5 -197.5t32 -146t65 -96 t104.5 -31.5q37 0 83 23t93 67t87 120.5t59 170.5h35v-332q-145 -82 -375 -82q-135 0 -241 42t-170 114t-97 161.5t-33 190.5q0 234 148.5 375t384.5 141q82 0 191.5 -20t191.5 -60z" />
<glyph unicode="&#xab;" horiz-adv-x="1015" d="M573 70l-538 430l536 432h25l-184 -430l184 -432h-23zM958 70l-497 430l495 432h25l-184 -430l184 -432h-23z" />
<glyph unicode="&#xac;" horiz-adv-x="1183" d="M76 438v97h971v-533h-105v436h-866z" />
<glyph unicode="&#xad;" horiz-adv-x="794" d="M96 471v96h602v-96h-602z" />
<glyph unicode="&#xae;" horiz-adv-x="1820" d="M96 784q0 222 109 409.5t296 296.5t408 109q166 0 317 -64.5t260 -173.5t173.5 -260t64.5 -317q0 -221 -109 -408t-296.5 -296t-409.5 -109q-221 0 -408 109t-296 296t-109 408zM186 784q0 -149 57 -284.5t153 -233.5t230.5 -156.5t282.5 -58.5q149 0 283.5 58 t230.5 156.5t152.5 234t56.5 284.5q0 200 -95.5 369.5t-262 268t-365.5 98.5q-148 0 -282.5 -58.5t-230.5 -157t-153 -234.5t-57 -286zM473 1278h414q96 0 164.5 -9t128 -31.5t90 -68t30.5 -112.5q0 -100 -105 -166.5t-263 -77.5q126 -3 219.5 -52.5t122.5 -152.5l6 -22 q5 -20 13 -49t11.5 -42t9.5 -33t10 -28t10 -21t13 -18t15.5 -12.5t19.5 -10.5t24.5 -6.5t31.5 -5.5v-20q-88 -18 -185 -18q-124 0 -190.5 63t-97.5 188l-15 56q-23 88 -39 125.5t-37 40.5v-334q0 -50 19.5 -70t85.5 -20v-33h-506v33q66 0 85.5 20t19.5 70v696q0 48 -19.5 67 t-85.5 19v35zM874 1255v-440q119 13 119 221q0 110 -33 163.5t-86 55.5z" />
<glyph unicode="&#xaf;" horiz-adv-x="815" d="M55 1288v96h705v-96h-705z" />
<glyph unicode="&#xb0;" horiz-adv-x="696" d="M55 1315q0 121 85.5 206t207.5 85t207.5 -85t85.5 -206t-85.5 -206t-207.5 -85t-207.5 85t-85.5 206zM158 1315q0 -80 52.5 -138.5t137.5 -58.5q87 0 139 56.5t52 140.5q0 86 -54.5 141t-136.5 55q-75 0 -132.5 -55t-57.5 -141z" />
<glyph unicode="&#xb1;" horiz-adv-x="1122" d="M508 1001h104v-372h435v-97h-435v-354h-104v354h-432v97h432v372zM76 0v96h971v-96h-971z" />
<glyph unicode="&#xb4;" horiz-adv-x="526" d="M471 1597l-405 -479h-11v479h416z" />
<glyph unicode="&#xb6;" horiz-adv-x="1134" d="M1022 1511h-172v-1751h-96v1751h-158v-1751h-96v1031q-186 0 -315.5 111.5t-129.5 293.5q0 60 14 115t50 109.5t92 94.5t147 64.5t207 24.5h457v-93z" />
<glyph unicode="&#xb7;" horiz-adv-x="581" d="M35 512q0 106 75 181t181 75t181 -75t75 -181t-75 -181t-181 -75t-181 75t-75 181z" />
<glyph unicode="&#xb8;" horiz-adv-x="518" d="M229 -8h62l-109 -158q60 49 135 49q61 0 103.5 -38.5t42.5 -98.5t-42 -111.5t-105.5 -82t-131.5 -47.5t-127 -17l-2 8q97 23 160.5 91.5t63.5 142.5q0 38 -21.5 57.5t-46.5 18.5t-39 -15l-49 39z" />
<glyph unicode="&#xbb;" horiz-adv-x="1015" d="M981 500l-539 -430h-22l184 432l-184 430h24zM555 500l-498 -430h-22l184 432l-184 430h24z" />
<glyph unicode="&#xbf;" horiz-adv-x="987" d="M537 -29q-234 0 -358 79.5t-124 234.5q0 60 27.5 123t70.5 119t94.5 114t101 117.5t87.5 120t56 131t6 141.5l14 12q154 -42 224.5 -100t70.5 -162q0 -55 -35 -121.5t-85 -131.5t-100 -134t-85 -151t-35 -160q0 -99 17.5 -146t56.5 -47q21 0 33.5 9t16.5 28t4.5 37.5 t0.5 49.5t2 52q7 79 55.5 133t143.5 54q52 0 89 -27t51.5 -61.5t14.5 -69.5q0 -72 -59 -129t-152.5 -86t-203.5 -29zM803 1454q0 -106 -75 -181t-181 -75t-181 75t-75 181t75 181t181 75t181 -75t75 -181z" />
<glyph unicode="&#xc0;" horiz-adv-x="1685" d="M965 213l-101 283h-475l-35 -111q-61 -187 -35 -267.5t150 -80.5v-37h-481v37q93 0 164.5 79.5t132.5 266.5l417 1290h207l553 -1487q30 -82 82.5 -115.5t141.5 -33.5v-37h-877v37q42 0 70 3t54 13.5t37.5 29t11 51.5t-16.5 79zM616 1194l-186 -573h389zM973 1745 l-406 479h416v-479h-10z" />
<glyph unicode="&#xc1;" horiz-adv-x="1685" d="M965 213l-101 283h-475l-35 -111q-61 -187 -35 -267.5t150 -80.5v-37h-481v37q93 0 164.5 79.5t132.5 266.5l417 1290h207l553 -1487q30 -82 82.5 -115.5t141.5 -33.5v-37h-877v37q42 0 70 3t54 13.5t37.5 29t11 51.5t-16.5 79zM616 1194l-186 -573h389zM1044 2224 l-405 -479h-10v479h415z" />
<glyph unicode="&#xc2;" horiz-adv-x="1685" d="M965 213l-101 283h-475l-35 -111q-61 -187 -35 -267.5t150 -80.5v-37h-481v37q93 0 164.5 79.5t132.5 266.5l417 1290h207l553 -1487q30 -82 82.5 -115.5t141.5 -33.5v-37h-877v37q42 0 70 3t54 13.5t37.5 29t11 51.5t-16.5 79zM815 1939l-416 -221l-6 6l422 551 l422 -551l-6 -8zM616 1194l-186 -573h389z" />
<glyph unicode="&#xc3;" horiz-adv-x="1685" d="M965 213l-101 283h-475l-35 -111q-61 -187 -35 -267.5t150 -80.5v-37h-481v37q93 0 164.5 79.5t132.5 266.5l417 1290h207l553 -1487q30 -82 82.5 -115.5t141.5 -33.5v-37h-877v37q42 0 70 3t54 13.5t37.5 29t11 51.5t-16.5 79zM1098 2173l141 111l6 -3l-96 -421h-549 l-143 -111l-4 2l96 422h549zM616 1194l-186 -573h389z" />
<glyph unicode="&#xc4;" horiz-adv-x="1685" d="M965 213l-101 283h-475l-35 -111q-61 -187 -35 -267.5t150 -80.5v-37h-481v37q93 0 164.5 79.5t132.5 266.5l417 1290h207l553 -1487q30 -82 82.5 -115.5t141.5 -33.5v-37h-877v37q42 0 70 3t54 13.5t37.5 29t11 51.5t-16.5 79zM844 1995q0 91 64 155t155 64 q89 0 153 -64t64 -155q0 -89 -64 -153t-153 -64q-91 0 -155 64t-64 153zM317 1995q0 91 64.5 155t155.5 64q89 0 153 -64t64 -155q0 -89 -64 -153t-153 -64q-91 0 -155.5 64t-64.5 153zM616 1194l-186 -573h389z" />
<glyph unicode="&#xc5;" horiz-adv-x="1685" d="M965 213l-101 283h-475l-35 -111q-61 -187 -35 -267.5t150 -80.5v-37h-481v37q93 0 164.5 79.5t132.5 266.5l417 1290h207l553 -1487q30 -82 82.5 -115.5t141.5 -33.5v-37h-877v37q42 0 70 3t54 13.5t37.5 29t11 51.5t-16.5 79zM1024 1964q0 -84 -61 -142.5t-148 -58.5 t-148 58.5t-61 142.5t61 142.5t148 58.5t148 -58.5t61 -142.5zM616 1194l-186 -573h389zM946 1964q0 58 -38.5 95.5t-92.5 37.5q-56 0 -92.5 -38.5t-36.5 -94.5t36.5 -94.5t92.5 -38.5q60 0 95.5 38t35.5 95z" />
<glyph unicode="&#xc6;" horiz-adv-x="2533" d="M2163 1237v-739h-23q-27 163 -121 254.5t-243 91.5v-668q0 -73 29 -100t116 -27h104q67 0 124 16.5t97 43.5t73 68t54 82t38 94.5t26 96t17 95.5h24v-545h-1345v33q62 0 99.5 9t56 32t23.5 50.5t5 76.5v622h-461l-346 -475q-47 -64 -72 -109.5t-31.5 -85.5t15 -64t75 -38 t142.5 -14v-37h-645v37q51 4 86 11.5t74.5 28.5t72 48.5t81 82.5t98 118.5t126.5 167.5l783 1060q-7 42 -46.5 64t-135.5 22v33h1271v-532h-24q-9 52 -18 92.5t-26 93.5t-37.5 92.5t-53 80.5t-73 67t-97 42.5t-123.5 16.5h-176v-735q149 0 243 91.5t121 254.5h23zM905 889 h412v563z" />
<glyph unicode="&#xc7;" horiz-adv-x="1662" d="M1528 1108h-25q-28 125 -75.5 223.5t-101.5 158t-117.5 98.5t-119.5 54t-112 15q-191 0 -301.5 -218.5t-110.5 -611.5q0 -250 46.5 -427t144 -275t239.5 -98q44 0 87.5 9t95 30.5t98.5 62t91 98t80 145.5t58 197h25v-485q-243 -113 -565 -113l-95 -137q60 49 136 49 q61 0 103 -38.5t42 -98.5t-42 -111.5t-105.5 -82t-131.5 -47.5t-127 -17l-2 8q97 23 160.5 91.5t63.5 142.5q0 38 -21.5 57.5t-46.5 18.5t-39 -15l-49 39l94 143q-172 7 -312 57.5t-234 131.5t-158 189.5t-92.5 229t-28.5 253.5q0 265 108.5 463.5t307 305.5t460.5 107 q319 0 574 -102z" />
<glyph unicode="&#xc8;" horiz-adv-x="1507" d="M1090 1217v-740h-23q-27 163 -121.5 254.5t-243.5 91.5v-647q0 -73 29.5 -100t116.5 -27q99 0 184.5 33.5t143.5 86t102 122.5t67.5 137.5t34.5 136.5h25v-565h-1346v33q62 0 99.5 9t56 32t24 50.5t5.5 76.5v1261q0 53 -5.5 82.5t-24 53.5t-55.5 33t-100 9v33h1313v-553 h-24q-11 64 -39.5 131.5t-77 134t-110 118.5t-146.5 84t-178 32h-95v-750q149 0 243.5 92t121.5 255h23zM862 1739l-405 479h415v-479h-10z" />
<glyph unicode="&#xc9;" horiz-adv-x="1507" d="M1124 2224l-405 -479h-10v479h415zM1090 1217v-740h-23q-27 163 -121.5 254.5t-243.5 91.5v-647q0 -73 29.5 -100t116.5 -27q99 0 184.5 33.5t143.5 86t102 122.5t67.5 137.5t34.5 136.5h25v-565h-1346v33q62 0 99.5 9t56 32t24 50.5t5.5 76.5v1261q0 53 -5.5 82.5 t-24 53.5t-55.5 33t-100 9v33h1313v-553h-24q-11 64 -39.5 131.5t-77 134t-110 118.5t-146.5 84t-178 32h-95v-750q149 0 243.5 92t121.5 255h23z" />
<glyph unicode="&#xca;" horiz-adv-x="1507" d="M1090 1217v-740h-23q-27 163 -121.5 254.5t-243.5 91.5v-647q0 -73 29.5 -100t116.5 -27q99 0 184.5 33.5t143.5 86t102 122.5t67.5 137.5t34.5 136.5h25v-565h-1346v33q62 0 99.5 9t56 32t24 50.5t5.5 76.5v1261q0 53 -5.5 82.5t-24 53.5t-55.5 33t-100 9v33h1313v-553 h-24q-11 64 -39.5 131.5t-77 134t-110 118.5t-146.5 84t-178 32h-95v-750q149 0 243.5 92t121.5 255h23zM768 1939l-416 -221l-6 6l422 551l422 -551l-6 -8z" />
<glyph unicode="&#xcb;" horiz-adv-x="1507" d="M895 1993q0 91 64 155t155 64q89 0 153 -64t64 -155q0 -89 -64 -153t-153 -64q-91 0 -155 64t-64 153zM225 1993q0 91 64 155t155 64q90 0 154 -64t64 -155q0 -89 -64.5 -153t-153.5 -64q-91 0 -155 64t-64 153zM1090 1217v-740h-23q-27 163 -121.5 254.5t-243.5 91.5 v-647q0 -73 29.5 -100t116.5 -27q99 0 184.5 33.5t143.5 86t102 122.5t67.5 137.5t34.5 136.5h25v-565h-1346v33q62 0 99.5 9t56 32t24 50.5t5.5 76.5v1261q0 53 -5.5 82.5t-24 53.5t-55.5 33t-100 9v33h1313v-553h-24q-11 64 -39.5 131.5t-77 134t-110 118.5t-146.5 84 t-178 32h-95v-750q149 0 243.5 92t121.5 255h23z" />
<glyph unicode="&#xcc;" horiz-adv-x="958" d="M244 197v1284q0 46 -5.5 72t-24 48t-56 30.5t-99.5 8.5v33h828v-33q-62 0 -99.5 -9t-56 -30.5t-24 -47t-5.5 -70.5v-1290q0 -46 5.5 -72t24 -48t56 -31t99.5 -9v-33h-828v33q62 0 99.5 9t56 31.5t24 49.5t5.5 74zM614 1745l-405 479h416v-479h-11z" />
<glyph unicode="&#xcd;" horiz-adv-x="958" d="M244 197v1284q0 46 -5.5 72t-24 48t-56 30.5t-99.5 8.5v33h828v-33q-62 0 -99.5 -9t-56 -30.5t-24 -47t-5.5 -70.5v-1290q0 -46 5.5 -72t24 -48t56 -31t99.5 -9v-33h-828v33q62 0 99.5 9t56 31.5t24 49.5t5.5 74zM782 2224l-405 -479h-10v479h415z" />
<glyph unicode="&#xce;" horiz-adv-x="958" d="M479 1939l-416 -221l-6 6l422 551l422 -551l-6 -8zM244 197v1284q0 46 -5.5 72t-24 48t-56 30.5t-99.5 8.5v33h828v-33q-62 0 -99.5 -9t-56 -30.5t-24 -47t-5.5 -70.5v-1290q0 -46 5.5 -72t24 -48t56 -31t99.5 -9v-33h-828v33q62 0 99.5 9t56 31.5t24 49.5t5.5 74z" />
<glyph unicode="&#xcf;" horiz-adv-x="958" d="M244 197v1284q0 46 -5.5 72t-24 48t-56 30.5t-99.5 8.5v33h828v-33q-62 0 -99.5 -9t-56 -30.5t-24 -47t-5.5 -70.5v-1290q0 -46 5.5 -72t24 -48t56 -31t99.5 -9v-33h-828v33q62 0 99.5 9t56 31.5t24 49.5t5.5 74zM518 1995q0 91 64 155t155 64q89 0 153 -64t64 -155 q0 -89 -64 -153t-153 -64q-91 0 -155 64t-64 153zM-8 1995q0 91 64 155t155 64q89 0 153 -64t64 -155q0 -89 -64 -153t-153 -64q-91 0 -155 64t-64 153z" />
<glyph unicode="&#xd0;" horiz-adv-x="1744" d="M14 819v76h236v561q0 56 -5 86t-24 55t-55.5 34t-99.5 9v33h665q471 0 724 -217.5t253 -607.5q0 -250 -103.5 -442t-298.5 -299t-454 -107h-786v33q62 0 99.5 9t55.5 31t23.5 48t5.5 72v626h-236zM709 1626v-731h256v-76h-256v-606q0 -100 35 -134t122 -34q357 0 357 807 q0 176 -29.5 312.5t-78 222t-116.5 141t-138.5 77t-151.5 21.5z" />
<glyph unicode="&#xd1;" horiz-adv-x="1738" d="M1468 1243v-1245h-219l-895 1309v-875q0 -213 59 -306t203 -93v-33h-598v33q147 0 209 94.5t62 302.5v973q-146 237 -230 237v33h637l707 -1040v608q0 213 -59 306t-203 93v33h598v-33q-147 0 -209 -94.5t-62 -302.5zM1303 2173l141 111l6 -3l-96 -421h-754l-143 -111 l-4 2l96 422h754z" />
<glyph unicode="&#xd2;" d="M1278 836q0 829 -350 829q-170 0 -261.5 -202.5t-91.5 -626.5q0 -820 353 -820q350 0 350 820zM1774 838q0 -263 -101.5 -459t-293.5 -302t-451 -106q-260 0 -452.5 108.5t-294 306.5t-101.5 462q0 397 227.5 629.5t620.5 232.5q403 0 624.5 -234.5t221.5 -637.5z M1083 1745l-405 479h416v-479h-11z" />
<glyph unicode="&#xd3;" d="M1278 836q0 829 -350 829q-170 0 -261.5 -202.5t-91.5 -626.5q0 -820 353 -820q350 0 350 820zM1774 838q0 -263 -101.5 -459t-293.5 -302t-451 -106q-260 0 -452.5 108.5t-294 306.5t-101.5 462q0 397 227.5 629.5t620.5 232.5q403 0 624.5 -234.5t221.5 -637.5z M1237 2218l-406 -479h-10v479h416z" />
<glyph unicode="&#xd4;" d="M1278 836q0 829 -350 829q-170 0 -261.5 -202.5t-91.5 -626.5q0 -820 353 -820q350 0 350 820zM1774 838q0 -263 -101.5 -459t-293.5 -302t-451 -106q-260 0 -452.5 108.5t-294 306.5t-101.5 462q0 397 227.5 629.5t620.5 232.5q403 0 624.5 -234.5t221.5 -637.5z M926 1933l-416 -221l-6 6l422 551l422 -551l-7 -8z" />
<glyph unicode="&#xd5;" d="M1303 2173l141 111l6 -3l-96 -421h-754l-143 -111l-4 2l96 422h754zM1278 836q0 829 -350 829q-170 0 -261.5 -202.5t-91.5 -626.5q0 -820 353 -820q350 0 350 820zM1774 838q0 -263 -101.5 -459t-293.5 -302t-451 -106q-260 0 -452.5 108.5t-294 306.5t-101.5 462 q0 397 227.5 629.5t620.5 232.5q403 0 624.5 -234.5t221.5 -637.5z" />
<glyph unicode="&#xd6;" d="M1059 1993q0 91 64 155t155 64q89 0 153 -64t64 -155q0 -89 -64 -153t-153 -64q-91 0 -155 64t-64 153zM389 1993q0 91 64 155t155 64q89 0 153 -64t64 -155q0 -89 -64 -153t-153 -64q-91 0 -155 64t-64 153zM1278 836q0 829 -350 829q-170 0 -261.5 -202.5t-91.5 -626.5 q0 -820 353 -820q350 0 350 820zM1774 838q0 -263 -101.5 -459t-293.5 -302t-451 -106q-260 0 -452.5 108.5t-294 306.5t-101.5 462q0 397 227.5 629.5t620.5 232.5q403 0 624.5 -234.5t221.5 -637.5z" />
<glyph unicode="&#xd7;" horiz-adv-x="1077" d="M913 963l68 -70l-373 -373l373 -373l-70 -67l-370 371l-371 -371l-68 70l369 370l-375 377l68 70l377 -379z" />
<glyph unicode="&#xd8;" d="M1780 838q0 -263 -101.5 -459t-293.5 -302t-451 -106q-314 0 -528 156l-103 -127h-115l150 184q-122 116 -187 285.5t-65 378.5q0 397 227.5 629.5t620.5 232.5q311 0 522 -147l115 141h119l-162 -199q252 -237 252 -667zM1284 836q0 206 -20 346l-646 -793 q79 -373 316 -373q350 0 350 820zM934 1665q-352 0 -352 -829q0 -189 18 -330l643 794q-77 365 -309 365z" />
<glyph unicode="&#xd9;" horiz-adv-x="1808" d="M1507 1202v-551q0 -326 -147.5 -503t-456.5 -177q-340 0 -520 172t-180 488v827q0 55 -5.5 85t-24 54.5t-55.5 33.5t-100 9v33h828v-33q-63 0 -99.5 -9t-55.5 -34t-24 -54.5t-5 -84.5v-844q0 -248 95 -370.5t271 -122.5q414 0 414 534v545q0 219 -60.5 329.5 t-201.5 110.5v33h598v-33q-144 0 -207.5 -112t-63.5 -326zM1055 1745l-406 479h416v-479h-10z" />
<glyph unicode="&#xda;" horiz-adv-x="1808" d="M1507 1202v-551q0 -326 -147.5 -503t-456.5 -177q-340 0 -520 172t-180 488v827q0 55 -5.5 85t-24 54.5t-55.5 33.5t-100 9v33h828v-33q-63 0 -99.5 -9t-55.5 -34t-24 -54.5t-5 -84.5v-844q0 -248 95 -370.5t271 -122.5q414 0 414 534v545q0 219 -60.5 329.5 t-201.5 110.5v33h598v-33q-144 0 -207.5 -112t-63.5 -326zM1311 2224l-406 -479h-10v479h416z" />
<glyph unicode="&#xdb;" horiz-adv-x="1808" d="M1507 1202v-551q0 -326 -147.5 -503t-456.5 -177q-340 0 -520 172t-180 488v827q0 55 -5.5 85t-24 54.5t-55.5 33.5t-100 9v33h828v-33q-63 0 -99.5 -9t-55.5 -34t-24 -54.5t-5 -84.5v-844q0 -248 95 -370.5t271 -122.5q414 0 414 534v545q0 219 -60.5 329.5 t-201.5 110.5v33h598v-33q-144 0 -207.5 -112t-63.5 -326zM979 1939l-416 -221l-6 6l422 551l422 -551l-6 -8z" />
<glyph unicode="&#xdc;" horiz-adv-x="1808" d="M1079 1993q0 91 64 155t155 64q90 0 154 -64t64 -155q0 -89 -64.5 -153t-153.5 -64q-91 0 -155 64t-64 153zM410 1993q0 91 64 155t155 64q89 0 153 -64t64 -155q0 -89 -64 -153t-153 -64q-91 0 -155 64t-64 153zM1507 1202v-551q0 -326 -147.5 -503t-456.5 -177 q-340 0 -520 172t-180 488v827q0 55 -5.5 85t-24 54.5t-55.5 33.5t-100 9v33h828v-33q-63 0 -99.5 -9t-55.5 -34t-24 -54.5t-5 -84.5v-844q0 -248 95 -370.5t271 -122.5q414 0 414 534v545q0 219 -60.5 329.5t-201.5 110.5v33h598v-33q-144 0 -207.5 -112t-63.5 -326z" />
<glyph unicode="&#xdd;" horiz-adv-x="1687" d="M1001 844l234 493q39 81 53 138.5t9.5 88.5t-29.5 47.5t-51 20.5t-68 4v37h539v-37q-31 0 -50.5 -1.5t-50 -8t-53 -18.5t-53.5 -35.5t-58 -57.5t-59 -85t-64 -117l-258 -529v-591q0 -46 5.5 -72t24 -48t56 -31t99.5 -9v-33h-828v33q62 0 99.5 9t56 31.5t24 49.5t5.5 74 v510l-383 817q-66 112 -213 112v37h862v-37q-196 0 -111 -149zM1270 2224l-406 -479h-10v479h416z" />
<glyph unicode="&#xde;" horiz-adv-x="1521" d="M895 1673v-33q-62 0 -99.5 -9t-56.5 -30.5t-24.5 -47.5t-5.5 -70v-144q133 0 241.5 -11.5t213.5 -42.5t176 -81.5t114 -133.5t43 -193q0 -102 -31 -184.5t-85.5 -138t-130.5 -93t-163.5 -54t-187.5 -16.5q-105 0 -190 12v-206q0 -38 3 -61t14.5 -45t33.5 -33t59.5 -18 t93.5 -7v-33h-847v33q62 0 99.5 9t56 32t23.5 50t5 75v1284q0 36 -3 57.5t-13.5 43t-30.5 32.5t-53.5 17.5t-83.5 6.5v33h829zM1022 874q0 205 -91 311.5t-222 108.5v-866q63 3 117.5 29.5t99.5 78t70.5 138.5t25.5 200z" />
<glyph unicode="&#xdf;" horiz-adv-x="1611" d="M1010 184q1 -16 2.5 -44t3 -42.5t5.5 -34.5t10.5 -30t19 -17.5t30.5 -7.5q42 0 71.5 43t29.5 119q0 141 -205 272l-33 21q-246 162 -246 391q0 166 105 311q47 64 63.5 129t16.5 158q0 83 -31.5 136.5t-95.5 53.5q-48 0 -79.5 -40t-50 -143.5t-18.5 -274.5v-1184h-594v33 q98 0 129 31t31 106v684l-156 123v14h156v152q0 266 144 407.5t442 141.5q128 0 237.5 -26.5t179.5 -79.5t70 -122q0 -63 -39.5 -109t-96.5 -73t-113.5 -50t-96 -53.5t-39.5 -70.5q0 -39 40.5 -84t86 -75.5t114 -72.5t89.5 -57l70 -49q165 -118 229.5 -215.5t64.5 -198.5 q0 -53 -11.5 -102t-44.5 -102t-84 -92t-137.5 -64t-197.5 -25q-169 0 -286 66.5t-117 175.5q0 58 40.5 108t119.5 50q156 0 172 -187z" />
<glyph unicode="&#xe0;" horiz-adv-x="1165" d="M301 -29q-126 0 -204.5 74t-78.5 195q0 139 138.5 225t412.5 86v264q0 98 -14 142t-47 44q-41 0 -52.5 -35.5t-9.5 -103.5q4 -215 -184 -215q-77 0 -116.5 49t-39.5 111q0 77 65 131t162 77t214 23q212 0 326.5 -70.5t113.5 -232.5l-4 -489q-1 -70 23.5 -102.5 t64.5 -32.5q48 0 107 39l8 -9q-38 -83 -125.5 -126.5t-194.5 -43.5q-221 0 -284 156q-30 -49 -69.5 -82.5t-80.5 -48t-71 -20t-60 -5.5zM692 1118l-405 479h415v-479h-10zM573 147v377q-88 -14 -125.5 -81t-37.5 -156q0 -81 24.5 -121.5t67.5 -40.5q38 0 71 22z" />
<glyph unicode="&#xe1;" horiz-adv-x="1165" d="M301 -29q-126 0 -204.5 74t-78.5 195q0 139 138.5 225t412.5 86v264q0 98 -14 142t-47 44q-41 0 -52.5 -35.5t-9.5 -103.5q4 -215 -184 -215q-77 0 -116.5 49t-39.5 111q0 77 65 131t162 77t214 23q212 0 326.5 -70.5t113.5 -232.5l-4 -489q-1 -70 23.5 -102.5 t64.5 -32.5q48 0 107 39l8 -9q-38 -83 -125.5 -126.5t-194.5 -43.5q-221 0 -284 156q-30 -49 -69.5 -82.5t-80.5 -48t-71 -20t-60 -5.5zM887 1597l-406 -479h-10v479h416zM573 147v377q-88 -14 -125.5 -81t-37.5 -156q0 -81 24.5 -121.5t67.5 -40.5q38 0 71 22z" />
<glyph unicode="&#xe2;" horiz-adv-x="1165" d="M301 -29q-126 0 -204.5 74t-78.5 195q0 139 138.5 225t412.5 86v264q0 98 -14 142t-47 44q-41 0 -52.5 -35.5t-9.5 -103.5q4 -215 -184 -215q-77 0 -116.5 49t-39.5 111q0 77 65 131t162 77t214 23q212 0 326.5 -70.5t113.5 -232.5l-4 -489q-1 -70 23.5 -102.5 t64.5 -32.5q48 0 107 39l8 -9q-38 -83 -125.5 -126.5t-194.5 -43.5q-221 0 -284 156q-30 -49 -69.5 -82.5t-80.5 -48t-71 -20t-60 -5.5zM555 1313l-416 -221l-6 6l422 551l422 -551l-6 -8zM573 147v377q-88 -14 -125.5 -81t-37.5 -156q0 -81 24.5 -121.5t67.5 -40.5 q38 0 71 22z" />
<glyph unicode="&#xe3;" horiz-adv-x="1165" d="M301 -29q-126 0 -204.5 74t-78.5 195q0 139 138.5 225t412.5 86v264q0 98 -14 142t-47 44q-41 0 -52.5 -35.5t-9.5 -103.5q4 -215 -184 -215q-77 0 -116.5 49t-39.5 111q0 77 65 131t162 77t214 23q212 0 326.5 -70.5t113.5 -232.5l-4 -489q-1 -70 23.5 -102.5 t64.5 -32.5q48 0 107 39l8 -9q-38 -83 -125.5 -126.5t-194.5 -43.5q-221 0 -284 156q-30 -49 -69.5 -82.5t-80.5 -48t-71 -20t-60 -5.5zM846 1532l141 110l6 -2l-96 -421h-590l-143 -111l-4 2l96 422h590zM573 147v377q-88 -14 -125.5 -81t-37.5 -156q0 -81 24.5 -121.5 t67.5 -40.5q38 0 71 22z" />
<glyph unicode="&#xe4;" horiz-adv-x="1165" d="M301 -29q-126 0 -204.5 74t-78.5 195q0 139 138.5 225t412.5 86v264q0 98 -14 142t-47 44q-41 0 -52.5 -35.5t-9.5 -103.5q4 -215 -184 -215q-77 0 -116.5 49t-39.5 111q0 77 65 131t162 77t214 23q212 0 326.5 -70.5t113.5 -232.5l-4 -489q-1 -70 23.5 -102.5 t64.5 -32.5q48 0 107 39l8 -9q-38 -83 -125.5 -126.5t-194.5 -43.5q-221 0 -284 156q-30 -49 -69.5 -82.5t-80.5 -48t-71 -20t-60 -5.5zM94 1368q0 91 64 155t155 64q89 0 153 -64t64 -155q0 -89 -64 -153t-153 -64q-91 0 -155 64t-64 153zM621 1368q0 91 64 155t155 64 q89 0 153 -64t64 -155q0 -89 -64 -153t-153 -64q-91 0 -155 64t-64 153zM573 147v377q-88 -14 -125.5 -81t-37.5 -156q0 -81 24.5 -121.5t67.5 -40.5q38 0 71 22z" />
<glyph unicode="&#xe5;" horiz-adv-x="1165" d="M301 -29q-126 0 -204.5 74t-78.5 195q0 139 138.5 225t412.5 86v264q0 98 -14 142t-47 44q-41 0 -52.5 -35.5t-9.5 -103.5q4 -215 -184 -215q-77 0 -116.5 49t-39.5 111q0 77 65 131t162 77t214 23q212 0 326.5 -70.5t113.5 -232.5l-4 -489q-1 -70 23.5 -102.5 t64.5 -32.5q48 0 107 39l8 -9q-38 -83 -125.5 -126.5t-194.5 -43.5q-221 0 -284 156q-30 -49 -69.5 -82.5t-80.5 -48t-71 -20t-60 -5.5zM764 1358q0 -84 -61 -142.5t-148 -58.5t-148 58.5t-61 142.5t61 142.5t148 58.5t148 -58.5t61 -142.5zM686 1358q0 58 -38.5 95.5 t-92.5 37.5q-56 0 -92.5 -38.5t-36.5 -94.5t36.5 -94.5t92.5 -38.5q60 0 95.5 38t35.5 95zM573 147v377q-88 -14 -125.5 -81t-37.5 -156q0 -81 24.5 -121.5t67.5 -40.5q38 0 71 22z" />
<glyph unicode="&#xe6;" horiz-adv-x="1605" d="M1264 139q155 0 268 146l14 -9q-128 -305 -456 -305q-276 0 -408 183q-127 -183 -352 -183q-137 0 -221 75.5t-84 193.5q0 152 133.5 228.5t416.5 76.5v270q0 98 -14 142t-47 44q-22 0 -35.5 -10.5t-19 -32.5t-6.5 -42.5t0 -53.5q4 -209 -185 -209q-75 0 -115 50t-40 104 q0 62 36 109t97 72.5t130.5 37.5t147.5 12q203 0 289 -92q38 46 114 69t152 23q212 0 331 -112.5t140 -300.5h-579v-47q0 -226 82 -332.5t211 -106.5zM578 516q-60 -5 -98 -43t-51 -84.5t-13 -101.5q0 -81 33.5 -121.5t93.5 -40.5q69 0 121 55q-86 140 -86 336zM971 666h184 q-1 57 -3 100.5t-7.5 89.5t-14.5 75.5t-24.5 48.5t-36.5 19q-86 0 -98 -333z" />
<glyph unicode="&#xe7;" horiz-adv-x="1089" d="M631 1001q-47 0 -84 -106.5t-37 -269.5q0 -108 15 -195t46.5 -154t83.5 -103t123 -36q149 0 260 158l15 -8q-61 -157 -168.5 -236.5t-280.5 -79.5q-27 0 -39 2l-94 -139q60 49 135 49q61 0 103.5 -38.5t42.5 -98.5t-42 -111.5t-105.5 -82t-131.5 -47.5t-127 -17l-2 8 q97 23 160 91.5t63 142.5q0 38 -21 57.5t-46 18.5t-39 -15l-49 39l96 147q-214 27 -330.5 172t-116.5 359q0 240 150 385t426 145q169 0 287 -66t118 -175q0 -35 -14.5 -69.5t-51.5 -61.5t-89 -27q-95 0 -143.5 54t-55.5 132q-2 21 -2 52t-0.5 49.5t-4.5 37.5t-16.5 28 t-33.5 9z" />
<glyph unicode="&#xe8;" horiz-adv-x="1130" d="M1090 606h-580v-28q0 -116 23.5 -203.5t64.5 -137.5t90 -74t107 -24q153 0 276 160l16 -8q-132 -320 -460 -320q-269 0 -417.5 150.5t-148.5 394.5q0 230 150 376t405 146q105 0 191 -34t144 -93t93.5 -136.5t45.5 -168.5zM721 1118l-406 479h416v-479h-10zM618 999 q-45 0 -73.5 -91t-34.5 -261h184q-1 57 -1.5 86.5t-3 79t-7.5 76t-13 55.5t-21 42t-30 13z" />
<glyph unicode="&#xe9;" horiz-adv-x="1130" d="M1090 606h-580v-28q0 -116 23.5 -203.5t64.5 -137.5t90 -74t107 -24q153 0 276 160l16 -8q-132 -320 -460 -320q-269 0 -417.5 150.5t-148.5 394.5q0 230 150 376t405 146q105 0 191 -34t144 -93t93.5 -136.5t45.5 -168.5zM918 1597l-406 -479h-10v479h416zM618 999 q-45 0 -73.5 -91t-34.5 -261h184q-1 57 -1.5 86.5t-3 79t-7.5 76t-13 55.5t-21 42t-30 13z" />
<glyph unicode="&#xea;" horiz-adv-x="1130" d="M1090 606h-580v-28q0 -116 23.5 -203.5t64.5 -137.5t90 -74t107 -24q153 0 276 160l16 -8q-132 -320 -460 -320q-269 0 -417.5 150.5t-148.5 394.5q0 230 150 376t405 146q105 0 191 -34t144 -93t93.5 -136.5t45.5 -168.5zM586 1313l-416 -221l-6 6l422 551l422 -551 l-7 -8zM618 999q-45 0 -73.5 -91t-34.5 -261h184q-1 57 -1.5 86.5t-3 79t-7.5 76t-13 55.5t-21 42t-30 13z" />
<glyph unicode="&#xeb;" horiz-adv-x="1130" d="M1090 606h-580v-28q0 -116 23.5 -203.5t64.5 -137.5t90 -74t107 -24q153 0 276 160l16 -8q-132 -320 -460 -320q-269 0 -417.5 150.5t-148.5 394.5q0 230 150 376t405 146q105 0 191 -34t144 -93t93.5 -136.5t45.5 -168.5zM104 1368q0 91 64.5 155t155.5 64q89 0 153 -64 t64 -155q0 -89 -64 -153t-153 -64q-91 0 -155.5 64t-64.5 153zM631 1368q0 91 64 155t155 64q89 0 153 -64t64 -155q0 -89 -64 -153t-153 -64q-91 0 -155 64t-64 153zM618 999q-45 0 -73.5 -91t-34.5 -261h184q-1 57 -1.5 86.5t-3 79t-7.5 76t-13 55.5t-21 42t-30 13z" />
<glyph unicode="&#xec;" horiz-adv-x="784" d="M168 193v626q0 36 -4 56.5t-18.5 42t-48.5 31t-89 9.5v33h596v-805q0 -42 4 -65t19 -46t48.5 -32.5t88.5 -9.5v-33h-756v33q37 0 64.5 4.5t44.5 15t27.5 22.5t15.5 32.5t6.5 38.5t1.5 47zM522 1118l-405 479h415v-479h-10z" />
<glyph unicode="&#xed;" horiz-adv-x="784" d="M168 193v626q0 36 -4 56.5t-18.5 42t-48.5 31t-89 9.5v33h596v-805q0 -42 4 -65t19 -46t48.5 -32.5t88.5 -9.5v-33h-756v33q37 0 64.5 4.5t44.5 15t27.5 22.5t15.5 32.5t6.5 38.5t1.5 47zM655 1597l-405 -479h-10v479h415z" />
<glyph unicode="&#xee;" horiz-adv-x="784" d="M168 193v626q0 36 -4 56.5t-18.5 42t-48.5 31t-89 9.5v33h596v-805q0 -42 4 -65t19 -46t48.5 -32.5t88.5 -9.5v-33h-756v33q37 0 64.5 4.5t44.5 15t27.5 22.5t15.5 32.5t6.5 38.5t1.5 47zM367 1313l-416 -221l-6 6l422 551l421 -551l-6 -8z" />
<glyph unicode="&#xef;" horiz-adv-x="784" d="M168 193v626q0 36 -4 56.5t-18.5 42t-48.5 31t-89 9.5v33h596v-805q0 -42 4 -65t19 -46t48.5 -32.5t88.5 -9.5v-33h-756v33q37 0 64.5 4.5t44.5 15t27.5 22.5t15.5 32.5t6.5 38.5t1.5 47zM432 1368q0 91 64 155t155 64q89 0 153 -64t64 -155q0 -89 -64 -153t-153 -64 q-91 0 -155 64t-64 153zM-94 1368q0 91 64 155t155 64q89 0 153 -64t64 -155q0 -89 -64 -153t-153 -64q-91 0 -155 64t-64 153z" />
<glyph unicode="&#xf0;" horiz-adv-x="1447" d="M354 1210l-61 66l229 231q-141 144 -301 213l15 31q202 -68 374 -158l207 209l62 -63l-189 -189q309 -178 486.5 -419t177.5 -517q0 -291 -165.5 -467t-453.5 -176q-311 0 -474 151.5t-163 409.5q0 100 30 184.5t79 142t112.5 98t128 59t127.5 18.5q190 0 295 -155 q-77 314 -286 563zM715 895q-79 0 -118.5 -99t-39.5 -286q0 -148 17 -255t61 -176t113 -69q33 0 59 21t42.5 60.5t28 86.5t17.5 109t8 117.5t2 121.5q0 169 -31 301q-70 68 -159 68z" />
<glyph unicode="&#xf1;" horiz-adv-x="1409" d="M739 33v-33h-731v33q55 0 89 9.5t48.5 30t18.5 39t4 50.5v643q0 34 -2 53.5t-10.5 41t-25.5 32t-47 17.5t-75 7v35h590v-215q28 120 114 191t210 71q59 0 114 -19.5t101 -57.5t74 -102t28 -146v-553q0 -19 2 -33t11 -33t25 -31t47 -21t75 -9v-33h-590v709q0 81 -21 116 t-73 35q-43 0 -77 -42t-40 -105v-551q0 -25 4 -43t16.5 -40t43 -34t77.5 -12zM987 1532l141 110l7 -2l-97 -421h-589l-144 -111l-4 2l96 422h590z" />
<glyph unicode="&#xf2;" horiz-adv-x="1298" d="M61 502q0 247 152.5 388.5t435.5 141.5t435.5 -141.5t152.5 -388.5t-152.5 -389t-435.5 -142t-435.5 141.5t-152.5 389.5zM649 12q36 0 62 29t40.5 73.5t23 113.5t11 133t2.5 147t-2.5 145.5t-11 129.5t-23 110t-40.5 70.5t-62 27.5q-44 0 -73 -39t-42.5 -113.5 t-18.5 -150.5t-5 -182q0 -105 5 -183t19 -154t43 -116.5t72 -40.5zM805 1118l-406 479h416v-479h-10z" />
<glyph unicode="&#xf3;" horiz-adv-x="1298" d="M61 502q0 247 152.5 388.5t435.5 141.5t435.5 -141.5t152.5 -388.5t-152.5 -389t-435.5 -142t-435.5 141.5t-152.5 389.5zM649 12q36 0 62 29t40.5 73.5t23 113.5t11 133t2.5 147t-2.5 145.5t-11 129.5t-23 110t-40.5 70.5t-62 27.5q-44 0 -73 -39t-42.5 -113.5 t-18.5 -150.5t-5 -182q0 -105 5 -183t19 -154t43 -116.5t72 -40.5zM961 1597l-406 -479h-10v479h416z" />
<glyph unicode="&#xf4;" horiz-adv-x="1298" d="M61 502q0 247 152.5 388.5t435.5 141.5t435.5 -141.5t152.5 -388.5t-152.5 -389t-435.5 -142t-435.5 141.5t-152.5 389.5zM649 12q36 0 62 29t40.5 73.5t23 113.5t11 133t2.5 147t-2.5 145.5t-11 129.5t-23 110t-40.5 70.5t-62 27.5q-44 0 -73 -39t-42.5 -113.5 t-18.5 -150.5t-5 -182q0 -105 5 -183t19 -154t43 -116.5t72 -40.5zM649 1313l-416 -221l-6 6l422 551l422 -551l-6 -8z" />
<glyph unicode="&#xf5;" horiz-adv-x="1298" d="M61 502q0 247 152.5 388.5t435.5 141.5t435.5 -141.5t152.5 -388.5t-152.5 -389t-435.5 -142t-435.5 141.5t-152.5 389.5zM649 12q36 0 62 29t40.5 73.5t23 113.5t11 133t2.5 147t-2.5 145.5t-11 129.5t-23 110t-40.5 70.5t-62 27.5q-44 0 -73 -39t-42.5 -113.5 t-18.5 -150.5t-5 -182q0 -105 5 -183t19 -154t43 -116.5t72 -40.5zM918 1532l141 110l6 -2l-96 -421h-590l-143 -111l-5 2l97 422h590z" />
<glyph unicode="&#xf6;" horiz-adv-x="1298" d="M61 502q0 247 152.5 388.5t435.5 141.5t435.5 -141.5t152.5 -388.5t-152.5 -389t-435.5 -142t-435.5 141.5t-152.5 389.5zM649 12q36 0 62 29t40.5 73.5t23 113.5t11 133t2.5 147t-2.5 145.5t-11 129.5t-23 110t-40.5 70.5t-62 27.5q-44 0 -73 -39t-42.5 -113.5 t-18.5 -150.5t-5 -182q0 -105 5 -183t19 -154t43 -116.5t72 -40.5zM694 1368q0 91 64 155t155 64q89 0 153 -64t64 -155q0 -89 -64 -153t-153 -64q-91 0 -155 64t-64 153zM168 1368q0 91 64 155t155 64q89 0 153 -64t64 -155q0 -89 -64 -153t-153 -64q-91 0 -155 64t-64 153 z" />
<glyph unicode="&#xf7;" horiz-adv-x="1122" d="M96 459v96h930v-96h-930zM348 186q0 83 60 143t143 60q90 0 151.5 -59.5t61.5 -143.5q0 -91 -61 -152t-152 -61q-84 0 -143.5 61.5t-59.5 151.5zM348 829q0 83 60 143t143 60q90 0 151.5 -59.5t61.5 -143.5q0 -91 -61 -152t-152 -61q-84 0 -143.5 61.5t-59.5 151.5z" />
<glyph unicode="&#xf8;" horiz-adv-x="1286" d="M92 -211l193 266q-113 66 -171.5 180t-58.5 267q0 247 152.5 388.5t435.5 141.5q176 0 305 -57l168 233h88l-192 -268q107 -67 163 -179.5t56 -258.5q0 -247 -152.5 -389t-435.5 -142q-166 0 -295 52l-168 -234h-88zM504 506q0 -97 2 -144l268 371q-12 125 -42 194.5 t-89 69.5q-44 0 -73 -40t-42.5 -115.5t-18.5 -152.5t-5 -183zM643 6q36 0 62 29.5t40.5 75t23 115.5t11 134t2.5 148q0 76 -2 115l-266 -371q24 -246 129 -246z" />
<glyph unicode="&#xf9;" horiz-adv-x="1400" d="M670 958v33h571v-805q0 -34 2 -53.5t10.5 -41t25.5 -32t47 -17.5t75 -7v-35h-590v233q-28 -120 -114 -191t-210 -71q-59 0 -114 19.5t-101 57.5t-74 102.5t-28 146.5v534q0 19 -2 33t-11 33t-25 31t-47 21t-75 9v33h590v-690q0 -81 21 -116t73 -35q43 0 77 42t40 105v532 q0 25 -4 43t-16.5 40t-43 34t-77.5 12zM809 1118l-406 479h416v-479h-10z" />
<glyph unicode="&#xfa;" horiz-adv-x="1400" d="M670 958v33h571v-805q0 -34 2 -53.5t10.5 -41t25.5 -32t47 -17.5t75 -7v-35h-590v233q-28 -120 -114 -191t-210 -71q-59 0 -114 19.5t-101 57.5t-74 102.5t-28 146.5v534q0 19 -2 33t-11 33t-25 31t-47 21t-75 9v33h590v-690q0 -81 21 -116t73 -35q43 0 77 42t40 105v532 q0 25 -4 43t-16.5 40t-43 34t-77.5 12zM983 1597l-405 -479h-11v479h416z" />
<glyph unicode="&#xfb;" horiz-adv-x="1400" d="M670 958v33h571v-805q0 -34 2 -53.5t10.5 -41t25.5 -32t47 -17.5t75 -7v-35h-590v233q-28 -120 -114 -191t-210 -71q-59 0 -114 19.5t-101 57.5t-74 102.5t-28 146.5v534q0 19 -2 33t-11 33t-25 31t-47 21t-75 9v33h590v-690q0 -81 21 -116t73 -35q43 0 77 42t40 105v532 q0 25 -4 43t-16.5 40t-43 34t-77.5 12zM694 1313l-415 -221l-7 6l422 551l422 -551l-6 -8z" />
<glyph unicode="&#xfc;" horiz-adv-x="1400" d="M670 958v33h571v-805q0 -34 2 -53.5t10.5 -41t25.5 -32t47 -17.5t75 -7v-35h-590v233q-28 -120 -114 -191t-210 -71q-59 0 -114 19.5t-101 57.5t-74 102.5t-28 146.5v534q0 19 -2 33t-11 33t-25 31t-47 21t-75 9v33h590v-690q0 -81 21 -116t73 -35q43 0 77 42t40 105v532 q0 25 -4 43t-16.5 40t-43 34t-77.5 12zM739 1368q0 91 64 155t155 64q90 0 154 -64.5t64 -154.5q0 -89 -64.5 -153t-153.5 -64q-91 0 -155 64t-64 153zM213 1368q0 91 64 155t155 64q89 0 153 -64t64 -155q0 -89 -64 -153t-153 -64q-91 0 -155 64t-64 153z" />
<glyph unicode="&#xfd;" horiz-adv-x="1257" d="M270 -541q49 0 118.5 77.5t148.5 262.5l73 174l-401 869q-19 44 -34.5 65t-48.5 35t-89 14v35h700v-35q-76 0 -101 -22t-5 -72l178 -434l86 195q60 135 71.5 207.5t-18 99t-104.5 26.5v35h413v-35q-90 0 -145 -66.5t-151 -287.5l-390 -881q-42 -95 -86 -160t-88 -97.5 t-83 -45t-85 -12.5q-48 0 -93 14.5t-83.5 42t-62 74.5t-23.5 107q0 84 53 139t134 55q90 0 136 -55t46 -137q0 -110 -66 -187zM1096 1597l-406 -479h-10v479h416z" />
<glyph unicode="&#xfe;" horiz-adv-x="1409" d="M4 1673h617v-792q108 163 294 163q106 0 191 -44.5t138.5 -119.5t81.5 -171t28 -203q0 -106 -29 -202t-82 -170.5t-135 -118.5t-182 -44q-88 0 -168 41t-137 119v-520q0 -29 1.5 -46t7 -38t17 -32.5t31 -22t50.5 -15t73 -4.5v-33h-776v33q45 0 75 7.5t46.5 19t25 34.5 t10.5 43t2 56v1874q0 28 -1.5 44.5t-7 36.5t-17 31t-31 21.5t-50.5 15t-73 4.5v33zM903 506q0 62 -8.5 121.5t-28 119t-58.5 96t-93 36.5q-47 0 -94 -23v-702q43 -21 94 -21t90 37.5t59 97t29.5 120t9.5 118.5z" />
<glyph unicode="&#xff;" horiz-adv-x="1257" d="M270 -541q49 0 118.5 77.5t148.5 262.5l73 174l-401 869q-19 44 -34.5 65t-48.5 35t-89 14v35h700v-35q-76 0 -101 -22t-5 -72l178 -434l86 195q60 135 71.5 207.5t-18 99t-104.5 26.5v35h413v-35q-90 0 -145 -66.5t-151 -287.5l-390 -881q-42 -95 -86 -160t-88 -97.5 t-83 -45t-85 -12.5q-48 0 -93 14.5t-83.5 42t-62 74.5t-23.5 107q0 84 53 139t134 55q90 0 136 -55t46 -137q0 -110 -66 -187zM770 1368q0 91 64 155t155 64q89 0 153 -64t64 -155q0 -89 -64 -153t-153 -64q-91 0 -155 64t-64 153zM244 1368q0 91 64 155t155 64 q89 0 153 -64t64 -155q0 -89 -64 -153t-153 -64q-91 0 -155 64t-64 153z" />
<glyph unicode="&#x152;" horiz-adv-x="2486" d="M2116 1237v-739h-23q-27 163 -121 254.5t-243 91.5v-668q0 -73 29 -100t116 -27h104q67 0 124 16.5t97 43.5t73 68t54 82t37.5 94.5t25.5 96t17 95.5h25v-545h-1497q-395 0 -621.5 225.5t-226.5 622.5q0 393 225 609t623 216h1423v-532h-24q-9 52 -18 92.5t-26 93.5 t-37.5 92.5t-53 80.5t-73 67t-97 42.5t-123.5 16.5h-176v-735q149 0 243 91.5t121 254.5h23zM1296 836q0 794 -362 794q-113 0 -189 -75.5t-119.5 -255t-43.5 -463.5q0 -213 24 -366.5t70.5 -245.5t110 -134.5t147.5 -42.5q362 0 362 789z" />
<glyph unicode="&#x153;" horiz-adv-x="1837" d="M55 502q0 247 152.5 388.5t435.5 141.5q108 0 199.5 -31.5t152.5 -87.5q53 63 139.5 94t186.5 31q213 0 336.5 -113t144.5 -300h-579v-47q0 -226 82 -332.5t211 -106.5q155 0 268 146l14 -9q-128 -305 -457 -305q-229 0 -337 117q-111 -117 -361 -117 q-283 0 -435.5 141.5t-152.5 389.5zM643 6q44 0 74 42t45 118.5t20.5 157.5t5.5 184t-5.5 182t-20.5 153t-45 114t-74 40t-73 -40t-42.5 -115.5t-18.5 -152.5t-5 -183q0 -83 2.5 -147.5t11.5 -133.5t23.5 -114.5t40.5 -75t61 -29.5zM1321 999q-86 0 -98 -333h184 q-1 57 -3 100.5t-7.5 89.5t-14.5 75.5t-24.5 48.5t-36.5 19z" />
<glyph unicode="&#x178;" horiz-adv-x="1687" d="M1001 844l234 493q39 81 53 138.5t9.5 88.5t-29.5 47.5t-51 20.5t-68 4v37h539v-37q-31 0 -50.5 -1.5t-50 -8t-53 -18.5t-53.5 -35.5t-58 -57.5t-59 -85t-64 -117l-258 -529v-591q0 -46 5.5 -72t24 -48t56 -31t99.5 -9v-33h-828v33q62 0 99.5 9t56 31.5t24 49.5t5.5 74 v510l-383 817q-66 112 -213 112v37h862v-37q-196 0 -111 -149zM348 1993q0 91 64 155t155 64q89 0 153 -64t64 -155q0 -89 -64 -153t-153 -64q-91 0 -155 64t-64 153zM1059 1993q0 91 64 155t155 64q89 0 153 -64t64 -155q0 -89 -64 -153t-153 -64q-91 0 -155 64t-64 153z " />
<glyph unicode="&#x2c6;" horiz-adv-x="954" d="M477 1313l-416 -221l-6 6l422 551l422 -551l-6 -8z" />
<glyph unicode="&#x2dc;" horiz-adv-x="944" d="M741 1532l142 110l6 -2l-96 -421h-590l-144 -111l-4 2l97 422h589z" />
<glyph unicode="&#x2000;" horiz-adv-x="1142" />
<glyph unicode="&#x2001;" horiz-adv-x="2284" />
<glyph unicode="&#x2002;" horiz-adv-x="1142" />
<glyph unicode="&#x2003;" horiz-adv-x="2284" />
<glyph unicode="&#x2004;" horiz-adv-x="761" />
<glyph unicode="&#x2005;" horiz-adv-x="571" />
<glyph unicode="&#x2006;" horiz-adv-x="380" />
<glyph unicode="&#x2007;" horiz-adv-x="380" />
<glyph unicode="&#x2008;" horiz-adv-x="285" />
<glyph unicode="&#x2009;" horiz-adv-x="456" />
<glyph unicode="&#x200a;" horiz-adv-x="126" />
<glyph unicode="&#x2010;" horiz-adv-x="794" d="M96 471v96h602v-96h-602z" />
<glyph unicode="&#x2011;" horiz-adv-x="794" d="M96 471v96h602v-96h-602z" />
<glyph unicode="&#x2012;" horiz-adv-x="794" d="M96 471v96h602v-96h-602z" />
<glyph unicode="&#x2013;" horiz-adv-x="1040" d="M96 471v96h848v-96h-848z" />
<glyph unicode="&#x2014;" horiz-adv-x="1546" d="M96 469v98h1354v-98h-1354z" />
<glyph unicode="&#x2018;" horiz-adv-x="581" d="M342 1432q87 -10 146 -84.5t59 -163.5q0 -106 -74.5 -181t-181.5 -75q-122 0 -189 82t-67 204q0 91 54 191.5t152.5 184.5t215.5 122l8 -12q-43 -26 -83 -113.5t-40 -154.5z" />
<glyph unicode="&#x2019;" horiz-adv-x="561" d="M256 1206q-87 10 -146 84.5t-59 163.5q0 106 74.5 181t181.5 75q122 0 189 -82.5t67 -204.5q0 -91 -54 -191t-152.5 -184t-215.5 -122l-8 12q43 26 83 113.5t40 154.5z" />
<glyph unicode="&#x201a;" horiz-adv-x="581" d="M215 -18q-79 24 -129.5 91t-50.5 152q0 106 74.5 181t181.5 75q122 0 189 -82t67 -204q0 -91 -54 -191.5t-152.5 -184.5t-215.5 -122l-8 12q40 25 69 112.5t29 160.5z" />
<glyph unicode="&#x201c;" horiz-adv-x="1177" d="M938 1432q87 -10 146 -84.5t59 -163.5q0 -106 -74.5 -181t-181.5 -75q-122 0 -189 82t-67 204q0 91 54 191.5t152.5 184.5t215.5 122l8 -12q-43 -26 -83 -113.5t-40 -154.5zM342 1432q87 -10 146 -84.5t59 -163.5q0 -106 -74.5 -181t-181.5 -75q-122 0 -189 82t-67 204 q0 91 54 191.5t152.5 184.5t215.5 122l8 -12q-43 -26 -83 -113.5t-40 -154.5z" />
<glyph unicode="&#x201d;" horiz-adv-x="1177" d="M240 1206q-87 10 -146 84.5t-59 163.5q0 106 74.5 181t181.5 75q122 0 189 -82.5t67 -204.5q0 -91 -54 -191t-152.5 -184t-215.5 -122l-8 12q43 26 83 113.5t40 154.5zM836 1206q-87 10 -146 84.5t-59 163.5q0 106 74.5 181t181.5 75q122 0 189 -82.5t67 -204.5 q0 -91 -54 -191t-152.5 -184t-215.5 -122l-8 12q43 26 83 113.5t40 154.5z" />
<glyph unicode="&#x201e;" horiz-adv-x="1177" d="M240 -20q-87 10 -146 84t-59 163q0 106 74.5 181t181.5 75q122 0 189 -82t67 -204q0 -91 -54 -191.5t-152.5 -184.5t-215.5 -122l-8 12q43 26 83 114t40 155zM836 -20q-87 10 -146 84t-59 163q0 106 74.5 181t181.5 75q122 0 189 -82t67 -204q0 -91 -54 -191.5 t-152.5 -184.5t-215.5 -122l-8 12q43 26 83 114t40 155z" />
<glyph unicode="&#x2022;" horiz-adv-x="860" d="M96 530q0 135 96.5 231.5t231.5 96.5q144 0 242 -96t98 -232q0 -145 -97.5 -242.5t-242.5 -97.5q-136 0 -232 98t-96 242z" />
<glyph unicode="&#x2026;" horiz-adv-x="1724" d="M35 225q0 106 75 181t181 75t181 -75t75 -181t-75 -181t-181 -75t-181 75t-75 181zM606 225q0 106 75 181t181 75t181 -75t75 -181t-75 -181t-181 -75t-181 75t-75 181zM1178 225q0 106 75 181t181 75t181 -75t75 -181t-75 -181t-181 -75t-181 75t-75 181z" />
<glyph unicode="&#x202f;" horiz-adv-x="456" />
<glyph unicode="&#x2039;" horiz-adv-x="630" d="M573 70l-538 430l536 432h25l-184 -430l184 -432h-23z" />
<glyph unicode="&#x203a;" horiz-adv-x="630" d="M596 500l-539 -430h-22l184 432l-184 430h24z" />
<glyph unicode="&#x205f;" horiz-adv-x="571" />
<glyph unicode="&#x20ac;" horiz-adv-x="1759" d="M1616 1108h-25q-28 125 -75.5 223.5t-101.5 158t-117.5 98.5t-119.5 54t-112 15q-167 0 -273.5 -167t-132.5 -474h510v-70h-514q-2 -39 -2 -119q0 -71 2 -104h514v-70h-510q24 -300 130.5 -463t293.5 -163q44 0 87.5 9t95 30.5t98.5 62t91 98t80 145.5t58 197h25v-460 q-245 -138 -567 -138q-159 0 -293 35.5t-231 97.5t-169.5 149t-114.5 186.5t-61 213.5h-168v70h158q-4 37 -4 111q0 56 6 112h-160v70h168q54 321 287.5 507.5t583.5 186.5q294 0 565 -135z" />
<glyph unicode="&#x2122;" horiz-adv-x="2301" d="M55 1331v342h934v-342h-24q-5 29 -7 41t-8.5 43.5t-13 47.5t-18.5 44.5t-25.5 44.5t-34 36t-44.5 31t-56.5 18.5t-69.5 7.5v-752q0 -56 28.5 -79t117.5 -23v-27h-621v27q88 0 115.5 23t27.5 79v752q-63 0 -111.5 -21t-75 -50.5t-45.5 -74t-27 -78.5t-15 -76q-1 -9 -2 -14 h-25zM1141 983l22 567q3 52 -25.5 73.5t-90.5 21.5v28h430l176 -418l143 418h422v-28q-57 0 -81.5 -19.5t-22.5 -62.5l28 -693q2 -37 25.5 -58t79.5 -21v-27h-537v27q57 0 78.5 20.5t21.5 58.5l-24 629l-266 -747h-13l-301 716l-18 -485q-4 -60 5.5 -99.5t31.5 -59 t46.5 -26.5t59.5 -7v-27h-344v27q72 0 111 39t43 153z" />
<glyph unicode="&#xe000;" horiz-adv-x="993" d="M0 993h993v-993h-993v993z" />
</font>
</defs>
</svg>
