<?xml version="1.0" encoding="utf-8"?>
<!-- Generator: Adobe Illustrator 16.1.0, SVG Export Plug-In . SVG Version: 6.00 Build 0)  -->
<!DOCTYPE svg PUBLIC "-//W3C//DTD SVG 1.0//EN" "http://www.w3.org/TR/2001/REC-SVG-20010904/DTD/svg10.dtd">
<svg version="1.0" id="C6" xmlns="http://www.w3.org/2000/svg" xmlns:xlink="http://www.w3.org/1999/xlink" x="0px" y="0px"
	 width="609px" height="690px" viewBox="0 0 609 690" enable-background="new 0 0 609 690" xml:space="preserve">
<g opacity="0.05">
	<path fill="#272525" d="M481.604,224.133l-159.064-89.805c-5.28-2.983-11.985-1.12-14.971,4.166
		c-2.984,5.285-1.118,11.988,4.167,14.971L470.8,243.271c1.706,0.964,3.562,1.422,5.393,1.422c3.834,0,7.559-2.011,9.577-5.588
		C488.755,233.819,486.889,227.117,481.604,224.133z"/>
	<path fill="#272525" d="M459.672,449.996l-148.099,86.945c-5.232,3.072-6.984,9.805-3.911,15.04
		c2.045,3.484,5.716,5.425,9.485,5.425c1.891,0,3.807-0.486,5.553-1.514l148.1-86.945c5.232-3.072,6.985-9.805,3.912-15.038
		C471.641,448.674,464.903,446.923,459.672,449.996z"/>
	<path fill="#272525" d="M123.521,250.392c-6.068,0-10.988,4.919-10.988,10.988v175.818c0,6.069,4.92,10.989,10.988,10.989
		c6.069,0,10.988-4.92,10.988-10.989V261.38C134.509,255.312,129.59,250.392,123.521,250.392z"/>
	<path fill="#272525" d="M591.992,471.1l-0.366-254.646c8.077-6.121,13.326-15.786,13.326-26.678
		c0-18.47-15.026-33.496-33.496-33.496c-4.776,0-9.313,1.02-13.427,2.83L337.691,32.316c-2.879-15.562-16.529-27.394-32.914-27.394
		c-16.187,0-29.723,11.54-32.824,26.823L51.758,159.3c-4.22-1.923-8.892-3.021-13.824-3.021c-18.469,0-33.494,15.026-33.494,33.496
		c0,10.728,5.088,20.269,12.957,26.403l0.365,254.651C9.688,476.953,4.44,486.615,4.44,497.509c0,18.472,15.025,33.5,33.494,33.5
		c4.033,0,7.884-0.753,11.468-2.066L271.61,656.814c2.183,16.372,16.205,29.058,33.167,29.058c16.839,0,30.776-12.503,33.113-28.702
		l221.648-128.397c3.71,1.419,7.716,2.229,11.917,2.229c18.47,0,33.496-15.025,33.496-33.496
		C604.952,486.776,599.863,477.235,591.992,471.1z M323.268,624.47c-5.304-3.524-11.658-5.591-18.49-5.591
		c-6.722,0-12.974,2.008-18.226,5.432L71.281,500.433c0.084-0.966,0.149-1.938,0.149-2.924c0-12.897-7.338-24.096-18.048-29.692
		l-0.357-248.178c10.9-5.533,18.405-16.826,18.405-29.863c0-0.23-0.031-0.452-0.035-0.681L284.974,65.372
		c5.556,4.093,12.392,6.543,19.804,6.543c7.245,0,13.939-2.335,19.424-6.259l213.811,123.035c-0.012,0.362-0.056,0.718-0.056,1.084
		c0,12.898,7.34,24.097,18.051,29.691l0.357,248.174c-10.904,5.531-18.408,16.826-18.408,29.864c0,0.853,0.064,1.691,0.128,2.527
		L323.268,624.47z"/>
</g>
</svg>
